<svg id="Layer_1" data-name="Layer 1" xmlns="http://www.w3.org/2000/svg" viewBox="0 0 793.7 1218.9"><defs><style>.cls-1{fill:#086961;}.cls-2{fill:#fff;}</style></defs><path class="cls-1" d="M495.22,627.19a54.18,54.18,0,0,1-10.38,8.52,49.76,49.76,0,0,1-17.49,6.71,43.54,43.54,0,0,1-8.16.47c-24.66,0-49.32.05-74-.06-9.06,0-17.25-3-24.74-8.1a47.8,47.8,0,0,1-16-18,44.42,44.42,0,0,1-5.15-20.58q.15-37.18,0-74.36a45.86,45.86,0,0,1,5.59-21.88,49.34,49.34,0,0,1,9-11.84c7.1-7.13,15.74-11,25.38-13a36.06,36.06,0,0,1,7.2-.55c24.79,0,49.59-.08,74.38,0a45.1,45.1,0,0,1,19,4.45,50.46,50.46,0,0,1,14.6,10.51,60.58,60.58,0,0,1,6.62,8.58l1.29,2.33a48.77,48.77,0,0,1,5.07,16.79,49.48,49.48,0,0,1,.32,5.17c0,23.6-.05,47.2.05,70.81A52.77,52.77,0,0,1,503,615.83a30.06,30.06,0,0,1-4.56,7.47c-.15.25-.3.5-.46.75l0,0a20.19,20.19,0,0,0-2.74,3.17M344.14,558.73h-.05c0,9.75,0,19.5,0,29.25a104.8,104.8,0,0,0,.33,11.75,43.69,43.69,0,0,0,42.95,38.41q36.12.06,72.24,0a39.66,39.66,0,0,0,8.55-1c20.87-4.61,34.88-22.06,34.88-43.44q0-35,0-70.07a47.57,47.57,0,0,0-1.11-10.3,43.58,43.58,0,0,0-42.42-34.13q-35.52,0-71.05,0a50.94,50.94,0,0,0-8.19.68c-20,3.21-35.75,21.07-36.1,41.33-.21,12.49,0,25,0,37.48"/><path class="cls-1" d="M351.89,558.9v35.92a29.51,29.51,0,0,0,.34,4.49,36.53,36.53,0,0,0,36.46,31.42c14.85,0,29.7.12,44.54-.24,6.87-.17,13.75,0,20.61-.06a73.23,73.23,0,0,0,10.57-.42,36.7,36.7,0,0,0,30.83-36q0-35.43,0-70.87a32.42,32.42,0,0,0-.28-4.29,36.52,36.52,0,0,0-36.75-32.21q-35.13.12-70.26.33a35.77,35.77,0,0,0-5.46.43C365.3,490,351.9,505.56,351.89,523V558.9"/><path class="cls-1" d="M351.89,558.9V523c0-17.41,13.41-33,30.61-35.59A35.77,35.77,0,0,1,388,487q35.13-.19,70.26-.33A36.52,36.52,0,0,1,495,518.83a32.42,32.42,0,0,1,.28,4.29q0,35.45,0,70.87a36.72,36.72,0,0,1-30.83,36,73.37,73.37,0,0,1-10.58.42c-6.86.1-13.74-.11-20.61.06-14.84.36-29.69.2-44.54.24a36.53,36.53,0,0,1-36.46-31.42,29.51,29.51,0,0,1-.34-4.49V558.9"/><path class="cls-2" d="M374.21,550.07V537.38H474.84v7.85a16.77,16.77,0,0,0-1.9.17,6.42,6.42,0,0,0-4.17,2.76,4.27,4.27,0,0,1-7.12.06,6.69,6.69,0,0,0-3.34-2.59,6.57,6.57,0,0,0-7.61,2.49,4.21,4.21,0,0,1-2.81,1.91,4.15,4.15,0,0,1-4.37-1.85,6.61,6.61,0,0,0-10.93,0,4.22,4.22,0,0,1-2.82,1.9,4.13,4.13,0,0,1-4.32-1.8,6.63,6.63,0,0,0-3.78-2.73,6.56,6.56,0,0,0-7.17,2.61,4.23,4.23,0,0,1-2.88,1.93,4.12,4.12,0,0,1-4.26-1.8,6.94,6.94,0,0,0-2.57-2.27,6.58,6.58,0,0,0-8.4,2.15,4.18,4.18,0,0,1-2.81,1.91,4.13,4.13,0,0,1-4.35-1.82,6.62,6.62,0,0,0-11-.08,4.28,4.28,0,0,1-3,1.94,9.19,9.19,0,0,1-1.05,0"/><path class="cls-2" d="M404.43,522.37h1.63v1.4h1.68v-1.4h1.67v1.4h.91c.09-.59.19-1.19.29-1.79l.42-2.73a4.14,4.14,0,0,0,.06-.7c0-1.93,0-3.87,0-5.8v-.43h18.47c0,1.92-.09,3.84,0,5.75s.39,3.8.6,5.71h1v-1.41h1.67v1.4h1.69v-3.08h3.36V514h6.69v21.75h-40.2Zm21.75-5h-3.31v3.31h3.31Zm-8.38,0h-3.31v3.31h3.31Zm25,.28h-3v3h3Z"/><path class="cls-2" d="M374.2,557.51v-2.39a14.57,14.57,0,0,0,1.53-.18,4.24,4.24,0,0,0,2.54-1.83,6.23,6.23,0,0,1,4.11-2.73,6.43,6.43,0,0,1,6.81,2.75,4.43,4.43,0,0,0,2.39,1.78,4.2,4.2,0,0,0,4.69-1.68,6.74,6.74,0,0,1,3.45-2.66,6.61,6.61,0,0,1,7.55,2.51A4.21,4.21,0,0,0,410,555a4.13,4.13,0,0,0,4.45-1.78,6.77,6.77,0,0,1,3.22-2.54,6.58,6.58,0,0,1,7.74,2.42A4.24,4.24,0,0,0,428,555a4.13,4.13,0,0,0,4.46-1.76,6.64,6.64,0,0,1,3.94-2.78,6.57,6.57,0,0,1,7,2.65,4.24,4.24,0,0,0,2.68,1.89,4.09,4.09,0,0,0,4.43-1.75,6.71,6.71,0,0,1,3.9-2.78,6.58,6.58,0,0,1,7.1,2.65A4.4,4.4,0,0,0,464,554.9a4.19,4.19,0,0,0,4.72-1.68,6.5,6.5,0,0,1,3.78-2.74,14.81,14.81,0,0,1,2.11-.24c.15,0,.29,0,.29.22,0,.71,0,1.42,0,2.16h-.31a4.15,4.15,0,0,0-3.86,1.88,6.62,6.62,0,0,1-11,.07,4.36,4.36,0,0,0-2.4-1.8,4.22,4.22,0,0,0-4.72,1.71,6.62,6.62,0,0,1-11,.11,4.18,4.18,0,0,0-2.69-1.88,4.13,4.13,0,0,0-4.45,1.78,6.62,6.62,0,0,1-11,.08,4.25,4.25,0,0,0-2.66-1.86,4.14,4.14,0,0,0-4.48,1.79,6.62,6.62,0,0,1-11,.07,4.18,4.18,0,0,0-2.7-1.87,4.11,4.11,0,0,0-4.4,1.76,6.67,6.67,0,0,1-3.87,2.77,6.58,6.58,0,0,1-7.14-2.67,4.34,4.34,0,0,0-2.38-1.79,4.2,4.2,0,0,0-4.72,1.7,6.55,6.55,0,0,1-4,2.79c-.64.14-1.31.16-2,.25"/><path class="cls-2" d="M374.2,572.92v-2.43a10.79,10.79,0,0,0,1.15-.06,4.22,4.22,0,0,0,2.9-1.89,6.28,6.28,0,0,1,4.37-2.8,6.43,6.43,0,0,1,6.56,2.78,4.49,4.49,0,0,0,2.22,1.74,4.21,4.21,0,0,0,4.9-1.66,6.64,6.64,0,0,1,11-.1,4.25,4.25,0,0,0,7.13.09,6.7,6.7,0,0,1,3.41-2.61,6.57,6.57,0,0,1,7.54,2.51,4.19,4.19,0,0,0,2.72,1.89,4.12,4.12,0,0,0,4.44-1.8,6.63,6.63,0,0,1,11-.05,4.16,4.16,0,0,0,4,1.92,4.07,4.07,0,0,0,3.14-1.91,6.43,6.43,0,0,1,3.8-2.69,6.59,6.59,0,0,1,7.13,2.66,4.42,4.42,0,0,0,2.2,1.75,4.23,4.23,0,0,0,4.93-1.67,6.67,6.67,0,0,1,3.73-2.71,6.18,6.18,0,0,1,2.39-.2V568c-.46,0-.92,0-1.36.08a4.19,4.19,0,0,0-2.81,1.87,6.33,6.33,0,0,1-4.23,2.78,6.44,6.44,0,0,1-6.7-2.74,4.62,4.62,0,0,0-2.17-1.74,4.25,4.25,0,0,0-5,1.65,6.35,6.35,0,0,1-4.14,2.8,6.45,6.45,0,0,1-6.85-2.74,4.32,4.32,0,0,0-2.61-1.84,4.21,4.21,0,0,0-4.53,1.82,6.49,6.49,0,0,1-3.61,2.64,6.58,6.58,0,0,1-7.34-2.61,4.14,4.14,0,0,0-3.13-1.92,4.1,4.1,0,0,0-4,1.85,6.62,6.62,0,0,1-11,.09,4.29,4.29,0,0,0-7.09-.18,9.62,9.62,0,0,1-1.45,1.6,6.59,6.59,0,0,1-9.57-1.43,4.37,4.37,0,0,0-2.18-1.73,4.24,4.24,0,0,0-5,1.66,6.47,6.47,0,0,1-4,2.77,19.1,19.1,0,0,1-2,.24"/><path class="cls-2" d="M474.84,598.05a12.59,12.59,0,0,0-1.54.14,4.13,4.13,0,0,0-2.64,1.84,6.45,6.45,0,0,1-3.94,2.72,6.59,6.59,0,0,1-7-2.7,4.18,4.18,0,0,0-3.56-2,4.13,4.13,0,0,0-3.6,1.92,6.46,6.46,0,0,1-4,2.75,6.53,6.53,0,0,1-6.9-2.7,4.32,4.32,0,0,0-2.53-1.84A4.2,4.2,0,0,0,434.5,600a6.63,6.63,0,0,1-11,.09,4.32,4.32,0,0,0-2.5-1.84,4.22,4.22,0,0,0-4.62,1.73,6.63,6.63,0,0,1-11,.1,4.31,4.31,0,0,0-2.5-1.83,4.22,4.22,0,0,0-4.64,1.77,6.63,6.63,0,0,1-10.95.07,4.31,4.31,0,0,0-2.85-1.91,4.12,4.12,0,0,0-4.29,1.82,6.53,6.53,0,0,1-4.18,2.81,17.11,17.11,0,0,1-1.8.19v-2.44c.31,0,.62,0,.92,0a4.2,4.2,0,0,0,3.11-1.9,6.28,6.28,0,0,1,4.29-2.8,6.46,6.46,0,0,1,6.7,2.82,4.17,4.17,0,0,0,3.61,1.9,4.09,4.09,0,0,0,3.48-1.91,6.63,6.63,0,0,1,11-.06,4.34,4.34,0,0,0,2.52,1.84,4.2,4.2,0,0,0,4.59-1.73,6.63,6.63,0,0,1,11-.11,4.33,4.33,0,0,0,2.3,1.78,4.23,4.23,0,0,0,4.81-1.68,6.67,6.67,0,0,1,3.75-2.73,6.6,6.6,0,0,1,7.25,2.64,4.25,4.25,0,0,0,7.11.08,6.63,6.63,0,0,1,11-.1,4.21,4.21,0,0,0,3.48,2,4.11,4.11,0,0,0,3.68-1.92,6.6,6.6,0,0,1,3.83-2.71,5.49,5.49,0,0,1,2.27-.15Z"/><path class="cls-2" d="M474.84,558v2.3a12.3,12.3,0,0,0-1.5.13,4.13,4.13,0,0,0-2.67,1.83,6.45,6.45,0,0,1-4,2.75,6.56,6.56,0,0,1-6.89-2.7,4.28,4.28,0,0,0-7.18,0,6.41,6.41,0,0,1-4,2.73,6.54,6.54,0,0,1-6.93-2.7,4.19,4.19,0,0,0-2.89-1.91,4.08,4.08,0,0,0-4.22,1.81,6.63,6.63,0,0,1-3.78,2.73,6.56,6.56,0,0,1-7.22-2.64,4.34,4.34,0,0,0-2.5-1.82,4.19,4.19,0,0,0-4.61,1.74,6.64,6.64,0,0,1-11,.08,4.25,4.25,0,0,0-7.13,0,6.62,6.62,0,0,1-10.95.07,4.19,4.19,0,0,0-3.55-2,4.1,4.1,0,0,0-3.61,1.91A6.51,6.51,0,0,1,376,565a17.14,17.14,0,0,1-1.8.18v-2.44a7.53,7.53,0,0,0,1,0,4.14,4.14,0,0,0,3.07-1.9,6.64,6.64,0,0,1,11,0,4.26,4.26,0,0,0,7.11,0,6.49,6.49,0,0,1,4-2.76,6.57,6.57,0,0,1,7,2.72,4.2,4.2,0,0,0,3.46,1.94,4.09,4.09,0,0,0,3.66-1.88,6.45,6.45,0,0,1,4-2.78,6.55,6.55,0,0,1,6.92,2.69,4.39,4.39,0,0,0,1.93,1.64,4.23,4.23,0,0,0,5.19-1.53,6.62,6.62,0,0,1,11-.1,4.29,4.29,0,0,0,2.53,1.84,4.21,4.21,0,0,0,4.61-1.77,6.62,6.62,0,0,1,11-.06,4.15,4.15,0,0,0,3.45,1.95,4.08,4.08,0,0,0,3.68-1.9,6.52,6.52,0,0,1,4.15-2.79,5.38,5.38,0,0,1,2-.1"/><path class="cls-2" d="M474.86,591.09a15.81,15.81,0,0,0-1.6.15,4.17,4.17,0,0,0-2.6,1.84,6.31,6.31,0,0,1-4.11,2.74,6.44,6.44,0,0,1-6.82-2.73,4.28,4.28,0,0,0-2.76-1.88,4.11,4.11,0,0,0-4.36,1.8,6.63,6.63,0,0,1-11,.1,4.27,4.27,0,0,0-7.14-.09,6.72,6.72,0,0,1-3,2.45,6.59,6.59,0,0,1-7.95-2.34,4.15,4.15,0,0,0-2.78-1.91,4.11,4.11,0,0,0-4.38,1.8,6.62,6.62,0,0,1-11,.07,4.18,4.18,0,0,0-2.73-1.87,4.14,4.14,0,0,0-4.43,1.84,6.63,6.63,0,0,1-10.93.05,4.22,4.22,0,0,0-2.88-1.92,4.15,4.15,0,0,0-4,1.53c-.28.34-.52.73-.82,1a6.45,6.45,0,0,1-5,2.19h-.38v-2.3a13,13,0,0,0,1.56-.2,4.25,4.25,0,0,0,2.5-1.82,6.28,6.28,0,0,1,4.47-2.8,6.42,6.42,0,0,1,6.43,2.8,4.26,4.26,0,0,0,3.06,1.92,4.09,4.09,0,0,0,4.08-1.85,6.69,6.69,0,0,1,3.44-2.62,6.6,6.6,0,0,1,7.52,2.52,4.28,4.28,0,0,0,2.35,1.81,4.22,4.22,0,0,0,4.8-1.72,6.33,6.33,0,0,1,4.28-2.81,6.43,6.43,0,0,1,6.69,2.76,4.38,4.38,0,0,0,2.57,1.83,4.19,4.19,0,0,0,4.55-1.76,6.62,6.62,0,0,1,11-.09,4.28,4.28,0,0,0,7.09.17,9,9,0,0,1,1.48-1.61,6.58,6.58,0,0,1,9.54,1.44,4.16,4.16,0,0,0,3.05,1.93,4.08,4.08,0,0,0,4.08-1.85,6.72,6.72,0,0,1,3.19-2.53,6.89,6.89,0,0,1,2.62-.42c.25,0,.35.09.34.35,0,.67,0,1.33,0,2"/><path class="cls-2" d="M374.2,580.53v-2.3c.45-.05.9-.05,1.33-.13a4.2,4.2,0,0,0,2.71-1.84,6.4,6.4,0,0,1,3.93-2.73,6.58,6.58,0,0,1,7,2.7,4.26,4.26,0,0,0,7.14,0,6.49,6.49,0,0,1,4-2.75,6.58,6.58,0,0,1,7,2.69,4.28,4.28,0,0,0,2.56,1.85,4.17,4.17,0,0,0,4.57-1.77,6.64,6.64,0,0,1,11-.1,4.25,4.25,0,0,0,2.58,1.87,4.17,4.17,0,0,0,4.53-1.72,6.64,6.64,0,0,1,4-2.81,6.57,6.57,0,0,1,7,2.67,4.36,4.36,0,0,0,2.58,1.87,4.19,4.19,0,0,0,4.53-1.74,6.73,6.73,0,0,1,3-2.47,6.6,6.6,0,0,1,8,2.35,4.18,4.18,0,0,0,3.44,2,4.11,4.11,0,0,0,3.71-1.91,6.37,6.37,0,0,1,3.81-2.69,14.71,14.71,0,0,1,2-.23c.21,0,.31.06.31.31,0,.68,0,1.37,0,2a14.75,14.75,0,0,0-1.56.15,4.1,4.1,0,0,0-2.62,1.81,6.46,6.46,0,0,1-4,2.75,6.54,6.54,0,0,1-6.92-2.71,4.16,4.16,0,0,0-2.86-1.89,4.08,4.08,0,0,0-4.24,1.78,6.66,6.66,0,0,1-3.8,2.76,6.58,6.58,0,0,1-7.19-2.63,4.29,4.29,0,0,0-7.09-.18,8.9,8.9,0,0,1-1.43,1.57,6.57,6.57,0,0,1-9.59-1.4,4.18,4.18,0,0,0-3.62-2,4.09,4.09,0,0,0-3.52,1.89,6.63,6.63,0,0,1-11,.06,4.3,4.3,0,0,0-2.46-1.82,4.22,4.22,0,0,0-4.67,1.77,6.63,6.63,0,0,1-11,0,4.26,4.26,0,0,0-7.12-.06,6.69,6.69,0,0,1-3.92,2.76,6,6,0,0,1-2.07.16"/><path class="cls-2" d="M374.2,588.71V586.4a11.52,11.52,0,0,0,1.33-.13,4.16,4.16,0,0,0,2.71-1.84,6.44,6.44,0,0,1,3.93-2.73,6.57,6.57,0,0,1,7,2.71,4.16,4.16,0,0,0,3.43,1.94,4.1,4.1,0,0,0,3.71-1.9,6.61,6.61,0,0,1,10.95-.06,4.27,4.27,0,0,0,2.56,1.84,4.18,4.18,0,0,0,4.57-1.76,6.62,6.62,0,0,1,11-.1,4.33,4.33,0,0,0,2.58,1.87,4.18,4.18,0,0,0,4.53-1.73,6.64,6.64,0,0,1,4-2.81,6.57,6.57,0,0,1,7,2.68,4.3,4.3,0,0,0,2.58,1.86,4.18,4.18,0,0,0,4.53-1.74,6.8,6.8,0,0,1,3-2.47,6.6,6.6,0,0,1,8,2.35,4.19,4.19,0,0,0,3.44,2,4.12,4.12,0,0,0,3.71-1.92,6.37,6.37,0,0,1,3.81-2.69,13.29,13.29,0,0,1,2-.22c.21,0,.31.06.31.3,0,.69,0,1.37,0,2a14.82,14.82,0,0,0-1.56.14,4.1,4.1,0,0,0-2.62,1.81,6.47,6.47,0,0,1-4,2.76,6.56,6.56,0,0,1-6.92-2.71,4.18,4.18,0,0,0-2.86-1.9,4.09,4.09,0,0,0-4.24,1.79,6.69,6.69,0,0,1-3.8,2.75,6.58,6.58,0,0,1-7.19-2.63,4.25,4.25,0,0,0-2.89-1.91,4.18,4.18,0,0,0-4.2,1.73,8.9,8.9,0,0,1-1.43,1.57,6.57,6.57,0,0,1-9.59-1.4,4.18,4.18,0,0,0-3.62-2,4.11,4.11,0,0,0-3.52,1.89,6.63,6.63,0,0,1-11,.06,4.25,4.25,0,0,0-7.13-.05,6.63,6.63,0,0,1-11,0,4.23,4.23,0,0,0-2.77-1.87,4.14,4.14,0,0,0-4.35,1.81,6.65,6.65,0,0,1-3.92,2.76,6.21,6.21,0,0,1-2.07.17"/><path class="cls-2" d="M469.82,535.79H446.36V522.4H448V524h1.69V522.4h1.69V524H453V522.4h1.67V524h1.67V522.4h1.67V524h1.69V522.4h1.68c0,.44,0,.88,0,1.32,0,.25.05.35.33.34a7.64,7.64,0,0,1,1.07,0c.21,0,.29-.07.28-.29,0-.45,0-.9,0-1.37h3.34a.36.36,0,0,1,0,.14,9.39,9.39,0,0,0,.63,3.71l2.64,9.19c0,.1,0,.21.09.35"/><path class="cls-2" d="M397.67,524.29v-1.91h1.67v1.91H401v-1.92h1.66v13.42H379.24c0-.13.05-.24.09-.36,1.05-3.59,2.11-7.17,3.13-10.77a7.78,7.78,0,0,0,.12-1.68c0-.2,0-.4,0-.61h3.35v1.91h1.68v-1.91h1.68v1.92H391v-1.92h1.68v1.92h1.66v-1.91H396v1.91Z"/></svg>