<svg id="Layer_1" data-name="Layer 1" xmlns="http://www.w3.org/2000/svg" viewBox="0 0 793.7 1218.9"><defs><style>.cls-1{fill:#086961;}.cls-2{fill:#fff;}</style></defs><path class="cls-1" d="M469.19,616.22a54.77,54.77,0,0,1-10.47,8.6,50.32,50.32,0,0,1-17.66,6.77,43.61,43.61,0,0,1-8.25.48c-24.89,0-49.79,0-74.69-.07-9.14,0-17.41-3-25-8.17A48.29,48.29,0,0,1,317,605.62a44.72,44.72,0,0,1-5.21-20.77q.15-37.54,0-75.08a46.12,46.12,0,0,1,5.64-22.09,49.56,49.56,0,0,1,9.05-12c7.17-7.19,15.88-11.12,25.62-13.1a37.48,37.48,0,0,1,7.27-.56c25,0,50.06-.08,75.09,0a45.43,45.43,0,0,1,19.19,4.5,50.68,50.68,0,0,1,14.75,10.61,61.7,61.7,0,0,1,6.68,8.66l1.3,2.35a49.32,49.32,0,0,1,5.12,17,50.41,50.41,0,0,1,.32,5.21c0,23.83,0,47.66.05,71.5A53.19,53.19,0,0,1,477,604.75a30.06,30.06,0,0,1-4.61,7.54c-.15.25-.3.5-.46.75l0,0a20.14,20.14,0,0,0-2.77,3.2M316.66,547.1h-.05c0,9.84,0,19.68,0,29.53a106.77,106.77,0,0,0,.33,11.86,44.12,44.12,0,0,0,43.37,38.78q36.46.06,72.93,0a39.87,39.87,0,0,0,8.64-1C463,621.66,477.1,604,477.1,582.45q0-35.37,0-70.74A48,48,0,0,0,476,501.3a44,44,0,0,0-42.82-34.45q-35.88,0-71.75,0a52.14,52.14,0,0,0-8.27.69c-20.2,3.24-36.09,21.27-36.44,41.72-.21,12.61,0,25.23,0,37.85"/><path class="cls-1" d="M324.49,547.26v36.27a31.28,31.28,0,0,0,.33,4.53,36.9,36.9,0,0,0,36.82,31.73c15,0,30,.12,45-.24,6.93-.17,13.88,0,20.81-.06a73.2,73.2,0,0,0,10.67-.43,37.07,37.07,0,0,0,31.13-36.37V511.15a33.17,33.17,0,0,0-.28-4.34,36.87,36.87,0,0,0-37.1-32.52q-35.47.12-70.94.33a37.78,37.78,0,0,0-5.51.44c-17.37,2.66-30.9,18.36-30.9,35.94q0,18.13,0,36.26"/><path class="cls-2" d="M410.37,575.7c-3.34,2.47-6.71,5-10.1,7.45a2.08,2.08,0,0,1-1.1.38c-2.72,0-5.44.06-8.16,0a2.78,2.78,0,0,1-1.45-.55c-3.12-2.2-6.2-4.45-9.32-6.65a.92.92,0,0,1-.47-1c.74-5.1,1.43-10.21,2.24-15.29a4.9,4.9,0,0,1,1.25-2c1.64-1.94,3.33-3.82,5-5.72l2.13,1.51a2.17,2.17,0,0,1-1.72,1,5.35,5.35,0,0,0-2.17.94,1.11,1.11,0,0,0-.21,1.05c.23.45.67.45,1.17.14a1.59,1.59,0,0,1,1.14-.09.91.91,0,0,1,.63,1.27,3.12,3.12,0,0,0-.15.43c-.07.42-.46,1,.14,1.19a1.41,1.41,0,0,0,1.21-.5,6.8,6.8,0,0,0,.66-1.82c.05-.19,0-.42,0-.6.14-.4.39-.67.75-.19a3.25,3.25,0,0,0,2.87,1.22,17.79,17.79,0,0,0,3.1-.3c.44-.09.81-.54,1.22-.82.25-.17.51-.32.77-.47a3,3,0,0,1,.3.91,2.52,2.52,0,0,0,.84,2.25c.17.15.58.26.72.16a1.15,1.15,0,0,0,.27-.74,9.71,9.71,0,0,1,0-1.21,1.39,1.39,0,0,1,1.92-.93,3.21,3.21,0,0,0,1,0,2.84,2.84,0,0,0-.16-1.19,2.17,2.17,0,0,0-2-1.14c-1.1.12-1.53-.51-2-1.28a7.11,7.11,0,0,1,1.33-.65,1.14,1.14,0,0,1,.95.24,57.84,57.84,0,0,1,4.72,5.19,8,8,0,0,1,.89,3.31c.28,1.67.45,3.35.66,5,.22,1.89.43,3.77.65,5.65.14,1.25.28,2.5.43,3.79m-22-7.7a1,1,0,0,1,.72,1.12,3.83,3.83,0,0,1-3.41,3.7c-.49.1-.76.3-.76.76a.82.82,0,0,0,.77.95c1.73.21,4.71-.77,5.21-3.49.08-.47.2-.93.32-1.48,2.94.92,5.82.43,8.74.26a4.08,4.08,0,0,1,.23.51,4.37,4.37,0,0,0,4.71,3.15c.57-.05,1.11-.27,1.1-.92s-.56-.7-1.07-.68a3.45,3.45,0,0,1-2.73-1.47c-.75-.87-.46-1.86.53-2.1.35.47.66,1,1.05,1.4a1.9,1.9,0,0,0,2.82,0c.22-.29.16-.79.24-1.19a3,3,0,0,0-1-.09c-.74.17-1.2,0-1.3-.8a2.68,2.68,0,0,1,.11-1.2,1.77,1.77,0,0,0-.45-1.79c-1.39-2-3.51-3-5.55-4.06a1.93,1.93,0,0,0-2.09,0,2.3,2.3,0,0,1-2.7,0,2.39,2.39,0,0,0-2.81.22c-1.16.77-2.3,1.58-3.38,2.46a10.56,10.56,0,0,0-1.49,1.7c-.61.78-.09,1.49.18,2.22a1.33,1.33,0,0,1,.09.44c.08,1-.43,1.57-1.32,1.57-.25,0-.72.16-.73.26a1.46,1.46,0,0,0,.27.95,1.59,1.59,0,0,0,2.51-.2,16.58,16.58,0,0,0,1.21-2.21"/><path class="cls-2" d="M395.09,586.3a5.39,5.39,0,0,1,5.62,3.1c.89,1.58,2.09,3,3.12,4.49,1.28,1.85,2.51,3.73,3.79,5.57s2.73,3.9,4.12,5.83c.28.38.23.56-.14.85a29.17,29.17,0,0,1-8.63,4.2,15.65,15.65,0,0,1-2.37.53,1.09,1.09,0,0,1-1.18-1,1.23,1.23,0,0,0-1.32-1c-1.59,0-3.18,0-4.77,0a5.55,5.55,0,0,1-1.21.06c-.86-.18-1.28.32-1.58.94-.23.46-.47.67-1,.55a41,41,0,0,1-4.42-1,37.58,37.58,0,0,1-4.46-2.08c-.72-.36-1.37-.85-2.07-1.26-.48-.29-.43-.6-.14-1,1.6-2.16,3.2-4.32,4.77-6.49,2.29-3.17,4.56-6.37,6.86-9.53a12.55,12.55,0,0,1,1.62-1.8,3.9,3.9,0,0,1,3.38-1"/><path class="cls-2" d="M429.06,565.81a15.23,15.23,0,0,1-6.25-1.1c-.52-.17-1.05-.34-1.55-.56s-.59-.54-.35-1c.4-.84.77-1.71,1.09-2.59.09-.26.06-.79-.08-.86a1.49,1.49,0,0,0-1,0c-.76.27-1.46.68-2.22.94a.85.85,0,0,1-.75-.3,9.4,9.4,0,0,1-.93-1.88,14.66,14.66,0,0,1-.66-7.38,15.14,15.14,0,0,1,1.44-3.37c.27-.64.79-.73,1.38-.36s1.45,1,2.2,1.38a.76.76,0,0,0,.72,0,.78.78,0,0,0,.08-.73c-.41-.79-.89-1.55-1.34-2.32s-.42-1.12.28-1.69a9.48,9.48,0,0,1,5.86-2,11.23,11.23,0,0,1,3.23.08,32.14,32.14,0,0,1,4.37,1.66.73.73,0,0,1,.23.66c-.34,1-.78,2.08-1.1,3.14a1.22,1.22,0,0,0,.19,1.08,1.34,1.34,0,0,0,1.16.07,22,22,0,0,0,2.3-1.32c.44-.26.68-.18,1,.28a16.55,16.55,0,0,1,1.59,4.77c.62,2.48-.11,4.77-1.08,7-.14.33-.3.65-.44,1-.36.88-.43.91-1.28.56A16.54,16.54,0,0,0,435,560a1.89,1.89,0,0,0-1.21.14c-.11.05-.05.65,0,1a15.12,15.12,0,0,0,.74,2.08c.31.66,0,1-.52,1.27-1.63.74-3.2,1.74-5,1.32m-.6-5.22a1.43,1.43,0,0,1,0,.22,12.2,12.2,0,0,0,2.63-.8,7.57,7.57,0,0,0,2.79-3.15,7.27,7.27,0,0,0,.5-4.77,4.65,4.65,0,0,0-1.29-2,7.74,7.74,0,0,0-6.2-2.57,4.75,4.75,0,0,0-3.72,1.56c-1.34,1.55-2.34,3.24-2,5.43a6.59,6.59,0,0,0,1.93,4.19,6.84,6.84,0,0,0,5.28,1.9"/><path class="cls-2" d="M390.23,522c-.93,4-1.83,7.8-2.73,11.64,1.72.45,3.4-.45,4.82.47-.34,3.3-1.54,6.24-2.45,9.25a9.21,9.21,0,0,0-.33,1.56c-.07.55-.41.67-.89.67-2.57,0-5.15-.07-7.7.18-2,.19-3.53-.69-5.22-1.31-.7-.26-1.38-.59-2-.85,0-1.72,0-3.36,0-5,0-1.14,0-2.27.11-3.41a3.13,3.13,0,0,1,.39-.94c.14-.32.28-.63.41-1,0-.11,0-.26.06-.37.88-1.58,1.26-3.43,2.78-4.67a17,17,0,0,0,2-2.41.92.92,0,0,1,.38-.33q3.38-1.2,6.77-2.36c1.16-.4,2.34-.76,3.55-1.15m-.32,17.51a4.76,4.76,0,0,0-2.67-1.31,16.74,16.74,0,0,0-7.3.71c-.49.13-.63.43-.48.93a3.1,3.1,0,0,0,1.92,2c2,.8,4.11,1.24,6.24.12a4.47,4.47,0,0,0,2.29-2.5"/><path class="cls-2" d="M362.82,565.61a11.8,11.8,0,0,1-5.29-1.29,1.64,1.64,0,0,1-.46-.27c-1.26-1.07-1.42-.57-.46-2.28a12.45,12.45,0,0,0,.76-1.66c.08-.23.11-.69,0-.74a1.41,1.41,0,0,0-1-.13,21.23,21.23,0,0,0-2,1c-.54.28-.89.19-1.26-.36a11.07,11.07,0,0,1-1.83-9,20.44,20.44,0,0,1,2-4.31.81.81,0,0,1,.75-.19c.65.27,1.25.64,1.88,1,.42.22.88.59,1.31.11s.25-.93,0-1.44a11.24,11.24,0,0,1-.84-2c-.19-.56.27-.77.66-.95a12.79,12.79,0,0,1,4.86-1.32,15.45,15.45,0,0,1,7.88,1.93c.58.3.71.65.38,1.27a11.29,11.29,0,0,0-.74,2c-.07.23-.07.71,0,.74a1.35,1.35,0,0,0,.91,0,12.78,12.78,0,0,0,1.91-1.07c.4-.29.68-.3.95.09a6.63,6.63,0,0,1,.88,1.39,13.43,13.43,0,0,1,1.08,5.7,11.66,11.66,0,0,1-2.44,6.33.93.93,0,0,1-.81.14c-.54-.19-1-.52-1.58-.74a6.46,6.46,0,0,0-1-.23,3.56,3.56,0,0,0,0,1.22,13.58,13.58,0,0,0,.88,1.85.64.64,0,0,1-.28,1,12.78,12.78,0,0,1-4.12,1.86c-1,.15-2,.27-3,.4m.66-5.36a14.15,14.15,0,0,0,3.24-.85c2.08-1.12,3.5-2.8,3.37-5.38a2.36,2.36,0,0,1,0-.46,4.54,4.54,0,0,0-2.39-5.08A13.58,13.58,0,0,0,364,547a5.71,5.71,0,0,0-5.18,1.49,7.93,7.93,0,0,0-2.26,4.59,2.36,2.36,0,0,0,0,1.21,11.72,11.72,0,0,0,1.16,2.42c1.37,2,3.1,3.48,5.78,3.59"/><path class="cls-2" d="M400.87,522.09c3.17,1.24,6.38,2.4,9.5,3.75a10.73,10.73,0,0,1,2.49,2c1.08,1,2.16,1.92,3.17,2.94a3,3,0,0,1,.74,1.45c.41,2.25.81,4.5,1.06,6.77a21.42,21.42,0,0,1-.14,3.48.71.71,0,0,1-.34.44c-2.13.92-4.26,1.85-6.41,2.71a5.64,5.64,0,0,1-1.66.21l-6.15.36a1.68,1.68,0,0,1-1.77-1.29c-.47-2.71-.91-5.42-1.36-8.13-.15-.94-.31-1.88-.51-3h4.44c-1.14-4-2.21-7.78-3.28-11.57l.22-.12m10.56,16.36a1.79,1.79,0,0,0-.31-.16,2.15,2.15,0,0,0-.51-.15,15.07,15.07,0,0,0-8.25,1.07c-.66.31-.71.72-.41,1.19a4.06,4.06,0,0,0,2.74,2.2,8.59,8.59,0,0,0,4.52-.6,2.23,2.23,0,0,0,1-.65,4.4,4.4,0,0,0,1.23-2.9"/><path class="cls-2" d="M369.23,583.32c1.07-1.08,2.07-2.08,3.08-3.07s2.05-1.89,3-2.91a1,1,0,0,1,1.56-.13q5.42,3.75,10.85,7.47c.5.34,1,.7,1.51,1.08L381.5,596l-12.27-12.71"/><path class="cls-2" d="M420.85,584l-12.51,12.07-7-10.57c1.63-1.19,3.19-2.36,4.77-3.51l6.45-4.71c1.13-.82,1.22-.79,2.15.28,1.14,1.32,2.26,2.67,3.46,3.94.81.86,1.74,1.62,2.7,2.5"/><path class="cls-2" d="M397.23,481.14c.59.1,1.08.16,1.56.27,1.18.27,2.37.48,3.51.85a13.28,13.28,0,0,1,4.81,2.29,25.25,25.25,0,0,1,3.12,3.17,19.15,19.15,0,0,1,2.4,3.67,22.38,22.38,0,0,1,1.36,4c.28,1,.37,2.14.59,3.21.13.61-.06.86-.68.83-2.23-.1-4.47-.2-6.7-.28-.58,0-.53-.41-.59-.78a10.07,10.07,0,0,0-5.31-7.79,24.36,24.36,0,0,0-3.64-1.24c-.17-.06-.41-.27-.42-.42,0-2.56,0-5.12,0-7.8"/><path class="cls-2" d="M395,489.45c-5.66.56-8.71,4.4-9.73,9.91-.73,0-1.49,0-2.24,0-1.59-.07-3.19-.2-4.78-.26-.58,0-.69-.32-.64-.79a17.51,17.51,0,0,1,1.86-7.07,11.8,11.8,0,0,1,2.68-3.53,34.94,34.94,0,0,1,2.8-2.53,25.41,25.41,0,0,1,4.44-2.1c1.65-.63,3.38-1.06,5.07-1.57a3.31,3.31,0,0,1,.54-.05Z"/><path class="cls-2" d="M404,548.42c4.25-.12,8.5.09,12.28-2.26a19.23,19.23,0,0,0-1.27,2.78c-.46,1.61-1.08,3.21-.79,5,.18,1.14.11,2.33.34,3.46a13,13,0,0,0,3.4,6.42,1,1,0,0,1,.18,1.27q-2,3.86-4.05,7.73c-.22.43-.4.89-.63,1.3-.1.17-.32.27-.49.4a2,2,0,0,1-.24-.49c-.2-1.47-.38-2.94-.59-4.42-.48-3.42-1.11-6.84-1.38-10.28-.14-1.72-1.22-2.62-2.14-3.7-1.39-1.64-2.9-3.19-4.42-4.71-.83-.83-.23-1.62-.2-2.47"/><path class="cls-2" d="M375.5,546.63a19.34,19.34,0,0,1,2.47,1,4.19,4.19,0,0,0,2.33.45c2.46-.06,4.93,0,7.31,0-.05.56-.1,1.23-.18,1.9a.87.87,0,0,1-.29.41c-1.32,1.4-2.65,2.79-4,4.2-.88.94-1.71,1.94-2.62,2.85a5.13,5.13,0,0,0-1.29,3.17c-.32,2.2-.65,4.4-.92,6.6s-.52,4.63-.77,6.94c0,.15-.05.29-.1.66-.28-.3-.5-.45-.58-.66-1-2.43-1.92-4.85-2.84-7.3-.39-1.05-.69-2.14-1-3.22a.81.81,0,0,1,.18-.71c1.66-1.37,2.39-3.27,3.1-5.21a14.75,14.75,0,0,0,.88-5.34,12.53,12.53,0,0,0-1.73-5.73"/><path class="cls-2" d="M396.61,533.87c.46-.12.69.16.77.77.25,1.85.52,3.69.84,5.53.28,1.61.69,3.21,1,4.83.13.77.11,1.57.82,2.11.38.29.79.53,1.15.82a1.3,1.3,0,0,1,.24,2,1.79,1.79,0,0,1-2.31.65,2.67,2.67,0,0,0-1.25.06,2.06,2.06,0,0,0-.74.37,2.4,2.4,0,0,1-2.72.09,3.36,3.36,0,0,0-2.92-.3,1.4,1.4,0,0,1-1.68-.32,2,2,0,0,1,0-2.28c.36-.44.83-.79,1.23-1.2a1.75,1.75,0,0,0,.49-.64c.83-3.27,1.64-6.55,2.46-9.83.17-.66.3-1.33.52-2a1,1,0,0,1,.6-.49,14.14,14.14,0,0,1,1.59-.18"/><path class="cls-2" d="M418.7,531.37h5.67c1.32,0,2.64,0,3.95.1a14.65,14.65,0,0,1,2.1.21.74.74,0,0,1,.47.52c0,2.65,0,5.29,0,8-3.77-.15-7.45.15-10.9,2.27,0-.56,0-1,0-1.39,0-1.32,0-2.65.16-4a7.81,7.81,0,0,0-.81-3.72c-.23-.58-.38-1.19-.66-2.07"/><path class="cls-2" d="M372.74,531.17c-.41,1-.8,1.81-1.13,2.68a3.37,3.37,0,0,0-.26,1.16c0,2.25,0,4.5,0,6.89-1-.39-2-.7-2.91-1.12a10.47,10.47,0,0,0-4.2-.88c-1,0-2.07-.1-3.11-.11-.45,0-.57-.23-.58-.62,0-.71-.08-1.41-.1-2.12-.07-1.77-.12-3.55-.18-5.32a3.51,3.51,0,0,1,.1-.56Z"/><path class="cls-2" d="M390.32,519.53c-.4-2.95.23-5.92.5-8.9,2.27-.84,8-.32,10.72.36q-.12,3.32-.24,6.66c0,.46-.05.92,0,1.37s-.2.66-.69.64c-1.52-.06-3-.11-4.56-.13-1.88,0-3.76,0-5.7,0"/><path class="cls-2" d="M425.08,567.65c0,2.67,0,5.49,0,8.31,0,1.14.1,2.28.12,3.42a.92.92,0,0,1-.18.61c-.75.75-1.54,1.47-2.35,2.24-.7-.66-1.4-1.28-2.05-1.94-1.47-1.51-2.91-3-4.37-4.56a.72.72,0,0,1-.15-1c.94-1.76,1.83-3.54,2.72-5.32.49-1,.94-2,1.45-2.91a.74.74,0,0,1,.62-.33c1.35.44,2.69.93,4.19,1.47"/><path class="cls-2" d="M370.71,565.57c.52,1.23,1.08,2.59,1.64,3.94.68,1.61,1.38,3.21,2,4.83a.91.91,0,0,1-.08.8c-2.31,2.07-4.65,4.1-7,6.13-.69-.65-1.33-1.22-1.95-1.83a.7.7,0,0,1-.14-.48c.14-3.86.29-7.72.43-11.48l5-1.91"/><path class="cls-2" d="M389.68,501.21h2.7l3.24.06c1.92,0,3.85.05,5.77,0,.64,0,.88.33.89.89,0,1.93,0,3.86,0,5.8,0,.53-.3.61-.74.61-1.75,0-3.5,0-5.25,0-1.9,0-3.79,0-5.69.12-.66,0-1-.11-.94-.87.05-2.15,0-4.3,0-6.64"/><path class="cls-2" d="M380.41,523.09c-.64-1.25-1.28-2.48-1.89-3.73-.4-.83-.78-1.67-1.12-2.54a.77.77,0,0,1,.2-.7,32.78,32.78,0,0,1,9.25-4.45c1.89-.58,1.72-.56,1.7,1.18,0,2.24-.08,4.47-.16,6.71a1,1,0,0,1-.47.73c-.88.38-1.8.67-2.7,1l-4.81,1.8"/><path class="cls-2" d="M403.3,512.06a6.73,6.73,0,0,1,3.65.7c2.22,1,4.4,2.12,6.6,3.17a.9.9,0,0,1,.48,1.4c-1,2.08-1.92,4.18-2.92,6.36-.67-.34-1.27-.64-1.88-.93a49,49,0,0,0-5-2.27c-.95-.32-1-.78-1-1.57,0-2.25,0-4.51,0-6.86"/><path class="cls-2" d="M404.3,501.26l10.23.3v7.76c-1.6,0-3.08,0-4.56,0s-2.71-.14-4.06-.21h-.08c-1.53-.1-1.54-.1-1.56-1.66,0-1.76,0-3.51,0-5.27,0-.27,0-.54.06-.9"/><path class="cls-2" d="M377.68,509.23v-6.05c0-.1,0-.2,0-.3-.24-2-.18-1.7,1.52-1.69,2.1,0,4.2.13,6.3.19a7.57,7.57,0,0,0,1.51-.11c.57-.1.66.2.66.64,0,.89,0,1.78,0,2.67,0,1.53,0,3.06,0,4.65Z"/><path class="cls-2" d="M401.17,531.42l-10.38.29a2.6,2.6,0,0,1-.41-.06c.26-1.13.52-2.23.77-3.32.41-1.75.88-3.48,1.2-5.24.17-.92.82-1,1.41-1,1.32-.08,2.65,0,4,0a.8.8,0,0,1,.91.61c.57,1.88,1.17,3.76,1.72,5.65.29,1,.53,2,.81,3.09"/><path class="cls-2" d="M423.2,529.35l-3.63-.16a1.92,1.92,0,0,0-.83,0c-.86.39-1.36-.11-1.89-.63-1.12-1.1-2.28-2.17-3.36-3.31a1.3,1.3,0,0,1-.28-1.13c.85-1.86,1.79-3.68,2.7-5.52l.19-.37,7.3,10.85-.2.26"/><path class="cls-2" d="M394.75,499.25H393.3c-1.71,0-2.33-.43-2.67-2.12a20.29,20.29,0,0,1-.2-3.32c0-.58.29-.74.84-.59a6.82,6.82,0,0,1,4.22,2.6c.34.48.8.38,1.12-.13a6.16,6.16,0,0,1,3.92-2.48.49.49,0,0,1,.67.51,10.31,10.31,0,0,1-.45,4.71,1.05,1.05,0,0,1-1.14.75c-1.61-.05-3.24,0-4.86,0v.08"/><path class="cls-2" d="M368.9,528.69c.06-.4.1-.71.16-1a.87.87,0,0,1,.08-.37c.66-1,1.3-2.09,2-3.09,1.32-1.83,2.68-3.62,4-5.42.11-.16.19-.34.38-.66.44.76.86,1.4,1.2,2.09.5,1,1,2.06,1.39,3.11a1,1,0,0,1-.13.78c-1.16,1.45-2.33,2.88-3.54,4.28a1.32,1.32,0,0,1-.88.32c-1.22,0-2.44,0-3.66,0h-1"/><path class="cls-2" d="M360,567.3l3.91.25c0,1.26,0,2.52,0,3.77,0,.35-.14.69-.14,1,0,1.38-1,2.12-1.77,3a5,5,0,0,1-3.17,1.42,5.6,5.6,0,0,1-3.69-.47,2.57,2.57,0,0,1-1.42-2.09,6.07,6.07,0,0,1-.11-1.58c0-.26.39-.47.6-.71.21.24.57.46.6.72a1.94,1.94,0,0,0,1.61,1.84,2.21,2.21,0,0,0,2.48-.63,5.73,5.73,0,0,0,1.12-3.72c0-1,0-2,0-2.87"/><path class="cls-2" d="M427.29,567.94c1-.06,2-.12,3-.16.69,0,.49.51.52.87.14,1.55.2,3.12.43,4.66a2.35,2.35,0,0,0,2.47,2.09h.38c1.58.11,1.61-.54,1.84-1.65,0-.2,0-.5.1-.57.32-.2.79-.51,1-.4a1.28,1.28,0,0,1,.59,1c-.28,2.4-1.57,3.9-4.24,3.73a20.23,20.23,0,0,1-2.77-.45,4.8,4.8,0,0,1-3.49-4.53c0-.76,0-1.53,0-2.29s.12-1.51.19-2.31"/><path class="cls-2" d="M401.66,565.61a5.12,5.12,0,0,1-4.24,1.73c-1.19,0-2.38.11-3.57.12a6.37,6.37,0,0,1-4.65-2.16c1.06-1,2.12-1.92,3.61-2,1.85,0,3.7.06,5.55.13a1.6,1.6,0,0,1,.77.3c.85.59,1.67,1.21,2.53,1.84"/><path class="cls-2" d="M432.56,554.32a6.09,6.09,0,0,1-1.85,3.48,2.64,2.64,0,0,1-2.08.79,7.07,7.07,0,0,1-3.38-.73,2.75,2.75,0,0,1-1.45-2.17,5.57,5.57,0,0,1,2-5.76,1.38,1.38,0,0,1,.95-.31,22.64,22.64,0,0,1,3.49.55c1.51.41,2.32,1.69,2.33,4.15m-5.71-.49a1.19,1.19,0,0,0,1.06,1.32c.54,0,1.17-.47,1.17-.89a1.63,1.63,0,0,0-1.2-1.4.94.94,0,0,0-1,1"/><path class="cls-2" d="M358.5,553.27c.09-2.68,1.9-4.55,5.39-4.43a5.16,5.16,0,0,1,4.39,4.87c-.06,2.1-2.65,4.46-5,4.49-2,0-5.07-2.48-4.79-4.93m4.85-.91a1.08,1.08,0,0,0-1.16,1.19,1,1,0,0,0,1.09,1.1,1.2,1.2,0,0,0,1.19-.94,1.23,1.23,0,0,0-1.12-1.35"/></svg>