<svg id="Layer_1" data-name="Layer 1" xmlns="http://www.w3.org/2000/svg" viewBox="0 0 793.7 1218.9"><defs><style>.cls-1{fill:#086961;}.cls-2{fill:#e6e5e6;}.cls-3{fill:#fff;}</style></defs><path class="cls-1" d="M491.76,616.21a54.82,54.82,0,0,1-10.47,8.61,50.3,50.3,0,0,1-17.67,6.77,44.35,44.35,0,0,1-8.24.48c-24.9,0-49.8,0-74.7-.07-9.14,0-17.41-3-25-8.18a48.22,48.22,0,0,1-16.13-18.2,44.84,44.84,0,0,1-5.2-20.78q.15-37.55,0-75.08a46.19,46.19,0,0,1,5.64-22.1,49.76,49.76,0,0,1,9.05-12c7.17-7.19,15.88-11.12,25.62-13.11a37.59,37.59,0,0,1,7.27-.55c25,0,50.07-.08,75.1,0a45.43,45.43,0,0,1,19.19,4.5A50.68,50.68,0,0,1,491,477.18a61.13,61.13,0,0,1,6.68,8.66l1.3,2.35a49.25,49.25,0,0,1,5.12,17,50.41,50.41,0,0,1,.32,5.21c0,23.84,0,47.67,0,71.5a53.23,53.23,0,0,1-4.88,22.89,30.24,30.24,0,0,1-4.61,7.54l-.45.75v0a21.07,21.07,0,0,0-2.77,3.2M339.21,547.09h0c0,9.85,0,19.69,0,29.53a107,107,0,0,0,.33,11.87,44.13,44.13,0,0,0,43.37,38.78q36.47.06,72.94,0a40.5,40.5,0,0,0,8.64-1c21.07-4.65,35.21-22.28,35.21-43.86V511.7a49.23,49.23,0,0,0-1.12-10.41,44,44,0,0,0-42.83-34.45q-35.88,0-71.75,0a50.8,50.8,0,0,0-8.27.68c-20.21,3.25-36.1,21.28-36.45,41.73-.21,12.61,0,25.24,0,37.85"/><path class="cls-2" d="M347.05,547.26v36.27a31.28,31.28,0,0,0,.33,4.53,36.91,36.91,0,0,0,36.82,31.73c15,0,30,.12,45-.24,6.93-.17,13.87,0,20.81-.06a73.2,73.2,0,0,0,10.67-.43,37.07,37.07,0,0,0,31.13-36.37V511.14a33.17,33.17,0,0,0-.28-4.34,36.87,36.87,0,0,0-37.11-32.52q-35.46.11-70.93.33a35.32,35.32,0,0,0-5.52.44c-17.37,2.66-30.9,18.35-30.9,35.94q0,18.13,0,36.27"/><path class="cls-1" d="M347.05,547.26q0-18.13,0-36.27c0-17.59,13.53-33.28,30.9-35.94a35.28,35.28,0,0,1,5.51-.44q35.48-.19,70.94-.33a36.87,36.87,0,0,1,37.11,32.52,33.17,33.17,0,0,1,.28,4.34v71.55a37.07,37.07,0,0,1-31.13,36.37,73.26,73.26,0,0,1-10.67.43c-6.94.1-13.88-.11-20.81.06-15,.36-30,.2-45,.24a36.91,36.91,0,0,1-36.82-31.73,31.28,31.28,0,0,1-.33-4.53V547.26"/><path class="cls-3" d="M362.92,519.9c.6-.62,1.15-1.23,1.74-1.78.09-.08.42,0,.59.12,2,1.15,4.06,2.31,6.09,3.47l23.79,13.58q3.84,2.19,7.66,4.4a1.82,1.82,0,0,1,.63.69q3.9,7.22,7.76,14.46a1.41,1.41,0,0,1,.15.75,13.91,13.91,0,0,0,27.1,5.85,12.84,12.84,0,0,0-.92-10.37,5.29,5.29,0,0,0-2.17-2.2,3.27,3.27,0,0,0-2.86-.17c-3.38,1.4-4.07,5.11-2,7.35.26.27.24.46,0,.71A4.06,4.06,0,0,1,427,557.9a8.11,8.11,0,0,1-7-5.65c-1.17-3.2-.34-6.2,1.58-8.83a58.31,58.31,0,0,1,4.66-5.3c1.94-2.09,3.94-4.12,5.92-6.17a3,3,0,0,1,4.95.73,32.92,32.92,0,0,0,2.35,3.76,17,17,0,0,0,10.68,6.42,26.08,26.08,0,0,0,2.77.31,2.92,2.92,0,0,1,2.29,4.5A17.15,17.15,0,0,0,452.57,558a17.46,17.46,0,0,0,3.93,10.19,2.79,2.79,0,0,1-1.54,4.47,20.61,20.61,0,0,0-4.81,1.54,17.3,17.3,0,0,0-9.54,12.09c-.17.74-.25,1.5-.36,2.25a2.76,2.76,0,0,1-1.16,1.89.8.8,0,0,1-.66,0,50.33,50.33,0,0,0-9.48-3.69,42,42,0,0,0-8.09-1.53c-2.56-.2-5.12-.35-7.68-.34a48.65,48.65,0,0,0-9.61,1.1c-.22,0-.45.07-.67.09-1,.1-1.12,0-1.39-1-1.06-3.68-2.14-7.36-3.21-11q-2.21-7.56-4.4-15.13-2-6.78-3.94-13.56a3.17,3.17,0,0,1-.12-.44,4,4,0,0,0-1.47-2.4q-10.22-9-20.38-18.09l-4.56-4c-.16-.13-.3-.28-.51-.47"/><path class="cls-3" d="M434.7,556.1a3.16,3.16,0,0,1-2.17-2.13,2.32,2.32,0,0,1,0-1.33,1.36,1.36,0,0,1,2.36-.39,5.76,5.76,0,0,1,1.12,2.08c1.61,5.67-2.67,12.25-8.5,13.29a11,11,0,0,1-11.2-4.89,12.9,12.9,0,0,1-1.52-7.58,1.58,1.58,0,0,0-.15-.86q-3.63-7-7.29-14a1.06,1.06,0,0,1,0-1.15,32.12,32.12,0,0,1,20.27-16.21,31,31,0,0,1,12.2-.9A32.32,32.32,0,0,1,446,584.83l-1.94.6a1.85,1.85,0,0,1-.14-.14c.47-.85.88-1.73,1.42-2.54a17.12,17.12,0,0,1,9.55-6.89,18.53,18.53,0,0,0,1.8-.52,6,6,0,0,0,3.28-3.81,5.38,5.38,0,0,0-.89-5.46,26.92,26.92,0,0,1-2.33-3.3,10.83,10.83,0,0,1-1.11-6.24,17.2,17.2,0,0,1,2.27-7.38,7.14,7.14,0,0,0-1.57-8.57A2.67,2.67,0,0,0,455,540c-1.38-.13-2.77-.09-4.15-.21a10.39,10.39,0,0,1-5.24-2.19,23.2,23.2,0,0,1-5.64-6.13c-.34-.51-.7-1-1-1.52a5.41,5.41,0,0,0-7.76-1.36,44.9,44.9,0,0,0-4.37,3.9,69.17,69.17,0,0,0-8.07,9.36,13.42,13.42,0,0,0-.51,14.53,10.58,10.58,0,0,0,8.19,4.73,8.22,8.22,0,0,0,8.29-5"/><path class="cls-3" d="M362.92,519.9c.6-.62,1.15-1.23,1.74-1.78.09-.08.42,0,.59.12,2,1.15,4.06,2.31,6.09,3.47l23.79,13.58q3.84,2.19,7.66,4.4a1.82,1.82,0,0,1,.63.69q3.9,7.22,7.76,14.46a1.41,1.41,0,0,1,.15.75,13.91,13.91,0,0,0,27.1,5.85,12.84,12.84,0,0,0-.92-10.37,5.29,5.29,0,0,0-2.17-2.2,3.27,3.27,0,0,0-2.86-.17c-3.38,1.4-4.07,5.11-2,7.35.26.27.24.46,0,.71A4.06,4.06,0,0,1,427,557.9a8.11,8.11,0,0,1-7-5.65c-1.17-3.2-.34-6.2,1.58-8.83a58.31,58.31,0,0,1,4.66-5.3c1.94-2.09,3.94-4.12,5.92-6.17a3,3,0,0,1,4.95.73,32.92,32.92,0,0,0,2.35,3.76,17,17,0,0,0,10.68,6.42,26.08,26.08,0,0,0,2.77.31,2.92,2.92,0,0,1,2.29,4.5A17.15,17.15,0,0,0,452.57,558a17.46,17.46,0,0,0,3.93,10.19,2.79,2.79,0,0,1-1.54,4.47,20.61,20.61,0,0,0-4.81,1.54,17.3,17.3,0,0,0-9.54,12.09c-.17.74-.25,1.5-.36,2.25a2.76,2.76,0,0,1-1.16,1.89.8.8,0,0,1-.66,0,50.33,50.33,0,0,0-9.48-3.69,42,42,0,0,0-8.09-1.53c-2.56-.2-5.12-.35-7.68-.34a48.65,48.65,0,0,0-9.61,1.1c-.22,0-.45.07-.67.09-1,.1-1.12,0-1.39-1-1.06-3.68-2.14-7.36-3.21-11q-2.21-7.56-4.4-15.13-2-6.78-3.94-13.56a3.17,3.17,0,0,1-.12-.44,4,4,0,0,0-1.47-2.4q-10.22-9-20.38-18.09l-4.56-4c-.16-.13-.3-.28-.51-.47"/><path class="cls-3" d="M434.7,556.1a3.16,3.16,0,0,1-2.17-2.13,2.32,2.32,0,0,1,0-1.33,1.36,1.36,0,0,1,2.36-.39,5.76,5.76,0,0,1,1.12,2.08c1.61,5.67-2.67,12.25-8.5,13.29a11,11,0,0,1-11.2-4.89,12.9,12.9,0,0,1-1.52-7.58,1.58,1.58,0,0,0-.15-.86q-3.63-7-7.29-14a1.06,1.06,0,0,1,0-1.15,32.12,32.12,0,0,1,20.27-16.21,31,31,0,0,1,12.2-.9A32.32,32.32,0,0,1,446,584.83l-1.94.6a1.85,1.85,0,0,1-.14-.14c.47-.85.88-1.73,1.42-2.54a17.12,17.12,0,0,1,9.55-6.89,18.53,18.53,0,0,0,1.8-.52,6,6,0,0,0,3.28-3.81,5.38,5.38,0,0,0-.89-5.46,26.92,26.92,0,0,1-2.33-3.3,10.83,10.83,0,0,1-1.11-6.24,17.2,17.2,0,0,1,2.27-7.38,7.14,7.14,0,0,0-1.57-8.57A2.67,2.67,0,0,0,455,540c-1.38-.13-2.77-.09-4.15-.21a10.39,10.39,0,0,1-5.24-2.19,23.2,23.2,0,0,1-5.64-6.13c-.34-.51-.7-1-1-1.52a5.41,5.41,0,0,0-7.76-1.36,44.9,44.9,0,0,0-4.37,3.9,69.17,69.17,0,0,0-8.07,9.36,13.42,13.42,0,0,0-.51,14.53,10.58,10.58,0,0,0,8.19,4.73,8.22,8.22,0,0,0,8.29-5"/></svg>