<svg id="Layer_1" data-name="Layer 1" xmlns="http://www.w3.org/2000/svg" viewBox="0 0 793.7 1218.9"><defs><style>.cls-1{fill:#086961;}.cls-2{fill:#e5e3e5;}.cls-3{fill:#fff;}</style></defs><path class="cls-1" d="M469.2,627a54.53,54.53,0,0,1-10.48,8.6,50.25,50.25,0,0,1-17.66,6.77,43.5,43.5,0,0,1-8.24.48c-24.9,0-49.8.05-74.7-.07-9.15,0-17.42-3-25-8.17A48.32,48.32,0,0,1,317,616.44a44.84,44.84,0,0,1-5.21-20.77q.17-37.54,0-75.09a46.35,46.35,0,0,1,5.64-22.09,49.82,49.82,0,0,1,9.05-12c7.17-7.19,15.89-11.12,25.62-13.1a37.64,37.64,0,0,1,7.28-.56c25,0,50.06-.08,75.09,0a45.48,45.48,0,0,1,19.2,4.5A51,51,0,0,1,468.43,488a60.65,60.65,0,0,1,6.68,8.67c.43.78.87,1.56,1.3,2.35a49.2,49.2,0,0,1,5.12,17,50.59,50.59,0,0,1,.32,5.21c0,23.84-.05,47.67,0,71.51A53.33,53.33,0,0,1,477,615.57a30.35,30.35,0,0,1-4.61,7.54l-.46.75,0,0a19.65,19.65,0,0,0-2.77,3.2M316.65,557.92h0c0,9.84,0,19.68,0,29.53a102.19,102.19,0,0,0,.33,11.86,44.1,44.1,0,0,0,43.37,38.78q36.46.06,72.93,0a40.42,40.42,0,0,0,8.64-1c21.07-4.66,35.21-22.28,35.21-43.87q0-35.37,0-70.75a47.87,47.87,0,0,0-1.12-10.4,44,44,0,0,0-42.83-34.46q-35.88,0-71.75,0a52,52,0,0,0-8.27.69c-20.21,3.24-36.09,21.27-36.44,41.72-.22,12.62,0,25.24,0,37.86"/><path class="cls-2" d="M476.41,499c-.43-.79-.87-1.57-1.3-2.35,1.18-.25,1.77.37,2.17,1.39s-.27.92-.87,1"/><path class="cls-1" d="M324.48,558.08v36.27a29.94,29.94,0,0,0,.34,4.53,36.89,36.89,0,0,0,36.82,31.73c15,0,30,.12,45-.24,6.94-.17,13.88,0,20.81-.06a73.39,73.39,0,0,0,10.68-.43,37.07,37.07,0,0,0,31.13-36.37q0-35.78,0-71.55a33.29,33.29,0,0,0-.28-4.34,36.87,36.87,0,0,0-37.11-32.52q-35.47.12-70.94.33a37.92,37.92,0,0,0-5.52.44c-17.36,2.66-30.89,18.36-30.9,35.94v36.27"/><path class="cls-1" d="M324.48,558.08V521.81c0-17.58,13.54-33.28,30.9-35.94a37.92,37.92,0,0,1,5.52-.44q35.48-.18,70.94-.33A36.87,36.87,0,0,1,469,517.62a33.29,33.29,0,0,1,.28,4.34q0,35.77,0,71.55a37.08,37.08,0,0,1-31.13,36.37,73.39,73.39,0,0,1-10.68.43c-6.93.1-13.87-.11-20.81.06-15,.36-30,.2-45,.24a36.89,36.89,0,0,1-36.82-31.73,29.94,29.94,0,0,1-.34-4.53V558.08"/><path class="cls-1" d="M418.34,554.55a1.47,1.47,0,0,0-2.56,0,3,3,0,0,0-.56,2c.07.77.38,1,1.15,1a1,1,0,0,1,1.2.93,3.28,3.28,0,0,1,.05,1.17,13.92,13.92,0,0,1-1.27,4.34c.4,0,.51-.21.66-.39a8.9,8.9,0,0,0,2.1-6.82,4.53,4.53,0,0,0-.77-2.27"/><path class="cls-1" d="M383.46,579.34a1.55,1.55,0,0,1-1.25-.28,1.78,1.78,0,0,1-.45-.51l-4.34,1.16a25.5,25.5,0,0,0,4.27,1.18,8.3,8.3,0,0,0,1.52.12h.08c2.15-.12,8.4-1.29,8.4-1.29a48.27,48.27,0,0,1-6.74-1.16,3.38,3.38,0,0,1-1.49.79"/><path class="cls-1" d="M382.82,583.61a8.23,8.23,0,0,1-1.49-.28,4.65,4.65,0,0,0,1.41.86c2.76,1.12,5.15-1.16,5.15-1.16a12.69,12.69,0,0,1-5.07.58"/><path class="cls-3" d="M420.33,565.71c0,.56-.07,1.11-.11,1.65a12.65,12.65,0,0,1-2.46,6.91,5.93,5.93,0,0,1-2.47,1.76c-1.93.82-3.84,1.69-5.76,2.53l-7.68,3.37c-1.58.7-3.15,1.42-4.75,2.09-.52.22-1.08.33-1.62.51-1,.34-2.05.75-3.1,1a10.31,10.31,0,0,1-2.16.29c-.84,0-1.68,0-2.53,0-1.81-.07-3.62-.13-5.43-.25a22.2,22.2,0,0,1-3-.38,3.55,3.55,0,0,1-2.41-1.9,54.68,54.68,0,0,1-3.17-7.13c-1.76-4.35-3.25-8.79-4.66-13.26-.55-1.76-.95-3.57-1.34-5.38a4.55,4.55,0,0,1,.06-1.76c.3-1.65.62-3.29,1-4.92a22.57,22.57,0,0,1,1.05-3.57,4.63,4.63,0,0,1,1.4-1.5,9.55,9.55,0,0,1,5-2c.69-.07,1.38-.12,2.07-.14s1.28.31,1.18,1.13a.81.81,0,0,0,0,.24c-1.17.11-2.34.17-3.51.34a6.28,6.28,0,0,0-3.29,1.47,4,4,0,0,0-1,1.81c.85,0,1.69,0,2.53,0a8.06,8.06,0,0,1,3.42.28,1.79,1.79,0,0,1,1.26,1.45c.74-1.62,1.52-3.24,2.21-4.91a3.4,3.4,0,0,0,.34-2.06,8,8,0,0,1,0-1.77c0-.35-.12-.61-.52-.61-1.1,0-2.21-.06-3.3,0a14.14,14.14,0,0,0-2.75.4,9,9,0,0,0-3.58,1.89c-.51.43-1,.89-1.52,1.34l.08.12,0-.28a13.83,13.83,0,0,1,.65-4.14,49.42,49.42,0,0,1,3.11-8.69c1-2.2,2.11-4.37,3.22-6.53a26.93,26.93,0,0,1,1.51-2.26c.75.79,1.46,1.49,2.12,2.24a1.78,1.78,0,0,0,1.4.67c1.89,0,3.79.06,5.68,0,1.66,0,3.32-.08,5-.12.25,0,.5,0,.74,0a2.5,2.5,0,0,0,.87-.18c2.21-1.2,4.4-2.43,6.6-3.64a1.39,1.39,0,0,1,.69-.18c2.26,0,4.53.06,6.8.17a4,4,0,0,1,2.19,1,4.38,4.38,0,0,1,1.76,2.42,6,6,0,0,1,.14,1.33,20.34,20.34,0,0,1,0,2.59,11.91,11.91,0,0,1-.53,2l-3,9.64a.48.48,0,0,0,0,.16c.29,0,.58,0,.88,0a2.63,2.63,0,0,1,2.65,2.15,9.66,9.66,0,0,1,.09,1.62c0,.58.07,1.16.07,1.74,0,1.23-.06,2.47-.06,3.7a4.51,4.51,0,0,0,.15,1.21c.28.91.57,1.11,1.52,1.11.75,0,1.51-.06,2.27-.07,1.2,0,2.4,0,3.59,0a.45.45,0,0,0,.46-.29c1.14-2.27,2.31-4.54,3.46-6.81a.51.51,0,0,1,.44-.27,5.82,5.82,0,0,1,4.92,1.06,6.24,6.24,0,0,1,2.28,3.67,7,7,0,0,1,.15,1.51c0,1.68,0,3.35,0,5,0,.82,0,1.65.08,2.47a2.81,2.81,0,0,1-.94,2.33c-1.07,1.11-2.13,2.23-3.15,3.38s-2.16,2.56-3.23,3.85c-.13.16-.21.2-.38.07l-2.89-2.18c-.25-.2-.49-.42-.76-.64M374.44,561h.11c.33.53.64,1.07,1,1.6a3,3,0,0,0,1.58,1.45,6.07,6.07,0,0,0,1.58.26c2,0,4.07,0,6.11,0l2.2,0c.77,0,1.54.06,2.32,0a1.26,1.26,0,0,0,1.34-1.17,9.45,9.45,0,0,0,.08-1.07c0-.52,0-1,0-1.57l.11-.06a4.08,4.08,0,0,0,.25.33l1.86,2.31a2.29,2.29,0,0,0,2.2,1l.76-.11-.87-1c-.8-.93-1.61-1.86-2.4-2.8s-1.52-1.83-2.24-2.78a4.64,4.64,0,0,1-1-2.48c-.1-1.75-.07-3.51-.09-5.26a.93.93,0,0,1,1-1.05l8.16,0H399a2.19,2.19,0,0,0-.23-.42,9.06,9.06,0,0,0-4.14-2.49,10.73,10.73,0,0,0-4.4-.33,8.72,8.72,0,0,0-.95.23,1.84,1.84,0,0,1,1.91-1.85c1.09,0,2.18.07,3.27.15a8.46,8.46,0,0,1,3.9,1.31,11.34,11.34,0,0,1,3.5,3.29c.07.1.23.12.34.18,0-.09.11-.18.1-.26a7,7,0,0,0-1.15-2.66,14.77,14.77,0,0,0-2.39-2.48,8.9,8.9,0,0,0-5.2-2.23,41.33,41.33,0,0,0-4.59-.15,8.08,8.08,0,0,0-2.22.38,1.35,1.35,0,0,0-1.11,1.21c0,.63.07,1.26,0,1.88a2.69,2.69,0,0,1-.26,1.1c-1.19,2.37-2.42,4.72-3.62,7.07a8.78,8.78,0,0,0-.9,2.38c-.16.92.15,1.54.9,1.57,1.26.06,2.53.12,3.78.07a6.38,6.38,0,0,1,2,.19c.52.14,1.11.32,1.29.91a7.39,7.39,0,0,1,.26,1.55,1.13,1.13,0,0,1-.76,1c-.92.08-1.83.11-2.79.17a.87.87,0,0,0-.36-1.1c-.33-.24-.66-.07-1,.09l-.16.1c-1.1.61-2.18,1.25-3.3,1.81a2.79,2.79,0,0,1-2.28.28,3.37,3.37,0,0,1-2.37-3.46c0-.49,0-1,0-1.63a6.48,6.48,0,0,0-1.4.57,5.2,5.2,0,0,0-1.6,2.55c-.28.72-.47,1.47-.69,2.21s-.48,1.56-.71,2.34a1.38,1.38,0,0,0,2-.64c.06-.21.13-.42.19-.63.18-.63.37-1.26.55-1.89m51-4.24.2-.45c.43-.89.86-1.78,1.31-2.66a1.26,1.26,0,0,1,1.29-.82c.23,0,.47,0,.7,0s.47-.14.46-.47,0-1,0-1.46a1.94,1.94,0,0,0-.53-1.52,1.79,1.79,0,0,0-2.82.47c-.23.41-.4.83-.6,1.25-.86,1.72-1.72,3.44-2.56,5.17a.67.67,0,0,0,0,.52c.3.52.65,1,.95,1.53a1.14,1.14,0,0,1,.17.56c0,1.5,0,3,0,4.49v.54a2.15,2.15,0,0,0,.38-.3c.69-.88,1.33-1.81,2.07-2.66a5.66,5.66,0,0,0,1.35-3.7c0-.38-.1-.51-.47-.5-.59,0-1.18,0-1.86,0m-43.83,11.37-1.15-.77a1.53,1.53,0,0,0-1.85,0c-1,.68-2.09,1.35-3.12,2-.15.1-.21.33-.37.61H393c.13-.48-.24-.56-.55-.64-2.65-.69-5.3-1.34-7.93-2.08a2.27,2.27,0,0,0-2.05.29c-.28.2-.58.37-.87.55m3.76,4.09h-7.25l-.08.11c.48.64,1.07,1.18,1.59,1.82-.45.47-.9.93-1.34,1.4a2.85,2.85,0,0,0-.26.42l.28,0h6.38c.1,0,.23-.12.31-.22s0-.34-.13-.49c-.42-.45-.83-.9-1.25-1.37l1.49-1.31a2.13,2.13,0,0,0,.26-.4"/><path class="cls-3" d="M431.55,545c-.12-.13-.23-.27-.35-.39-.61-.6-1.21-1.2-1.83-1.79s-1.11-1-1.66-1.55a.48.48,0,0,1-.11-.34c0-.74,0-1.47,0-2.2s-.19-1-1-1.23l-1.89-.43a.92.92,0,0,1-.78-.84,5.62,5.62,0,0,1-.08-.92c0-3.12,0-6.23,0-9.35v-.35a9,9,0,0,1-1.54-.25,2.78,2.78,0,0,1-2.1-2.32c-.14-1-.27-2-.46-3a2.38,2.38,0,0,0-2.41-2c-1.52,0-3-.06-4.56-.08h-.3v-.74c0-1.9,0-3.79,0-5.69a13.89,13.89,0,0,0-.17-2.41,3.31,3.31,0,0,0-2.78-2.82,2.88,2.88,0,0,0-.88,0c-.1,0-.24.21-.25.34,0,.41,0,.82,0,1.23a26.23,26.23,0,0,1-.2,5.74,2.75,2.75,0,0,1-.45,1,7.38,7.38,0,0,1-6.82,3.38c-.26,0-.24-.17-.25-.34,0-1.52,0-3-.06-4.57a2.61,2.61,0,0,0-2.19-2.74,15.44,15.44,0,0,0-1.76-.13c0,.73.05,1.39.09,2.05,0,.48.13.95.12,1.42,0,1.31,0,2.64-.15,3.94a4.48,4.48,0,0,1-1.79,3.19,5.5,5.5,0,0,1-3.6,1.08c-3.27-.06-6.55,0-9.82.06a.9.9,0,0,1-.74-.31c-.39-.44-.83-.85-1.22-1.29a1.49,1.49,0,0,0-2.24-.14,4.84,4.84,0,0,0-.76.87c-.5.73-.95,1.49-1.43,2.23-.1.16-.23.31-.39.52-.39-.68-.77-1.31-1.12-1.95a.81.81,0,0,1-.07-.41c0-2.42,0-4.85.07-7.27a3.55,3.55,0,0,1,1.54-2.88c3.35-2.39,6.72-4.73,10.07-7.1a12.7,12.7,0,0,1,4-1.82,6.71,6.71,0,0,1,2.75-.13l.28,0c6.19,0,12.4.06,18.6.06a16.26,16.26,0,0,1,9.11,2.51,11.88,11.88,0,0,1,4.13,4.62c.76,1.46,1.69,2.83,2.54,4.24,1.2,2,2.48,3.94,3.58,6a14.56,14.56,0,0,1,1.11,3.34,23.88,23.88,0,0,1,.24,5.73c.05,5.27.06,10.55.09,15.82v.37l-.12.07"/><path class="cls-3" d="M422.17,573.69c.48.52.88.94,1.28,1.36.95,1,1.94,2,2.86,3a5.34,5.34,0,0,1,1.24,2.89,33,33,0,0,1,.31,4c0,3.62,0,7.24,0,10.86,0,.89,0,1.78,0,2.67a.58.58,0,0,1-.23.43c-.88.49-1.78.93-2.65,1.42-1.45.79-2.88,1.6-4.41,2.46l.44,0,5.8-.07a1.26,1.26,0,0,1,1.06,1.06q0,6.44-.08,12.88a.74.74,0,0,1-.16.4,8.36,8.36,0,0,0-.68.79,1.12,1.12,0,0,1-1.1.5q-10.48,0-21,.07h-.48l.22-.51q5.13-11.38,10.27-22.75c1.65-3.68,3.32-7.35,4.92-11.06a6.3,6.3,0,0,0,.37-2.21c.07-2,.06-3.92.09-5.88a.66.66,0,0,1,.15-.41c.58-.64,1.18-1.26,1.81-1.92"/><path class="cls-3" d="M368.86,606.67a.69.69,0,0,0-.27-.87c-.94-.79-1.87-1.61-2.77-2.46a2.66,2.66,0,0,1-.47-.9c0-.09.09-.25.17-.36l4.39-6.24c1.89-2.69,3.79-5.37,5.67-8.05a.78.78,0,0,1,.71-.38h1.21v30.92l-.26,0H359.61a1.26,1.26,0,0,1-.56-.24,2.19,2.19,0,0,1-.89-2.17c.07-1,0-2.09,0-3.13a.86.86,0,0,1,.15-.45c1.11-1.62,2.2-3.24,3.37-4.81a2.21,2.21,0,0,1,1.73-.87c1.81,0,3.63,0,5.43,0"/><path class="cls-3" d="M412.46,587.57c-.61,1.45-1.2,2.91-1.84,4.34Q405.29,604,400,616c-.32.7-.64,1.41-.93,2.12a.39.39,0,0,1-.44.27h-1.7c0-.72,0-1.38,0-2q-.08-4.61-.14-9.2a.83.83,0,0,0-.28-.64c-.88-.88-1.74-1.79-2.62-2.68-.26-.27-.15-.52,0-.74a4.89,4.89,0,0,1,.83-.81,7.54,7.54,0,0,0,1.82-2.16,1.92,1.92,0,0,0,.23-.91c0-1.27,0-2.53,0-3.79A.44.44,0,0,1,397,595L412,587.64l.37-.17.11.1"/><path class="cls-3" d="M381.35,618.5V591.34a1.63,1.63,0,0,1,.34.21c1.17,1.11,2.35,2.23,3.51,3.36a.8.8,0,0,1,.2.46c0,1,.07,2.07,0,3.1a3.4,3.4,0,0,0,.94,2.66c.52.57,1.08,1.09,1.62,1.63a2.79,2.79,0,0,1,.38.39.51.51,0,0,1,0,.74c-.9.91-1.78,1.82-2.66,2.75a.71.71,0,0,0-.17.47c0,2.06,0,4.12-.05,6.18,0,1.61-.07,3.22-.1,4.82,0,.2,0,.33-.27.33s-.61,0-.92,0l-2.19.07h-.6"/></svg>