<svg id="Layer_1" data-name="Layer 1" xmlns="http://www.w3.org/2000/svg" viewBox="0 0 793.7 1218.9"><defs><style>.cls-1{fill:#086961;}.cls-2{fill:#fff;}</style></defs><path class="cls-1" d="M469.2,616.21a54.58,54.58,0,0,1-10.48,8.61,50.25,50.25,0,0,1-17.66,6.77,44.35,44.35,0,0,1-8.24.48c-24.9,0-49.8,0-74.7-.07-9.15,0-17.42-3-25-8.17A48.32,48.32,0,0,1,317,605.62a44.73,44.73,0,0,1-5.21-20.78q.15-37.55,0-75.09a46.41,46.41,0,0,1,5.64-22.09,49.76,49.76,0,0,1,9.05-12c7.17-7.19,15.89-11.13,25.62-13.11a36.86,36.86,0,0,1,7.28-.55c25,0,50.06-.08,75.09,0a45.33,45.33,0,0,1,19.2,4.5,50.77,50.77,0,0,1,14.75,10.61,60.57,60.57,0,0,1,6.68,8.66l1.3,2.35a49.26,49.26,0,0,1,5.12,16.95,50.78,50.78,0,0,1,.32,5.22c0,23.84-.05,47.67,0,71.5A53.38,53.38,0,0,1,477,604.75a30.54,30.54,0,0,1-4.61,7.54L472,613l0,0a20,20,0,0,0-2.77,3.19M316.65,547.09h0c0,9.84,0,19.69,0,29.53a102.3,102.3,0,0,0,.33,11.87,44.11,44.11,0,0,0,43.37,38.78q36.46.06,72.93,0a40.5,40.5,0,0,0,8.64-1C463,621.66,477.1,604,477.1,582.45q0-35.37,0-70.75A48,48,0,0,0,476,501.29a44,44,0,0,0-42.83-34.45q-35.88,0-71.75,0a52,52,0,0,0-8.27.69c-20.21,3.25-36.1,21.28-36.44,41.73-.22,12.61,0,25.23,0,37.85"/><path class="cls-1" d="M324.48,547.26v36.27a29.94,29.94,0,0,0,.34,4.53,36.88,36.88,0,0,0,36.82,31.72c15,0,30,.13,45-.24,6.94-.16,13.88.05,20.81,0a73.39,73.39,0,0,0,10.68-.43,37.08,37.08,0,0,0,31.13-36.37q0-35.78,0-71.56a33,33,0,0,0-.28-4.33,36.88,36.88,0,0,0-37.11-32.52q-35.47.11-70.94.32a37.92,37.92,0,0,0-5.52.44C338,477.7,324.49,493.4,324.48,511q0,18.13,0,36.27"/><path class="cls-1" d="M324.48,547.26V511c0-17.59,13.53-33.29,30.9-35.95a37.92,37.92,0,0,1,5.52-.44q35.48-.18,70.94-.32A36.87,36.87,0,0,1,469,506.8a33,33,0,0,1,.28,4.33q0,35.79,0,71.56a37.08,37.08,0,0,1-31.13,36.37,73.39,73.39,0,0,1-10.68.43c-6.93.1-13.88-.11-20.81,0-15,.37-30,.21-45,.24a36.88,36.88,0,0,1-36.82-31.72,29.94,29.94,0,0,1-.34-4.53V547.26"/><path class="cls-2" d="M352.12,542.13a4.41,4.41,0,0,1-.14.47,2.16,2.16,0,0,0,.49,2.46c.37.22.76.41,1.15.6a5.3,5.3,0,0,1,.65.28c.41.27.41.62,0,.9-1.06.73-2.09,1.5-3.2,2.16-.86.51-1.82.88-2.8,1.35V510.06h.46c3.84,0,7.69,0,11.54,0a9.1,9.1,0,0,1,3.6.7c1.87.76,3.67,1.66,5.5,2.49s3.37,1.53,5.05,2.31c.51.23,1,.54,1.52.72a11.35,11.35,0,0,0,2.69.9c.39,0,.76.31,1.16.39,1.19.21,2.39.35,3.58.57a14,14,0,0,0,4,.26,14.77,14.77,0,0,0,2.57-.68,5.88,5.88,0,0,0,2.42-1.45,2.72,2.72,0,0,1,3.2-.17c.36.29.67.63,1,.91a3,3,0,0,0,2.25.52c.7-.07,1.41-.07,2.11-.14a7.16,7.16,0,0,1,1.34-.25,6.29,6.29,0,0,1,2.69.49c.91.52,1.89.94,2.81,1.46a6.12,6.12,0,0,1,.91.86,25.25,25.25,0,0,0,2.15,1.87,2,2,0,0,0,1.21.08,3.84,3.84,0,0,1,2.54.57,9.9,9.9,0,0,1,1.39.88c.65.58,1.19,1.29,1.84,1.86a1.64,1.64,0,0,0,1,.25c1.08.06,2.16.08,3.24.09.47,0,.95,0,1.42,0H425c.45,0,.9,0,1.35,0,.65,0,1.31,0,2,0,.45,0,.91,0,1.37-.08.07,0,.18-.05.19,0,.3.42.63.09,1,.08.73,0,1.47,0,2.21,0l2.41,0a2.08,2.08,0,0,1,.46.12l.14-.17.13.22c.24-.14.4-.42.77-.14a1.12,1.12,0,0,0,.88,0,5.51,5.51,0,0,1,1.94,0c.79,0,1.59-.07,2.39-.08a.56.56,0,0,1,.3.13l1-.06v.05a2.15,2.15,0,0,1,.78-.1c.29.07.38.35.33.67a4.68,4.68,0,0,0,0,.65H376.81c-.95,0-1.9,0-2.84.1a2.73,2.73,0,0,0-.73.3,5.47,5.47,0,0,0,.7.42c1.24.53,2.47,1.06,3.72,1.57a5.63,5.63,0,0,1,2.29,2.17c.24.33.12.6-.27.67a11.77,11.77,0,0,1-1.67.23c-2.25.11-4.51.18-6.77.27l-4.36.16-3.45.17a3.58,3.58,0,0,0-.53.11c.07,1,.84,1.41,1.57,1.8a7.36,7.36,0,0,1,2.68,1.83c.2.27.25.4-.15.53-.76.22-1.47.57-2.22.78-.92.26-1.86.44-2.78.65s-1.63.39-2.45.57-1.85.34-2.77.57a6.65,6.65,0,0,0-2.25.94c-.65.46-1.3.91-2,1.35a1.6,1.6,0,0,1-.44.14"/><path class="cls-2" d="M351,580.22h31.64c-.16.17-.26.3-.38.43-3.57,3.72-7.15,7.43-10.69,11.17a1.58,1.58,0,0,1-1.27.54c-6.21,0-12.42,0-18.63,0H351Z"/><path class="cls-2" d="M393.58,568.8l-3.16,3.31c-1.47,1.53-2.93,3.08-4.42,4.6a.85.85,0,0,1-.56.2c-2.34,0-4.67,0-7,0H350.93v-4l.45-.32,5.34-3.59a1.19,1.19,0,0,1,.6-.2h35.94l.32,0"/><path class="cls-2" d="M445.42,588.21v3.95c-.9-.26-1.78-.51-2.64-.79a5.4,5.4,0,0,0-3.06,0,29.26,29.26,0,0,1-3.21.94,12.37,12.37,0,0,1-3.49,0c-1-.15-2-.65-3-.9a4.22,4.22,0,0,0-2.51.06,12.77,12.77,0,0,1-6.4.94,11,11,0,0,1-2.18-.67,6.45,6.45,0,0,0-4.9,0,10.79,10.79,0,0,1-5.5.69,9.76,9.76,0,0,1-2.08-.63,6.91,6.91,0,0,0-5.3,0,9.69,9.69,0,0,1-5.24.6,22.89,22.89,0,0,1-3.07-.91,5.71,5.71,0,0,0-3.3,0c-.61.17-1.2.36-1.86.56,0-1.29,0-2.51,0-3.74a.46.46,0,0,1,.26-.32,11,11,0,0,1,3.21-.68,9.81,9.81,0,0,1,3.35.77,8,8,0,0,0,5,.23,22.36,22.36,0,0,1,3-.88,9,9,0,0,1,2.88.11c1.48.29,2.85,1.07,4.41,1.08a9.19,9.19,0,0,0,3.24-.54,9.18,9.18,0,0,1,3.55-.75,10.9,10.9,0,0,1,3.29.78,6.8,6.8,0,0,0,4.34.23c1-.3,2-.7,3-.9a6.72,6.72,0,0,1,3.91.36,9.07,9.07,0,0,0,5.06.7,14.12,14.12,0,0,0,2.28-.66,7,7,0,0,1,4.58-.24l2.38.73"/><path class="cls-2" d="M419.16,557.92h-4.44v-10.8H386.19v-8.56h4.23v7.69l1.19-.8,2.18-1.48a3.71,3.71,0,0,1,2.32-.34c1.71.06,3.42.08,5.13.08,1.21,0,2.42-.07,3.62-.07,1,0,2.08.07,3.12.08,2.06,0,4.11,0,6.17,0,.42,0,.56-.14.55-.56,0-1.53,0-3.06,0-4.63h4.46Z"/><path class="cls-2" d="M402.53,559.45c-.72.75-1.38,1.37-2,2.06s-1.2,1.19-1.76,1.82-1.19,1.27-1.81,1.88a1.06,1.06,0,0,1-.65.28q-17,0-34,0l-.4,0,.83-.55,7.55-5.12a2.06,2.06,0,0,1,1.18-.37h31.06Z"/><path class="cls-2" d="M445.43,578.68v4c-.53-.16-1-.26-1.5-.45a6.68,6.68,0,0,0-3.74-.48,18.15,18.15,0,0,0-2.29.66,8.72,8.72,0,0,1-5.25.22c-.86-.24-1.7-.56-2.57-.78a4.35,4.35,0,0,0-2.6.05,12.69,12.69,0,0,1-6.32.94,14.81,14.81,0,0,1-2.32-.72,6.15,6.15,0,0,0-4.08-.2,12.21,12.21,0,0,1-5.72.94,13,13,0,0,1-2.59-.67,7.22,7.22,0,0,0-5.31,0,7.67,7.67,0,0,1-3.6.68,2.35,2.35,0,0,1-.05-.37c0-1,0-2.08,0-3.12,0-.27.06-.43.35-.42,1.65,0,3.09-.87,4.66-1.14a7.71,7.71,0,0,1,2.83.07c1.49.3,2.88,1.09,4.45,1.11a9.52,9.52,0,0,0,3.3-.54,9.52,9.52,0,0,1,3.35-.76,10.32,10.32,0,0,1,3.44.78,7,7,0,0,0,4.44.22c1-.29,1.93-.68,2.91-.89a6.46,6.46,0,0,1,3.86.36,9.35,9.35,0,0,0,5.21.7,11,11,0,0,0,2.1-.61,6.92,6.92,0,0,1,4.66-.28c.77.26,1.55.48,2.38.74"/><path class="cls-2" d="M445.42,569.23v3.95c-.51-.15-1-.26-1.46-.43a6.59,6.59,0,0,0-3.63-.51,23.55,23.55,0,0,0-2.49.7,8.79,8.79,0,0,1-5.15.21c-.9-.25-1.77-.6-2.68-.82a4.44,4.44,0,0,0-2.55.08,12.38,12.38,0,0,1-6.36.92,14.2,14.2,0,0,1-2.27-.71,6.15,6.15,0,0,0-4.08-.19,12.23,12.23,0,0,1-6,.91,20,20,0,0,1-2.38-.66c-.18,0-.35-.12-.56-.2v-4a12.6,12.6,0,0,1,1.27.42,6.25,6.25,0,0,0,2.86.58,13.49,13.49,0,0,0,3.13-.58,11.37,11.37,0,0,1,3.61-.72,10.78,10.78,0,0,1,3.14.77,6.9,6.9,0,0,0,4.44.23c1-.3,1.92-.67,2.91-.88a6.54,6.54,0,0,1,3.86.34,9,9,0,0,0,4.75.76,17,17,0,0,0,2.69-.72,7.11,7.11,0,0,1,4.53-.23c.78.26,1.57.49,2.39.74"/><path class="cls-2" d="M410.91,550.69c-1.75,1.82-3.4,3.56-5.07,5.28a.72.72,0,0,1-.48.2H376.07a2,2,0,0,1-.24,0c.85-.58,1.63-1.13,2.42-1.66l5.33-3.56a1.46,1.46,0,0,1,.75-.23h26l.56,0"/><path class="cls-2" d="M433.39,512.3a6.64,6.64,0,1,1,6.64-6.6,6.61,6.61,0,0,1-6.64,6.6"/></svg>