<svg id="Layer_1" data-name="Layer 1" xmlns="http://www.w3.org/2000/svg" viewBox="0 0 793.7 1218.9"><defs><style>.cls-1{fill:#086961;}.cls-2{fill:#fff;}</style></defs><path class="cls-1" d="M468.5,627.19a54.42,54.42,0,0,1-10.37,8.52,49.73,49.73,0,0,1-17.5,6.71,43.49,43.49,0,0,1-8.16.47c-24.66,0-49.32.05-74-.06-9.06,0-17.25-3-24.74-8.1a48,48,0,0,1-16-18,44.54,44.54,0,0,1-5.15-20.58q.15-37.18,0-74.36a45.75,45.75,0,0,1,5.59-21.88,48.83,48.83,0,0,1,9-11.84c7.1-7.13,15.73-11,25.38-13a36,36,0,0,1,7.2-.55c24.79,0,49.58-.08,74.37,0a44.92,44.92,0,0,1,19,4.45,50.5,50.5,0,0,1,14.61,10.51,60.51,60.51,0,0,1,6.61,8.58l1.3,2.33a48.76,48.76,0,0,1,5.06,16.79,49.65,49.65,0,0,1,.32,5.17c0,23.6,0,47.2.05,70.81a53,53,0,0,1-4.83,22.67,29.93,29.93,0,0,1-4.57,7.46l-.45.75,0,0a20.71,20.71,0,0,0-2.75,3.17M317.42,558.73h-.05c0,9.75,0,19.5,0,29.25a100.25,100.25,0,0,0,.33,11.75,43.69,43.69,0,0,0,42.95,38.41q36.12.06,72.23,0a39.68,39.68,0,0,0,8.56-1c20.87-4.61,34.87-22.06,34.87-43.44q0-35,0-70.07a47.73,47.73,0,0,0-1.11-10.31,43.59,43.59,0,0,0-42.42-34.12q-35.54,0-71.06,0a51.14,51.14,0,0,0-8.19.68c-20,3.21-35.75,21.07-36.09,41.33-.21,12.49,0,25,0,37.48"/><path class="cls-1" d="M325.18,558.9q0-18,0-35.93c0-17.41,13.4-33,30.6-35.59a37.24,37.24,0,0,1,5.47-.44q35.12-.18,70.25-.32a36.51,36.51,0,0,1,36.75,32.21,32.42,32.42,0,0,1,.28,4.29V594a36.71,36.71,0,0,1-30.83,36,71.89,71.89,0,0,1-10.57.42c-6.87.1-13.75-.11-20.61.06-14.85.36-29.7.2-44.55.24a36.54,36.54,0,0,1-36.46-31.42,29.5,29.5,0,0,1-.33-4.49V558.9"/><path class="cls-2" d="M428.57,585.61s2.69-.82,2.78-5.39a19.64,19.64,0,0,1,2.14-8.59c.68-1.66,4.07-13.8-2.18-21.63s-12.24-12-18.71-12.1-7-.53-8.09-1a18.93,18.93,0,0,0-4.29-1.5,3,3,0,0,1-2.15-1.79c-.53-.91-2.75-4.92-2.75-4.92s-.93-1.58,2-2.32a15,15,0,0,1,8.91.52c2.23,1,12.71,3,18.43.93s11.06-6,13-10.56c0,0-5.33,2.54-9,.67s-8.67-5.5-15-3.41-9.11,3.63-11.73,6.62a11.71,11.71,0,0,1-4.82,3.62L395,525.94s-.72.33-1.24-.68-3.66-6.9-4.5-7.89a7.61,7.61,0,0,0-4.66-1.86c-1,.16-1.48.84-.68,1.81s3.33,1.37,4.5,3.76,6.13,10.74,6.13,10.74,2.45,4.37.7,4-5.88-.67-7.53-1.3-9.58-.8-13.62,2.23-3.87,5.14-4.81,5.91-3.43,2.24-5.33,2c0,0,3.88,3,8.06,2.82A25.16,25.16,0,0,0,384,544c3.46-2.17,6.73-7.32,12.38-7.09,0,0-.08,5.44-1.71,8.35s-5.07,10-4.27,17.52,9.33,19.24,18.94,20.57,8.88-.24,11.15.48,5.95,3,8.09,1.79"/><path class="cls-2" d="M385,583.44s-1.73-1.55-1.53,1.23.51,12.77.51,12.77-.32,3.83,2.61,2.95a61.59,61.59,0,0,0,6.33-2.41s2.15-.74,0-3.7S385,583.44,385,583.44"/><path class="cls-2" d="M380.79,584.09s-.53-2.27-2,.12-6.9,10.76-6.9,10.76-2.46,3,.45,3.91a62.26,62.26,0,0,0,6.57,1.66s2.18.62,2.11-3-.28-13.42-.28-13.42"/><path class="cls-2" d="M377.34,582.6s.87-2.17-1.67-1-11.82,4.87-11.82,4.87-3.71,1-1.87,3.47a61.89,61.89,0,0,0,4.44,5.11s1.43,1.76,3.46-1.27,7.46-11.16,7.46-11.16"/><path class="cls-2" d="M375.58,578.81s2-1.25-.76-1.8-12.43-3-12.43-3-3.61-1.34-3.55,1.72a63,63,0,0,0,.61,6.75s.13,2.26,3.55,1,12.58-4.7,12.58-4.7"/><path class="cls-2" d="M376.4,575.39s2.32.15.44-1.91-8.3-9.71-8.3-9.71-2.13-3.21-3.88-.7a60.19,60.19,0,0,0-3.48,5.81s-1.23,1.91,2.28,2.9l12.94,3.61"/><path class="cls-2" d="M381.41,606.28A27.47,27.47,0,0,1,365,556.76l1.66,2.22a24.7,24.7,0,1,0,29.44,39.67l1.65,2.23a27.36,27.36,0,0,1-16.34,5.4"/></svg>