<svg id="Layer_1" data-name="Layer 1" xmlns="http://www.w3.org/2000/svg" viewBox="0 0 793.7 1218.9"><defs><style>.cls-1{fill:#086961;}.cls-2{fill:#fff;}</style></defs><path class="cls-1" d="M495.36,616.34a54,54,0,0,1-10.4,8.53,49.71,49.71,0,0,1-17.53,6.72,43.65,43.65,0,0,1-8.17.48c-24.71,0-49.42,0-74.13-.07-9.07,0-17.28-3-24.78-8.11a48,48,0,0,1-16-18.07,44.53,44.53,0,0,1-5.17-20.61q.15-37.26,0-74.51a45.91,45.91,0,0,1,5.6-21.92,49.52,49.52,0,0,1,9-11.87c7.11-7.13,15.76-11,25.42-13a37,37,0,0,1,7.22-.55c24.84,0,49.68-.08,74.52,0a45.14,45.14,0,0,1,19,4.46,50.47,50.47,0,0,1,14.63,10.53,61.58,61.58,0,0,1,6.63,8.6l1.29,2.33a48.73,48.73,0,0,1,5.08,16.82,49.84,49.84,0,0,1,.32,5.18c0,23.65-.05,47.3,0,70.95A53,53,0,0,1,503.12,605a30.38,30.38,0,0,1-4.58,7.48l-.45.75v0a20.26,20.26,0,0,0-2.74,3.18M344,547.75h-.05c0,9.76,0,19.53,0,29.3a105.16,105.16,0,0,0,.33,11.77,43.76,43.76,0,0,0,43,38.48q36.19.06,72.38,0a39.23,39.23,0,0,0,8.57-1c20.91-4.61,34.94-22.1,34.94-43.52V512.62a47.82,47.82,0,0,0-1.11-10.32,43.68,43.68,0,0,0-42.5-34.19q-35.61,0-71.2,0a51.29,51.29,0,0,0-8.21.68C360.13,472,344.36,489.89,344,510.19c-.21,12.51,0,25,0,37.56"/><path class="cls-1" d="M351.75,547.91v-36c0-17.45,13.43-33,30.67-35.67a38.65,38.65,0,0,1,5.47-.43q35.21-.18,70.39-.32a36.59,36.59,0,0,1,36.83,32.26,34.65,34.65,0,0,1,.28,4.31q0,35.49,0,71a36.79,36.79,0,0,1-30.89,36.09,72.1,72.1,0,0,1-10.59.42c-6.88.1-13.77-.11-20.65.06-14.87.36-29.75.2-44.63.24a36.6,36.6,0,0,1-36.53-31.48,29.55,29.55,0,0,1-.34-4.5v-36"/><path class="cls-2" d="M402.34,539.66c.14,1.52.17,3,.43,4.43.57,3.06,1.7,4.1,4.76,4.5a16.07,16.07,0,0,0,5.66-.07c.78-.17,1.58-.22,2.36-.32a19.06,19.06,0,0,0-.85,2.23,5.51,5.51,0,0,0,0,3.14,6.36,6.36,0,0,1,.14.76,2,2,0,0,0,2.94,1.5,4.2,4.2,0,0,1,3.38.19,2.46,2.46,0,0,0,2.15,0,3.42,3.42,0,0,1,3.27,0,2,2,0,0,0,2.45-.83c1.33-2.45.84-4.75-.42-7,0-.09-.1-.18-.19-.32a1.68,1.68,0,0,1,.31,0,14.71,14.71,0,0,0,6.85.46c.5-.06,1,0,1.51-.06a4.89,4.89,0,0,0,4.13-3.68c.41-1.58.59-3.22.87-4.82a1.23,1.23,0,0,1,1.05,1.25c.16,2.17.38,4.34.45,6.52s-.06,4.32-.06,6.49.08,4.54.09,6.81c0,2.83,0,5.65,0,8.47,0,1.75.1,3.5,0,5.24s-.87,3.36-2.91,3.66a24.65,24.65,0,0,1-3.43.27c-1.82,0-3.63,0-5.45,0-.52,0-1,.15-1.56.12a3.16,3.16,0,0,1-1.46-.32,5.71,5.71,0,0,0-3.28-.86c-1.23,0-2.45-.13-3.67-.08-1.58.07-3.17.23-4.74.4a2.05,2.05,0,0,0-.95.43,3.32,3.32,0,0,1-2.34.46c-1,0-2,.08-3.06.12-.48,0-1,0-1.44,0-1.08,0-2.17,0-3.25-.08a9.22,9.22,0,0,1-4.26-.8,1.57,1.57,0,0,1-.88-1.47c-.06-1.18-.24-2.35-.29-3.52s0-2.23,0-3.35q0-10.69-.07-21.39c0-1.8,0-3.6,0-5.39a3.17,3.17,0,0,1,1.05-2.71c.22-.16.46-.28.65-.4m10.36,28.22c.11,1,.71,1.42,1.57,1.08a22.28,22.28,0,0,1,2.38-.82,1.79,1.79,0,0,1,2.27,1,5.71,5.71,0,0,0,1.09,1.61c1,.85,3.93.67,4.68-.42a12.08,12.08,0,0,1,1.62-1.89,3.1,3.1,0,0,1,3,0,3.72,3.72,0,0,0,1.52.52c.19,0,.64-.4.63-.59a2.65,2.65,0,0,0-.43-1.5,50.17,50.17,0,0,0-3.59-3.84,4,4,0,0,0-4.4-.61,2.29,2.29,0,0,1-1.61.06c-1.63-.48-3.31-.7-4.68.62-1.13,1.1-2.17,2.31-3.23,3.5a9.73,9.73,0,0,0-.82,1.26m22.52.38.08,0c0-.26,0-.52,0-.78-.14-1.36-.77-2-1.86-1.93-.38,0-.81.43-1.1.77-.1.11.15.54.27.82s.39.57.41.86c.07,1.37.06,2.75.12,4.13a5,5,0,0,0,.26,1.64,3.67,3.67,0,0,0,4.64,1.57,3.62,3.62,0,0,0,2-4.53.92.92,0,0,0-.67-.55,1.15,1.15,0,0,0-1.39,1.2c0,.19,0,.39,0,.59a1.37,1.37,0,0,1-1.29,1c-.61,0-.8-.44-.87-.88-.22-1.29-.38-2.6-.56-3.9m-27.73,7.29a3.3,3.3,0,0,0,3.6-2.74,9.88,9.88,0,0,0,.05-3.43,4.11,4.11,0,0,1,.44-2.53c.3-.65.11-1.12-.62-1.24a1.62,1.62,0,0,0-1.86,1.27,18.29,18.29,0,0,0-.25,2.47c-.05.82,0,1.64-.12,2.45A1.48,1.48,0,0,1,407,573c-.68-.13-.65-.71-.65-1.25a1.31,1.31,0,0,0-1-1.24c-.66,0-1,.3-1.14,1-.49,2.19,1.07,3.89,3.35,4M425,561a2,2,0,0,0,2.28-2,2.2,2.2,0,0,0-2.13-2.24,2.08,2.08,0,0,0-2.31,1.81A2.16,2.16,0,0,0,425,561m-5.29,0a1.94,1.94,0,0,0,1.81-2.24,2.06,2.06,0,0,0-2.38-2.07,2,2,0,0,0-1.89,2,2.43,2.43,0,0,0,2.46,2.29"/><path class="cls-2" d="M413.79,586.27c-.74.07-1.41.19-2.07.2-1.93,0-3.85,0-5.77,0-1.76,0-3.53,0-5.3.1a1.51,1.51,0,0,1-1.21-.44c-.38-.34-.81-.53-.94-1.11a2.93,2.93,0,0,1,1.11-2.95c.65-.43.69-.71.1-1.26a4.27,4.27,0,0,1-1.25-3.25c-.17-6.24-.35-12.49-.49-18.74s-.25-12.47-.29-18.7a64.72,64.72,0,0,1,.35-7.37c.2-1.8.81-3.53,2.6-4.45a7.53,7.53,0,0,1,4.08-.68c.2,0,.41.24.57.41a2.93,2.93,0,0,0,4.22.12,3.06,3.06,0,0,1,2.33-.54,8.45,8.45,0,0,0,3.6-.35c.12,0,.29-.09.34-.18.63-1.08,1.68-.81,2.64-.83l7.38-.13c.87,0,1.74-.19,2.46.67a2.47,2.47,0,0,0,1.65.64c1.23.05,2.48-.1,3.72-.14a.84.84,0,0,1,.55.26,3.22,3.22,0,0,0,4.34.82.9.9,0,0,0,.36-.27c.42-.79,1.12-.78,1.85-.64s1.49.28,2.23.47a3.43,3.43,0,0,1,2.52,2.81c.3,1.27.49,2.56.73,3.84a1,1,0,0,1,.05.33,28.68,28.68,0,0,0,.21,5.4c.08,1-.07,2-.07,3,0,4.77,0,9.55,0,14.32,0,6.12-.08,12.24,0,18.36a6.46,6.46,0,0,1-1.81,4.69c-.39.44-.25.72.13.94,1.29.74,1.46,1.94,1.4,3.24,0,.54-.84,1.22-1.58,1.26-1.44.07-2.89.06-4.33.1l-2.82.12-7.22.31a6.67,6.67,0,0,0,.72-6.23h4.57l6.7-.07a1.63,1.63,0,0,0,.69-.17,4,4,0,0,0,2.38-4.2c-.1-1.86-.13-3.71-.11-5.57,0-2.78.17-5.56.2-8.35,0-2.17-.1-4.36-.09-6.54,0-3.22.11-6.44.14-9.65,0-.74-.16-1.48-.14-2.22,0-1.16-.09-2.31,0-3.49a23,23,0,0,0-.33-5.55,3,3,0,0,0-2.49-2.61c-2.44-.51-4.84-1.19-7.28-1.63-2.14-.38-4.33-.53-6.49-.78l-1.37-.13s-.07,0-.08-.09c-.4-1.24-.4-1.25-1.77-1.28l-7.53-.1c-.37,0-.71,0-.77.49-.13,1-.25,1-1.25,1.09s-2.11.21-3.16.35c-1.81.26-3.63.49-5.42.83-1.54.3-3.07.69-4.57,1.14A12.92,12.92,0,0,0,400.3,533a2.52,2.52,0,0,0-1.16,1.89c-.17,1.12-.32,2.24-.44,3.37a7.08,7.08,0,0,0,.1.9q.07,3.9.13,7.8c.09,5.94.16,11.88.26,17.83.05,3.48.11,7,.2,10.46a20.14,20.14,0,0,0,.22,2.91,2.43,2.43,0,0,0,2.34,2.07c2.09.2,4.21.25,6.32.34,1.2,0,2.4,0,3.6.07h1.67a6.78,6.78,0,0,0,.25,5.63"/><path class="cls-2" d="M425,507.56c1.23-.05,2.45-.13,3.67-.16,2.83-.06,5.66-.08,8.49-.14.82,0,1.65-.14,2.48-.2a20,20,0,0,0,2.19-.12,5.6,5.6,0,0,0,4.35-3.56,7.35,7.35,0,0,0,.76-3.16,9.28,9.28,0,0,0-1.65-5.37,5,5,0,0,0-3.4-1.78,28,28,0,0,0-4.1-.27c-2.05-.06-4.11-.09-6.16-.08-3.22,0-6.45,0-9.67.07-1.7,0-3.39,0-5.09,0-1.09,0-2.17.15-3.26.19-.46,0-.93-.08-1.39-.08-2.23,0-4.46,0-6.69.06a11.26,11.26,0,0,0-4.29.69,7.24,7.24,0,0,0-2.85,2.3c-2.21,2.92-1.32,6.89.29,8.9a7,7,0,0,0,5,2.59c4.5.4,9,0,13.48,0,.54,0,1.09,0,1.64.07-.3,1.07-.31,1.09-1.32,1.11-3.95.06-7.89.2-11.84.14a13.46,13.46,0,0,1-5.39-1,7.06,7.06,0,0,1-3.94-5,10.58,10.58,0,0,1-.33-4.43,8.12,8.12,0,0,1,1.11-2.64c1.17-2.15,3.2-3.15,5.41-3.83a6.14,6.14,0,0,1,1.43-.11c1.35-.09,2.7-.21,4.06-.26.84,0,1.7.07,2.55.07l18.55-.09c1.9,0,3.81,0,5.71,0a38.42,38.42,0,0,1,3.86-.1,32.83,32.83,0,0,1,4.84.82,5.34,5.34,0,0,1,3.38,2.94,9.32,9.32,0,0,1,.76,6.68,10.43,10.43,0,0,1-.45,2.21,7,7,0,0,1-3.68,3.68,10.66,10.66,0,0,1-3,.69c-2.14.13-4.29.1-6.44.13l-7.09.12c-.81,0-1.73.21-2-1.1"/><path class="cls-2" d="M418.64,538.2h6.85v2.49c0,2.25-.21,4.54.62,6.7a10,10,0,0,0,1.12,2,4.57,4.57,0,0,1,.28,4.3.87.87,0,0,1-1.34.3,1.71,1.71,0,0,0-2.05-.21,3.63,3.63,0,0,1-4.15.08,1.72,1.72,0,0,0-2,.1c-.55.39-.9.2-1.24-.3a3,3,0,0,1,0-3.7,10.62,10.62,0,0,0,1.94-4.59,27.29,27.29,0,0,0-.07-3.61c0-1.15,0-2.3,0-3.55"/><path class="cls-2" d="M446.48,508.43c0,1,0,1.91,0,2.79,0,1.6.09,3.2.12,4.79,0,.35-.11.7-.09,1a1.64,1.64,0,0,0,.24.92,8.61,8.61,0,0,1,1.44,3.43,4.87,4.87,0,0,1,.24,2.75,2.88,2.88,0,0,1-.34.65,3.72,3.72,0,0,1-.56-.48c-.35-.47-.66-1-1-1.44-.85-1.09-2.07-1-3.25-1-.89,0-1.78.09-2.68.09-1.39,0-2.78-.07-4.17-.06-.82,0-1.64.12-2.46.14-.6,0-1.2-.08-1.81-.07s-1.43.07-2.15.09a1.26,1.26,0,0,1-.7-.14c-.77-.46-1.2-.67-.22-1.56a2.37,2.37,0,0,0,.68-1.34,6.71,6.71,0,0,0-.54-4.52,8.34,8.34,0,0,0-1.74-2.08,2.66,2.66,0,0,1-.88-1.83l5-.24a7.45,7.45,0,0,0,.53,6.4c.16.32.57.52.86.78a5.57,5.57,0,0,0,4.4,1.28,7.44,7.44,0,0,0,3.35-1,5,5,0,0,0,2.14-3,11.56,11.56,0,0,0,.43-4.22c0-.4.13-.54.49-.7.67-.3,1.31-.68,2-1,.22-.13.41-.29.74-.51"/><path class="cls-2" d="M397.58,508.66c.95.55,1.84,1,2.71,1.58.12.06.18.28.2.43.05.8.1,1.6.12,2.4a6,6,0,0,0-.05,1,5.64,5.64,0,0,0,.55,1.62c.74,1.23,1.46,2.52,3,3a3.74,3.74,0,0,0,1.23.21,26.43,26.43,0,0,0,4.09-.24A4.58,4.58,0,0,0,413,514c-.08-1-.29-1.88-.44-2.83a4.49,4.49,0,0,1,0-.49h5.08a2,2,0,0,1-1.17,1.83A5.23,5.23,0,0,0,414,518a4.68,4.68,0,0,0,1.26,2.81.54.54,0,0,1-.24.94,5.73,5.73,0,0,1-1.82.37c-1.33,0-2.66-.06-4-.06-1,0-2,.06-3.05.07-1.28,0-2.57,0-3.86,0-1,0-2,.06-3.05.15a3,3,0,0,0-2.59,2.27c-.09.21-.33.37-.5.55-.17-.24-.46-.46-.5-.72a8.58,8.58,0,0,1,.83-5.29c.25-.52.7-1,.91-1.49a4.34,4.34,0,0,0,.15-1.45c0-.36-.12-.72-.12-1.08,0-1.92.05-3.85.08-5.77,0-.2,0-.39.06-.61"/><path class="cls-2" d="M432.71,505.69v-3.3c1.07-.08,2.1-.18,3.14-.24.5,0,.64-.24.61-.7-.06-.91-.08-1.83-.14-2.74,0-.52-.79-1-1.3-.92a11.05,11.05,0,0,1-1.82.11c-.12,0-.32-.32-.34-.5-.05-.82,0-1.65-.08-2.48,0-.41.07-.55.49-.52,1.27.09,2.53.17,3.8.22s2.83.08,4.25.12a2.57,2.57,0,0,1,1.76.69,4.51,4.51,0,0,1,1.81,2.64,8.1,8.1,0,0,1-.55,4.6c-.71,1.66-2.15,2-3.63,2.44a26.09,26.09,0,0,1-6.23.49c-.56,0-1.12.06-1.77.09"/><path class="cls-2" d="M411.34,505.9c-1.11,0-2.16.06-3.19,0-1.72-.11-3.43-.24-5.14-.46a2.2,2.2,0,0,1-2.13-1.45,2.41,2.41,0,0,0-.74-1.05,3.44,3.44,0,0,1-1-3.13,6.49,6.49,0,0,1,.58-1.9c.79-2.23,2.65-2.75,4.72-2.87s4-.2,5.94-.31c.67,0,.81.08.82.76s0,1.23,0,1.84-.12.76-.69.73a17.25,17.25,0,0,0-1.9.08c-.87.08-1,.25-.91,1.12,0,.7,0,1.4,0,2.1s.22,1.23,1.09,1.14c.63-.06,1.27,0,1.91,0,.48,0,.62.22.62.62,0,.89,0,1.79,0,2.8"/><path class="cls-2" d="M425.46,511.67a6.3,6.3,0,0,0-.83.7,6.85,6.85,0,0,0-.58.83,4.37,4.37,0,0,0,.94.57,4.72,4.72,0,0,1,2.4,1.25,3.17,3.17,0,0,1,0,4,4.28,4.28,0,0,1-3.74,1.56,2.23,2.23,0,0,1-.95-.4,1.69,1.69,0,0,0-1.63-.05,4.25,4.25,0,0,1-4.55-.61,2.81,2.81,0,0,1-.66-2.76,3.88,3.88,0,0,1,3.24-2.87.87.87,0,0,0,.54-1.5c-.18-.19-.53-.22-.95-.37.21-.7.43-1.48.67-2.25,0-.15.13-.28.18-.43.25-.66.37-1.44,1.24-1.62,1.27-.26,2.45-.17,3.17,1.12.51.92,1,1.87,1.48,2.81"/><path class="cls-2" d="M429.83,598.07c.59-1.21,1.14-2.33,1.73-3.52,1.63-.18,3.45-.29,5.24-.59,2.14-.36,2.74-1.68,2.93-3.5.07-.72,0-1.44,0-2.28.64,0,1.22,0,1.8,0,.81,0,1.62,0,2.43-.11a.86.86,0,0,1,1.06.7,30.84,30.84,0,0,1,1.35,6.79,1.49,1.49,0,0,1-.78,1.42,4.79,4.79,0,0,1-2.76.74c-2.55-.08-5.11.09-7.66.18-1.75.05-3.49.14-5.23.21a.2.2,0,0,1-.12,0"/><path class="cls-2" d="M404.24,588.18c.32,1.35.62,2.6.91,3.84a2.7,2.7,0,0,0,1.59,1.71,8.84,8.84,0,0,0,4.89.79c.46,0,.92,0,1.41,0l1.48,3.21c-.66.06-1.28.14-1.9.17-1.24.06-2.48.11-3.72.13-2.08,0-4.16.11-6.24.05a11.88,11.88,0,0,1-3.05-.56,2.16,2.16,0,0,1-1.35-2.86c.4-1.6.77-3.22,1.14-4.84a7,7,0,0,0,.17-1c.05-.46.27-.63.73-.62,1.33,0,2.67,0,3.94,0"/><path class="cls-2" d="M415,583.24a3.47,3.47,0,0,1,3.25-3.81,45.23,45.23,0,0,1,5.08-.23c.93,0,1.87,0,2.81.09a5.27,5.27,0,0,1,2.78,1.22.57.57,0,0,1,.2.26c.38,1.28.85,2.52.3,3.92-.72,1.83-1,2-3,1.85a1.36,1.36,0,0,1-1.12-.63,3.58,3.58,0,0,0-3.76-1.38A3.74,3.74,0,0,0,419,586a.52.52,0,0,1-.37.19,15.09,15.09,0,0,1-2.22.12,1.18,1.18,0,0,1-.73-.56,4.12,4.12,0,0,1-.72-2.52"/><path class="cls-2" d="M400.63,539c0-1.28,0-2.5,0-3.71a1,1,0,0,1,.83-.92,28.8,28.8,0,0,0,2.83-1.19,22.39,22.39,0,0,1,6.4-1.52c1.78-.15,3.54-.41,5.31-.59a1.33,1.33,0,0,1,.92.17c.15.12,0,.55,0,.85,0,1.3.07,2.6.12,3.9,0,.31-.06.49-.43.49-1.76,0-3.54-.11-5.28,0-3.12.29-6.3.28-9.22,1.66-.51.24-1,.53-1.51.82"/><path class="cls-2" d="M427,531.18c1.35.07,2.57.07,3.77.22,2.39.28,4.76.62,7.13,1,1.16.17,2.3.45,3.44.72a2.51,2.51,0,0,1,1.8,1.9,6.18,6.18,0,0,1,.23,1.55c0,.79,0,1.59,0,2.45a14,14,0,0,0-7.05-2.3c-1.41,0-2.82-.08-4.23-.1h-4.86c-.08-1.86-.16-3.56-.24-5.43"/><path class="cls-2" d="M427.16,542.87h1.67c.51,0,1.08.06,1.16-.64s-.35-.82-1.2-.83c-.41,0-.83,0-1.25,0s-.58-.16-.57-.58c0-.94,0-1.88,0-3,1.13,0,2.24,0,3.34,0,.61,0,.82.23.77.82s0,1,0,1.49.28.65.67.67c1,0,1.92.07,2.88,0,.44,0,.76-.17.71-.76a20.56,20.56,0,0,1,0-2.08,7.64,7.64,0,0,1,4.47.83c.12.07.31.17.32.26a16.82,16.82,0,0,1,0,1.88c0,.1-.32.23-.5.25-.65.07-1.31.05-1.95.16a.85.85,0,0,0-.57.52.62.62,0,0,0,.56.81c.73.08,1.47.13,2.2.19a2.93,2.93,0,0,1-1.68,3c-.74.29-1.56.38-2.32.64s-.85-.23-1.09-.61c-.37-.6-.66-1.23-1-1.82a.81.81,0,0,0-.53-.41c-.17,0-.38.24-.5.42-.5.71-1,1.46-1.48,2.16a.9.9,0,0,1-.57.34,3.38,3.38,0,0,1-3.45-3.78"/><path class="cls-2" d="M416.91,543.11c.07,1.62-.45,2.49-1.69,2.95a11,11,0,0,1-1.37.45,1,1,0,0,1-1.31-.55c-.3-.61-.63-1.2-1-1.79a8.39,8.39,0,0,0-.56-.74c-.6,1-1.15,1.83-1.62,2.71-.28.54-.5.93-1.23.66s-1.36-.3-2-.53a2.13,2.13,0,0,1-1.43-1.86c-.06-.44-.13-.88-.2-1.35a15.18,15.18,0,0,0,1.94-.19,1.14,1.14,0,0,0,.74-.57c.15-.42-.18-.69-.6-.78l-2.18-.4a10.75,10.75,0,0,0-.28-1.54c-.21-.61.06-.79.57-.87l4.17-.71c0,.82,0,1.49,0,2.15s.36.7.76.74c.8.06,1.61,0,2.41.09s1-.17,1.1-.86,0-1.13,0-1.74c1.17-.07,2.29-.16,3.42-.19.12,0,.35.28.36.45.09.88.13,1.77.18,2.76h-1.92c-.81,0-1.11.2-1.08.77a1.13,1.13,0,0,0,1.22.94h1.58"/><path class="cls-2" d="M418,588.13a4,4,0,0,1-.42,2.66,4.06,4.06,0,0,0,.2,4.17,4.6,4.6,0,0,0,3.68,2.58c2,.2,4-.15,5.2-1.95a4.55,4.55,0,0,0,.54-3.23c-.1-.73-.46-1.41-.54-2.14a5.3,5.3,0,0,1,.21-1.66c0-.06.3-.15.38-.1a5.1,5.1,0,0,1,1.32.89,5.59,5.59,0,0,1,1.27,4.77,7.3,7.3,0,0,1-2.94,4.54,9.08,9.08,0,0,1-4.43,1.69,3.21,3.21,0,0,1-1.58-.32c-1.18-.43-2.34-.89-3.48-1.4-.27-.12-.43-.48-.61-.74a15.47,15.47,0,0,1-1.59-2.55,6,6,0,0,1-.53-2.86c.19-1.44.42-3,1.95-3.86.43-.24.75-.63,1.37-.49"/><path class="cls-2" d="M446.47,598.73a19.71,19.71,0,0,1-.29,3.12,2.27,2.27,0,0,1-2.5,1.66c-2.41,0-4.82.07-7.22.07-2,0-4.07-.06-6.11-.06-1.53,0-3.07,0-4.6.07l-.61-.05a6.86,6.86,0,0,1,1-1,4.5,4.5,0,0,0,1.72-1.92.84.84,0,0,1,.57-.43c1.48-.11,3-.19,4.46-.24.11,0,.32.3.35.48a2.67,2.67,0,0,0,1.68,2.17,2.32,2.32,0,0,0,3-2.33c0-.56.22-.6.65-.59,1.48,0,3,0,4.45.07a5.47,5.47,0,0,0,2.78-.69c.16-.08.32-.13.68-.28"/><path class="cls-2" d="M419,603.58h-3c-1.88,0-3.75,0-5.63,0s-4,.1-6,.13c-1.21,0-2.43,0-3.65,0a2.62,2.62,0,0,1-2.46-2.48,20.67,20.67,0,0,1,0-2.48c.6.29,1.28.59,2,.93a6.92,6.92,0,0,0,3.22.35c.57,0,1.13-.06,1.7-.08h1.5a20.23,20.23,0,0,0,1.49,2.49,1.58,1.58,0,0,0,1.27.31,2.81,2.81,0,0,0,2.15-3c1.26,0,2.51,0,3.76,0,.17,0,.36.19.5.33l3.19,3.26Z"/><path class="cls-2" d="M426,505.83a8.32,8.32,0,0,0-1.19-.17c-1.17,0-2.34,0-3.51,0-1.46,0-2.91.09-4.37.11-1.07,0-1.07,0-1.08-1q-.06-4.11-.11-8.22c0-.38.07-.77.13-1.32l10.26,10.39Z"/><path class="cls-2" d="M428.28,505.26c-3.49-3.58-6.85-7.05-10.26-10.56,1.23,0,2.43,0,3.62,0,1.48,0,3-.1,4.44-.14.63,0,1.26-.06,1.88,0a.6.6,0,0,1,.37.44c0,1.13-.16,2.27-.17,3.4s.09,2.36.11,3.54,0,2.11,0,3.35"/><path class="cls-2" d="M418.79,536.39c0-1.06,0-2,0-3s0-2.19.13-3.28c0-.16.34-.42.51-.42,1.71,0,3.42,0,5.13,0a.68.68,0,0,1,.73.69l.21,5.87a.51.51,0,0,1,0,.14Z"/><path class="cls-2" d="M437.29,510.33c.12.44.2.8.31,1.15a1.31,1.31,0,0,1-.6,1.69.53.53,0,0,1-.87-.2c-.21-.41-.39-.82-.93-.7s-.65.82-.53,1.34a2.21,2.21,0,0,0,2.36,1.87,2.72,2.72,0,0,0,2.76-3.18c0-.34,0-.68,0-1a7.7,7.7,0,0,0-.25-1c.58,0,1.15,0,1.71,0,.12,0,.3.23.33.37a5.79,5.79,0,0,1-.75,4.39,3.62,3.62,0,0,1-4,1.88c-.7-.11-1.41-.19-2.1-.34a2.13,2.13,0,0,1-1.57-1.57,4.1,4.1,0,0,1,.16-3.72,1.31,1.31,0,0,1,1.32-.82,21.36,21.36,0,0,0,2.63-.11"/><path class="cls-2" d="M402.44,510.86h1.89c.06.72.1,1.42.17,2.11a2.76,2.76,0,0,0,3.13,2.52,2.07,2.07,0,0,0,1.91-2.23,1.24,1.24,0,0,0-.68-.84.64.64,0,0,0-.88.53c-.14.59-.68.58-1.05.5-.21-.05-.38-.56-.43-.87a3,3,0,0,1,.06-1.3,1,1,0,0,1,.69-.55c.71-.11,1.44-.07,2.15-.15a.84.84,0,0,1,1,.66,5.65,5.65,0,0,1,.37,2.86,3.87,3.87,0,0,1-2.57,2.89,5.16,5.16,0,0,1-3.94-.21,3,3,0,0,1-1.37-1.79,11.35,11.35,0,0,1-.28-2.56c0-.51-.13-1-.21-1.57"/><path class="cls-2" d="M414.2,588c-.14.63-.29,1.07-.94,1.19a6.14,6.14,0,0,0-1.47.52,2.23,2.23,0,0,0-1.25,1.94,4,4,0,0,1-.14.77c0,.13-.21.34-.31.33a8.41,8.41,0,0,1-2-.21,2.94,2.94,0,0,1-1.91-2.74c-.22-1.5-.47-1.63,1.42-1.63s3.84,0,5.77-.06c.24,0,.48-.07.79-.11"/><path class="cls-2" d="M430.12,588.16c2.5,0,4.94,0,7.37,0a.9.9,0,0,1,.58.64,3.75,3.75,0,0,1-.44,2.57,2.57,2.57,0,0,1-2.86,1.12.89.89,0,0,1-.57-.48c-.57-1.9-1.32-2.57-3.31-2.82-.6-.08-.63-.55-.77-1.06"/><path class="cls-2" d="M421.9,591.05c-1.65-.18-2.19-.75-2.31-2.49-.08-1.19,1.37-2.35,2.84-2.3,1.12,0,2.52,1,2.43,2.19a3,3,0,0,1-3,2.6"/><path class="cls-2" d="M446.3,527.7a5.36,5.36,0,0,0-3.22-1.73c-1.18-.21-2.38-.29-3.54-.42l.16-1.77,2.85.28c.39,0,.78.14,1.17.15a2.77,2.77,0,0,1,2.58,3.49"/><path class="cls-2" d="M412.85,502.82c0-1.14,0-2.27,0-3.41,0-1.35.12-2.7.16-4.05,0-.48.26-.74.69-.61.17,0,.35.44.35.67,0,1.35-.1,2.7-.07,4.05,0,1.75.14,3.51.2,5.27a1.32,1.32,0,0,1-.08.7.9.9,0,0,1-.63.35c-.13,0-.38-.26-.4-.42-.08-.85-.1-1.7-.14-2.55h-.09"/><path class="cls-2" d="M404.44,525.67c-2.58-.06-5,.21-6.77,2.36a2.85,2.85,0,0,1,.17-2,3.7,3.7,0,0,1,3.65-1.8c.69,0,1.39-.06,2.09-.08.86,0,.93.08.91,1a5.11,5.11,0,0,1-.05.55"/><path class="cls-2" d="M431.21,494.54c-.07,2.06-.16,4.07-.2,6.08,0,1.18.05,2.36.06,3.54a4.76,4.76,0,0,1-.12,1.36c-.05.16-.49.2-.89.35V494.54Z"/><path class="cls-2" d="M428.63,523.93c1.5,0,3,0,4.42,0,.58,0,.8.21.78.76,0,.37,0,.74,0,1.16-.44.06-.84.13-1.23.15-.74,0-1.48,0-2.22,0-1.5,0-1.94-.51-1.75-2.06"/><path class="cls-2" d="M410.67,525.82c-.06-.57-.11-1.12-.17-1.74l5.12-.22c.51,1.07-.81,2.52-2.06,2.17a14.72,14.72,0,0,0-2.89-.21"/><path class="cls-2" d="M435.52,523.86h2.77c-.19.92-.33,1.76-.55,2.58a.73.73,0,0,1-.92.56c-.44-.11-1-.08-1.05-.77s-.16-1.52-.25-2.37"/><path class="cls-2" d="M406.35,524.15l2.39-.11a20.66,20.66,0,0,1-.26,2.34c-.05.28-.44.69-.68.69a1.23,1.23,0,0,1-1-.5,16.68,16.68,0,0,1-.44-2.42"/><path class="cls-2" d="M421.25,524.6l-1.06.15a10.86,10.86,0,0,1-.13-1.75c0-.19.52-.55.59-.51a1.58,1.58,0,0,1,.73.79,4.16,4.16,0,0,1-.13,1.32"/><path class="cls-2" d="M426,524.49a9,9,0,0,1,0-1.58.91.91,0,0,1,.59-.54c.13,0,.46.29.52.5a2.84,2.84,0,0,1,0,1c-.09.7-.69.31-1.17.57"/><path class="cls-2" d="M423.14,524.76a13.51,13.51,0,0,1-.06-1.7c0-.23.31-.43.48-.64.21.18.55.34.59.56a2.36,2.36,0,0,1-.07,1.29c-.09.22-.55.3-.94.49"/><path class="cls-2" d="M418.41,524.71c-.43-.22-.9-.32-.93-.5a5.11,5.11,0,0,1,0-1.51c0-.08.41-.21.5-.15a1.11,1.11,0,0,1,.48.62,9.43,9.43,0,0,1-.1,1.54"/><path class="cls-2" d="M426.82,565.9c-.42.11-.74.17-1.05.27a1.89,1.89,0,0,0-1.45,1.42,7.83,7.83,0,0,1-.84,1.69c-.09.15-.32.23-.62.44.05-1,.11-1.73.13-2.5,0-.54-.39-1-.85-.91a.86.86,0,0,0-.6.5c-.11.74-.1,1.5-.14,2.26,0,.19,0,.38,0,.57l-.18.09a4.43,4.43,0,0,1-.76-1.19c-.41-1.66-1.61-2.09-3.1-2.14h-.8c.38-.77,2.07-1.37,3.23-1.48s2.38-.19,3.57-.21a5.9,5.9,0,0,1,3.5,1.19"/></svg>