<svg id="Layer_1" data-name="Layer 1" xmlns="http://www.w3.org/2000/svg" viewBox="0 0 793.7 1218.9"><defs><style>.cls-1{fill:#086961;}.cls-2{fill:#fff;}</style></defs><path class="cls-1" d="M469.19,678.6a54.77,54.77,0,0,1-10.47,8.6A50.3,50.3,0,0,1,441.05,694a43.5,43.5,0,0,1-8.24.48c-24.89,0-49.79,0-74.68-.06-9.15,0-17.42-3-25-8.18A48.32,48.32,0,0,1,317,668a44.81,44.81,0,0,1-5.21-20.77q.17-37.53,0-75.08a46.41,46.41,0,0,1,5.64-22.09,49.76,49.76,0,0,1,9.05-11.95c7.17-7.19,15.89-11.12,25.62-13.1a36.76,36.76,0,0,1,7.27-.55c25,0,50.06-.09,75.09,0a45.43,45.43,0,0,1,19.19,4.5,51,51,0,0,1,14.75,10.61,61.13,61.13,0,0,1,6.68,8.66l1.3,2.35a49.26,49.26,0,0,1,5.12,16.95,50.78,50.78,0,0,1,.32,5.22c0,23.83,0,47.66.05,71.49A53.38,53.38,0,0,1,477,667.14a30.54,30.54,0,0,1-4.61,7.54l-.46.75,0,0a19.65,19.65,0,0,0-2.77,3.2M316.66,609.49h-.05c0,9.84,0,19.68,0,29.52a102.3,102.3,0,0,0,.33,11.87,44.09,44.09,0,0,0,43.36,38.77q36.46.06,72.93,0a40.49,40.49,0,0,0,8.64-1c21.07-4.66,35.2-22.28,35.21-43.86q0-35.37,0-70.74A48,48,0,0,0,476,563.69a44,44,0,0,0-42.82-34.45q-35.88,0-71.75,0a50.78,50.78,0,0,0-8.26.69c-20.21,3.24-36.1,21.27-36.44,41.72-.22,12.61,0,25.23,0,37.85"/><path class="cls-1" d="M324.49,609.65v36.27a29.94,29.94,0,0,0,.34,4.53,36.88,36.88,0,0,0,36.81,31.72c15,0,30,.12,45-.24,6.93-.17,13.88,0,20.81-.06a73.2,73.2,0,0,0,10.67-.43,37.06,37.06,0,0,0,31.13-36.36V573.53a33.29,33.29,0,0,0-.28-4.34,36.87,36.87,0,0,0-37.11-32.51q-35.46.12-70.93.33a37.89,37.89,0,0,0-5.51.44c-17.37,2.66-30.89,18.36-30.9,35.93q0,18.14,0,36.27"/><path class="cls-1" d="M324.49,609.65q0-18.14,0-36.27c0-17.57,13.53-33.27,30.9-35.93a37.89,37.89,0,0,1,5.51-.44q35.48-.19,70.93-.33a36.87,36.87,0,0,1,37.11,32.51,33.29,33.29,0,0,1,.28,4.34q0,35.78,0,71.55a37.06,37.06,0,0,1-31.13,36.36,73.2,73.2,0,0,1-10.67.43c-6.94.1-13.88-.11-20.81.06-15,.36-30,.2-45,.24a36.88,36.88,0,0,1-36.81-31.72,29.94,29.94,0,0,1-.34-4.53V609.65"/><path class="cls-2" d="M368,649.08H355.89v-.41c0-1.92.05-3.83,0-5.75a5.46,5.46,0,0,1,1.24-3.56c1.54-2.08,3.1-4.15,4.61-6.25a5.26,5.26,0,0,0,1-2.86c.06-1.37.06-2.75.08-4.13a5.55,5.55,0,0,1,1.33-3.59,7.46,7.46,0,0,1,2.73-2,12.37,12.37,0,0,0,2.12-1.14,4.52,4.52,0,0,0,1.88-2.69c.06-.25.1-.51.16-.75s.2-.23.33-.06a4.9,4.9,0,0,1,1.18,3,4.66,4.66,0,0,1,0,1.24,3.24,3.24,0,0,1-.63,1.15c-.6.72-1.29,1.38-1.91,2.08a13.39,13.39,0,0,0-1.09,1.42,5.34,5.34,0,0,0-.73,2.37c-.08.68-.05,1.38-.08,2.08a1.44,1.44,0,0,1-.41,1c-.45.48-.89,1-1.29,1.5a2.6,2.6,0,0,0-.38,1.58c-.07,2.38-.11,4.77-.14,7.15a3,3,0,0,0,1.25,2.64,2.29,2.29,0,0,1,.91,1.93v4.14Z"/><path class="cls-2" d="M354.19,649.1H349.3v-.43c0-2.66,0-5.32,0-8,0-.46-.05-.92-.06-1.37a6.52,6.52,0,0,1,1.56-4.16c1.33-1.69,2.59-3.43,3.84-5.18a5.36,5.36,0,0,0,1-2.86c0-1.3.07-2.6.07-3.9a5.7,5.7,0,0,1,1-3.42,17.05,17.05,0,0,1,1.35-1.6c1-1.1,2-2.18,2.95-3.28a3.61,3.61,0,0,1,2.63-1.25,4.66,4.66,0,0,0,4.13-3.16,5.77,5.77,0,0,0,.23-1.08c0-.35,0-.71,0-1.13a1.42,1.42,0,0,1,.4.17,4.07,4.07,0,0,1,1.43,2.5,3.78,3.78,0,0,1-.13,2.35,5.77,5.77,0,0,1-1,1.47c-1.06,1.16-2.18,2.27-3.25,3.42-.87.93-1.71,1.88-2.52,2.86a18.46,18.46,0,0,0-1.19,1.7,3.82,3.82,0,0,0-.56,2c-.06,1.24,0,2.48-.09,3.71a5.64,5.64,0,0,1-1.2,3.14c-1.47,2-3,3.9-4.42,5.89a5.89,5.89,0,0,0-1.23,2.46,12.2,12.2,0,0,0-.15,1.47c0,2.4,0,4.8,0,7.19Z"/><path class="cls-2" d="M430.16,634.66c0-2.31,0-4.61,0-6.92,0-1.72-.11-3.44,0-5.16a9.27,9.27,0,0,1,1.7-5.15,16.33,16.33,0,0,1,1.56-1.67l11.79-12,.21-.23a5.36,5.36,0,0,1,2.18,1.37,8.22,8.22,0,0,1,2.28,3.79,7.32,7.32,0,0,1,.24,1.68c0,2.18,0,4.37,0,6.56,0,0-.07,0-.09,0a5.07,5.07,0,0,0-3.1-1.33,9.28,9.28,0,0,0-3.67.24,7,7,0,0,0-4.09,3.54c-2.76,4.78-5.55,9.54-8.33,14.31l-.58,1-.07,0"/><path class="cls-2" d="M396.44,563.08c.42,0,.8,0,1.18,0a.56.56,0,0,1,.59.41c.23.85.49,1.7.68,2.57.12.51,0,.58-.5.59l-.23,0c.22,1,.43,2,.67,2.94.28,1.16.59,2.32.86,3.48.05.22.15.26.34.26.75,0,1.49,0,2.23,0,1.47,0,2.95.07,4.42.13a3.22,3.22,0,0,1,3.06,2.34,3,3,0,0,1,.15.94c0,1,0,2-.05,2.93a7.58,7.58,0,0,0,.15,2.07,2.16,2.16,0,0,0,2.38,1.5,5.29,5.29,0,0,1,3.09.37,2.27,2.27,0,0,1,1.07,1.25c.23.63.47,1.25.69,1.87a6.42,6.42,0,0,0,1.39,1.88c.29.35.61.69.93,1a.53.53,0,0,0,.33.17c.92,0,1.84,0,2.76.08a10.2,10.2,0,0,1,1.11.14,5.42,5.42,0,0,1-.35.42l-2.86,2.83a.79.79,0,0,1-.65.26c-1,0-2,0-2.94,0a2.23,2.23,0,0,1-1.73-.67c-1.76-1.6-3.55-3.15-5.32-4.74s-3.29-3-5-4.48a1.61,1.61,0,0,1-.6-1.58.66.66,0,0,0,0-.14.81.81,0,0,0,0-.09,3.75,3.75,0,0,1-1.79-.4,3.7,3.7,0,0,1-1.4-1.56s0-.17.06-.24c.25-.38.52-.75.79-1.12a.26.26,0,0,1,.16-.1c.52,0,1.05,0,1.58,0a13.93,13.93,0,0,0,1.69-.21,1.46,1.46,0,0,0,1-1.54h-1.51c-1.38,0-2.76-.06-4.15-.06-1,0-2,0-3.07,0a1,1,0,0,1-.59-.22,1.8,1.8,0,0,1-.7-1.51c.07-2.46.07-4.93.08-7.39,0-1.27,0-2.54,0-3.81,0-.2,0-.4,0-.64"/><path class="cls-2" d="M391,573.2c.24-1,.49-1.94.69-2.89s.44-2.16.65-3.24c.07-.4,0-.45-.39-.47s-.5-.17-.35-.51c.37-.85.75-1.69,1.12-2.54a.53.53,0,0,1,.57-.4c.26,0,.52,0,.78-.06.46,0,.56.09.56.54,0,2.8.05,5.59.08,8.38,0,1.15.06,2.29.05,3.44,0,.54-.42.89-.76,1.25-.06.06-.22,0-.33,0h-7.15a1.23,1.23,0,0,0,1.15,1.54c.36,0,.5.15.5.53,0,1.67.05,3.35,0,5a3,3,0,0,1-1.1,2.24c-1.77,1.65-3.51,3.33-5.26,5-.77.74-1.52,1.5-2.29,2.25a.64.64,0,0,1-.38.15c-1,0-1.95,0-2.93.06a.59.59,0,0,1-.36-.13c-1-1-2-2-3-3.06a2,2,0,0,1-.21-.3h2.94a.47.47,0,0,0,.43-.22c1.05-1.34,2.11-2.67,3.18-4,.81-1,1.63-2,2.43-3a2.3,2.3,0,0,0,.44-1.64,37.8,37.8,0,0,0-1.13-4.49,2.53,2.53,0,0,1,.14-2,2.78,2.78,0,0,1,2.41-1.36c2.46,0,4.92,0,7.39,0H391"/><path class="cls-2" d="M450.14,624v6.6a17.19,17.19,0,0,1-1.9,0,5.72,5.72,0,0,0-4.12,1,10.39,10.39,0,0,0-2.76,3.29q-4.44,7.08-8.9,14.16a.55.55,0,0,1-.32.23c-1.43,0-2.86,0-4.28.05l-.13,0c.45-.73.89-1.44,1.34-2.14q3.66-5.79,7.32-11.58c1.8-2.86,3.58-5.73,5.44-8.56a6.8,6.8,0,0,1,3.82-3,7.21,7.21,0,0,1,2-.13c.81,0,1.62.08,2.46.13"/><path class="cls-2" d="M399.82,563.31c1-.07,1.9-.2,2.81-.2a13.54,13.54,0,0,1,2.37.26,1.84,1.84,0,0,1,1.45,1.26,5,5,0,0,1,.14,1,.79.79,0,0,0,.72.77,3.12,3.12,0,0,1,.71.29c1.74.79,3.47,1.59,5.22,2.37a2.55,2.55,0,0,1,1.14,1.18,5.31,5.31,0,0,1,.64,2.53c0,.73,0,1.46,0,2.19a1.48,1.48,0,0,0,.79,1.39,2.1,2.1,0,0,0,.7.21c.2,0,.26.07.27.3a1.46,1.46,0,0,1-1.57,1.53h-1.69a1.54,1.54,0,0,0,1,1.63,1.37,1.37,0,0,0,.4.05h1.88a1.42,1.42,0,0,1-1.35,1.61,11,11,0,0,1-3.29-.06,1,1,0,0,1-.89-1.08c0-1.36,0-2.73,0-4.09,0-.72.05-1.45,0-2.18a5.75,5.75,0,0,0-.36-1.58,1.52,1.52,0,0,0-1.48-.93c-1.61-.06-3.21-.08-4.82-.14a12.88,12.88,0,0,1-2.23-.23,3.06,3.06,0,0,1-2-1.23,4.21,4.21,0,0,1-.48-1.37,7,7,0,0,1-.14-1.37c0-1.23,0-2.46,0-3.68a3.75,3.75,0,0,1,.05-.47"/><path class="cls-2" d="M349.12,634c0-2.68,0-5.35-.05-8a18,18,0,0,1,.17-2.85,5.26,5.26,0,0,1,1.31-2.77c.81-.93,1.67-1.83,2.52-2.72q4.41-4.67,8.84-9.3c1-1,2-2,3-3,.25-.26.47-.54.72-.81.52-.55.41-1.27.48-1.93a8.42,8.42,0,0,0,0-.87l.1-.07a3.14,3.14,0,0,1,.68.43,2.8,2.8,0,0,1,.89,1.76,3.71,3.71,0,0,1-.41,1.87,6.56,6.56,0,0,1-1.38,1.68c-.93.93-1.83,1.89-2.73,2.85-1.08,1.13-2.16,2.26-3.22,3.41s-2.36,2.57-3.54,3.84a9.43,9.43,0,0,0-1.8,2.58,4.29,4.29,0,0,0-.43,1.84c0,1.25,0,2.51-.05,3.77a6.51,6.51,0,0,1-1.54,3.81q-1.59,2.14-3.2,4.27l-.25.3-.13,0"/><path class="cls-2" d="M426.78,649.22a1.58,1.58,0,0,1-1-.82,3,3,0,0,1,0-2.86c.25-.53.63-1,.92-1.51l2.24-3.91,2-3.41c.56-1,1.1-1.93,1.66-2.9s1.25-2.18,1.88-3.27l1.69-2.91,2-3.5c.45-.78.88-1.58,1.35-2.35s1-1.63,1.52-2.4a5.66,5.66,0,0,1,3.42-2.19,5,5,0,0,1,3.63.43,4.06,4.06,0,0,1,2.13,3,5.84,5.84,0,0,1,.17.81,3.91,3.91,0,0,1-.09,1c0,.09-.13.23-.2.23a.39.39,0,0,1-.27-.19,3.8,3.8,0,0,0-2.56-1.89,5.6,5.6,0,0,0-1.87,0,5.88,5.88,0,0,0-1.11.21,3.94,3.94,0,0,0-2.19,1.84q-7.56,12.27-15.09,24.55a1.33,1.33,0,0,0-.16.59c0,.49,0,1,0,1.51"/><path class="cls-2" d="M443.61,596.93a1.14,1.14,0,0,1,.84.33,3.21,3.21,0,0,1,1,1.86,3.39,3.39,0,0,1-.06,2,3.89,3.89,0,0,1-.75,1.28c-4.49,4.55-9,9.05-13.48,13.6a9.72,9.72,0,0,0-2,3.35,9.33,9.33,0,0,0-.7,3.62c0,4.79,0,9.57,0,14.35a1.33,1.33,0,0,1-.14.6c-.52.93-1.07,1.84-1.61,2.75a2.71,2.71,0,0,1-.18.25c0-.68,0-1.3,0-1.9s0-1,0-1.46c0-2.46,0-4.92.08-7.39,0-2.29.06-4.59.14-6.88a40,40,0,0,1,.34-4.23,6.91,6.91,0,0,1,1.62-3.47c1.29-1.54,2.67-3,4.11-4.42,1.89-1.85,3.71-3.77,5.56-5.65l4.14-4.21a3.46,3.46,0,0,0,1-1.9,11.16,11.16,0,0,0,0-1.92c0-.19,0-.37,0-.58"/><rect class="cls-2" x="349.31" y="650.92" width="26.81" height="2.97"/><rect class="cls-2" x="423.27" y="650.91" width="26.81" height="2.97"/><path class="cls-2" d="M372.73,649.06c-.66,0-1.32,0-2,0-.07,0-.19-.15-.19-.24,0-.87,0-1.75,0-2.63,0-1.47-.08-2.94-.14-4.41a1.28,1.28,0,0,0-1.2-1.07,1.34,1.34,0,0,1-1.36-1.47c0-1.68,0-3.36,0-5a2.31,2.31,0,0,1,.92-1.93,12.08,12.08,0,0,0,1.45-1.58,3.17,3.17,0,0,0,.47-1.76c.06-.88,0-1.77.16-2.65a2.33,2.33,0,0,1,.53-1.08c.39-.49.86-.9,1.29-1.35l.09.07Z"/><path class="cls-2" d="M381,566.53h1.18a1.06,1.06,0,0,0,1.11-.64c.24-.49.52-1,.78-1.44a2.07,2.07,0,0,1,2-1.24c1.52,0,3.05,0,4.58-.05a2.06,2.06,0,0,1,.5.13l-.86,1.59a6,6,0,0,0-.6,2.54,9.38,9.38,0,0,1-.18,1.76,2.83,2.83,0,0,1-1.94,1.93,4.26,4.26,0,0,1-1.7.29c-1.08,0-2.16,0-3.24,0a2.87,2.87,0,0,0-2.65,1.33s-.05.08-.08.09a1.13,1.13,0,0,1-.23,0c0-.6,0-1.2.11-1.78a1.59,1.59,0,0,1,1.42-1.27,4.26,4.26,0,0,1,.7-.07.79.79,0,0,0,.9-.67c.06-.22.06-.46.11-.79a1.44,1.44,0,0,1-1.78-.72,3.21,3.21,0,0,1-.11-1"/><path class="cls-2" d="M439.33,649.33c.78-1.24,1.51-2.42,2.26-3.59s1.61-2.64,2.51-3.89a7,7,0,0,1,3.64-2.79,8.34,8.34,0,0,1,2.64-.07v6.63c-.49,0-1,0-1.47,0a5,5,0,0,0-2.17.7,8,8,0,0,0-2.79,2.8c-.05.09-.16.19-.24.19h-4.38"/><path class="cls-2" d="M440.67,600.1a5.2,5.2,0,0,1-.39.5l-9.13,9c-.61.6-1.22,1.2-1.81,1.82a2.72,2.72,0,0,1-2,.89c-1.19,0-2.38.1-3.57.14-.39,0-.46,0-.43-.45.09-1.17.61-1.68,1.72-1.71a3.61,3.61,0,0,0,2-.4,8.51,8.51,0,0,0,1.07-.92c2.77-2.81,5.53-5.64,8.31-8.45a16.83,16.83,0,0,1,1.43-1.23,1.23,1.23,0,0,1,1.53-.1c.42.27.81.58,1.24.9"/><path class="cls-2" d="M448.9,637.3a2,2,0,0,0-.88-1.49,2.32,2.32,0,0,0-2.93.65l-5.25,8.33L437.18,649a.46.46,0,0,1-.45.25c-.62,0-1.25,0-1.94,0l1.39-2.26c1.91-3.13,3.84-6.26,5.75-9.39.7-1.15,1.37-2.31,2.07-3.46a3.76,3.76,0,0,1,2.57-1.87,3.1,3.1,0,0,1,3.6,2.34,2.61,2.61,0,0,1,0,1.44,1.62,1.62,0,0,1-1.25,1.23"/><path class="cls-2" d="M349.2,619.06c0-.12,0-.24,0-.35,0-2.37,0-4.73.08-7.09a2.62,2.62,0,0,1,1-1.89,4.6,4.6,0,0,1,2.21-1.14l.33-.05,6.15-.06h.1l.27.08a1,1,0,0,1-.12.25L357.11,611q-3.78,3.91-7.55,7.82a3,3,0,0,1-.26.24l-.1,0"/><path class="cls-2" d="M355,600.65l6.59,6.32a4.43,4.43,0,0,1-.71.11l-4.05,0c-1.31,0-2.61,0-3.92,0-.3,0-.38-.09-.38-.38,0-.89,0-1.78-.06-2.66a3,3,0,0,1,1.43-2.73c.36-.25.73-.47,1.1-.71"/><path class="cls-2" d="M437.19,596.6c-.27.25-.47.42-.66.61-2.65,2.61-5.3,5.24-8,7.84a1,1,0,0,1-.55.26c-1,.07-2.06.12-3.19.18l.3-.35,6.92-7c.49-.5.93-1,1.42-1.53a9.13,9.13,0,0,1,.95-.8,1.23,1.23,0,0,1,1.48-.08c.43.27.82.58,1.29.92"/><path class="cls-2" d="M421.77,601.92c.64-.66,1.22-1.28,1.81-1.88,1.46-1.47,2.94-2.92,4.39-4.4.84-.86,1.65-1.74,2.45-2.63a1.63,1.63,0,0,1,2.55-.13c.63.58.64.59,0,1.19-1.38,1.34-2.77,2.67-4.14,4-1.22,1.19-2.42,2.4-3.62,3.62a.78.78,0,0,1-.6.23c-.82,0-1.64,0-2.46,0h-.39"/><path class="cls-2" d="M363.07,605.44l-8.89-8.82a3.72,3.72,0,0,1,1.73-1.12,1.17,1.17,0,0,1,1,.31c.72.68,1.43,1.38,2.13,2.09,1.26,1.27,2.51,2.55,3.76,3.82a2.66,2.66,0,0,1,1,2.13,2.36,2.36,0,0,1-.77,1.59"/><path class="cls-2" d="M430.3,590.26l-.29.31-3.35,3.23c-1.06,1-2.1,2.1-3.16,3.14a.81.81,0,0,1-.49.19c-1,0-1.94,0-3,0l.25-.29c1-1,2-2,3-3s2.19-2.23,3.3-3.32a15.35,15.35,0,0,1,1.3-1.12,1,1,0,0,1,1.05-.15,2.39,2.39,0,0,1,1.38,1"/><path class="cls-2" d="M386.21,619.24a3.32,3.32,0,1,1-3.44-3.31,3.3,3.3,0,0,1,3.44,3.31m-3.33,2a2,2,0,0,0,2-2,2,2,0,0,0-2-2,1.91,1.91,0,0,0-1.91,2,2,2,0,0,0,2,2"/><path class="cls-2" d="M416.57,622.55a3.31,3.31,0,1,1,.16-6.62,3.31,3.31,0,0,1-.16,6.62m0-1.29a2,2,0,0,0,2-2,1.94,1.94,0,0,0-1.85-2,2.08,2.08,0,0,0-2.09,2,2,2,0,0,0,1.93,2"/><path class="cls-2" d="M369.38,595.24H369a18.82,18.82,0,0,0-2,0,1.8,1.8,0,0,1-1.59-.64c-1.39-1.39-2.8-2.76-4.22-4.13a.56.56,0,0,1-.14-.66,1.54,1.54,0,0,1,2.44-.5c.55.54,1.12,1.06,1.66,1.6,1.33,1.34,2.65,2.69,4,4l.24.27"/><path class="cls-2" d="M375.94,595.25h-3.15a.38.38,0,0,1-.25-.13l-4.85-4.7a.48.48,0,0,1-.05-.73,1.6,1.6,0,0,1,2.3-.33,10.62,10.62,0,0,1,1.21,1c1.56,1.56,3.1,3.14,4.65,4.71l.14.17"/><path class="cls-2" d="M365.16,597.48a2.18,2.18,0,0,0-1,2.27,1.92,1.92,0,0,1-.23-.19l-5.9-5.75c-.32-.31-.33-.37,0-.66a2.23,2.23,0,0,1,1.52-.83,1.71,1.71,0,0,1,1.25.62c1.41,1.46,2.8,2.92,4.2,4.38l.15.16"/><rect class="cls-2" x="374.54" y="618.15" width="3.27" height="2.14"/><path class="cls-2" d="M421.66,618.15H425c0,.67,0,1.33,0,2,0,.06-.1.17-.15.17h-3.13Z"/></svg>