<svg id="Layer_1" data-name="Layer 1" xmlns="http://www.w3.org/2000/svg" viewBox="0 0 793.7 1218.9"><defs><style>.cls-1{fill:#086961;}.cls-2{fill:#fff;}</style></defs><path class="cls-1" d="M469.19,678.61a54.77,54.77,0,0,1-10.47,8.6A50.3,50.3,0,0,1,441.05,694a43.5,43.5,0,0,1-8.24.48c-24.89,0-49.79,0-74.68-.07-9.15,0-17.42-3-25-8.17A48.32,48.32,0,0,1,317,668a44.8,44.8,0,0,1-5.2-20.77q.15-37.53,0-75.08a46.41,46.41,0,0,1,5.64-22.09,49.76,49.76,0,0,1,9.05-12c7.17-7.19,15.88-11.12,25.62-13.1a37.6,37.6,0,0,1,7.27-.56c25,0,50.06-.08,75.09,0a45.43,45.43,0,0,1,19.19,4.5,51,51,0,0,1,14.75,10.61,61.13,61.13,0,0,1,6.68,8.66l1.3,2.35a49.26,49.26,0,0,1,5.12,16.95,50.78,50.78,0,0,1,.32,5.22c0,23.83,0,47.66.05,71.49A53.33,53.33,0,0,1,477,667.14a30.17,30.17,0,0,1-4.61,7.54c-.15.26-.31.5-.46.76l0,0a19.65,19.65,0,0,0-2.77,3.2M316.66,609.49h-.05c0,9.85,0,19.69,0,29.53a102.3,102.3,0,0,0,.33,11.87,44.09,44.09,0,0,0,43.36,38.77q36.46.06,72.93,0a39.87,39.87,0,0,0,8.64-1c21.07-4.65,35.2-22.27,35.2-43.85q0-35.37,0-70.75A47.94,47.94,0,0,0,476,563.7a44,44,0,0,0-42.82-34.45q-35.88,0-71.74,0a51.94,51.94,0,0,0-8.27.68c-20.21,3.25-36.09,21.28-36.44,41.73-.21,12.61,0,25.23,0,37.84"/><path class="cls-1" d="M476.4,550.6c-.43-.78-.87-1.56-1.3-2.35,1.17-.24,1.77.37,2.16,1.4s-.26.92-.86,1"/><path class="cls-1" d="M324.49,609.66v36.27a30,30,0,0,0,.34,4.53,36.88,36.88,0,0,0,36.81,31.72c15,0,30,.12,45-.24,6.93-.17,13.87,0,20.81-.06a73.2,73.2,0,0,0,10.67-.43,37.07,37.07,0,0,0,31.13-36.37q0-35.76,0-71.54a33,33,0,0,0-.28-4.33,36.87,36.87,0,0,0-37.11-32.52q-35.46.12-70.93.33a37.89,37.89,0,0,0-5.51.44c-17.37,2.66-30.89,18.35-30.9,35.93q0,18.14,0,36.27"/><path class="cls-1" d="M324.49,609.66V573.39c0-17.58,13.53-33.27,30.9-35.93a37.89,37.89,0,0,1,5.51-.44q35.48-.18,70.93-.33a36.87,36.87,0,0,1,37.11,32.52,33,33,0,0,1,.28,4.33q0,35.78,0,71.54a37.07,37.07,0,0,1-31.13,36.37,73.2,73.2,0,0,1-10.67.43c-6.94.1-13.87-.11-20.81.06-15,.36-30,.2-45,.24a36.88,36.88,0,0,1-36.81-31.72,30,30,0,0,1-.34-4.53V609.66"/><path class="cls-2" d="M375.73,573.66l9.94-4.65,23.25,49.71L399,623.37l-23.26-49.71"/><path class="cls-2" d="M369.1,576.76l23.25,49.71-9.93,4.65q-11.64-24.86-23.26-49.71l9.94-4.65"/><path class="cls-2" d="M394.47,639.62l2.33,5,13.25-6.2c-.77-1.66-1.54-3.29-2.32-5l11.6-5.43c3.51,7.49,7,15,10.52,22.48H385.8a.53.53,0,0,1-.57-.37c-.72-1.57-1.46-3.13-2.19-4.7l-.16-.36,11.59-5.43"/><rect class="cls-2" x="378.07" y="652.33" width="58.47" height="3.58"/><path class="cls-2" d="M355.17,577.18l-1.54-3.27,11.59-5.43-2.32-5,6.62-3.09,2.33,5L383.44,560c.52,1.09,1,2.17,1.54,3.28l-11.59,5.42-.77-1.63-6.62,3.1c.25.55.49,1.08.75,1.63l-11.58,5.42"/><path class="cls-2" d="M382.09,643.39c-.52-1.11-1-2.19-1.55-3.31l14.91-7,1.56,3.31-14.92,7"/><path class="cls-2" d="M417,623l1.55,3.31-14.91,7c-.51-1.1-1-2.19-1.55-3.31L417,623"/><path class="cls-2" d="M393.14,628.16l1.54,3.28-15,7c0-.11,0-.17,0-.24,0-1.2.08-2.41.14-3.62a.41.41,0,0,1,.2-.32l13-6.1h.09"/><path class="cls-2" d="M401.31,628.34l-1.54-3.3.36-.19L412.71,619a.47.47,0,0,1,.58.07c.86.7,1.74,1.38,2.61,2.07l.31.27-14.9,7"/><path class="cls-2" d="M357.61,578.1l9.93-4.65.78,1.64-9.94,4.65c-.26-.55-.51-1.07-.77-1.64"/><path class="cls-2" d="M384.11,565.69l.77,1.65L375,572l-.77-1.65,9.93-4.65"/><path class="cls-2" d="M376.33,581.45l-1.64.77c-.52-1.1-1-2.19-1.55-3.31l1.64-.77,1.55,3.31"/></svg>