<svg id="Layer_1" data-name="Layer 1" xmlns="http://www.w3.org/2000/svg" viewBox="0 0 793.7 1218.9"><defs><style>.cls-1{fill:#086961;}.cls-2{fill:#fff;}</style></defs><path class="cls-1" d="M495.91,711.91a55.14,55.14,0,0,1-10.48,8.6,50.25,50.25,0,0,1-17.66,6.77,43.5,43.5,0,0,1-8.24.48c-24.9,0-49.79,0-74.69-.06-9.14-.05-17.41-3-25-8.18a48.32,48.32,0,0,1-16.13-18.21,44.8,44.8,0,0,1-5.2-20.77q.15-37.53,0-75.08a46.15,46.15,0,0,1,5.64-22.09,49.72,49.72,0,0,1,9-12c7.17-7.19,15.89-11.12,25.62-13.1a36.87,36.87,0,0,1,7.28-.56c25,0,50.06-.08,75.08,0a45.48,45.48,0,0,1,19.2,4.5,50.59,50.59,0,0,1,14.74,10.61,60.4,60.4,0,0,1,6.68,8.66l1.31,2.35a49.46,49.46,0,0,1,5.11,17,50.62,50.62,0,0,1,.33,5.22c0,23.83-.05,47.66,0,71.49a53.33,53.33,0,0,1-4.87,22.88,30.21,30.21,0,0,1-4.62,7.54l-.45.76v0a20.08,20.08,0,0,0-2.76,3.2M343.37,642.79h0c0,9.85,0,19.69,0,29.53a107,107,0,0,0,.33,11.87A44.1,44.1,0,0,0,387,723q36.46.06,72.93,0a40.4,40.4,0,0,0,8.63-1c21.07-4.66,35.21-22.28,35.21-43.86V607.4a48.56,48.56,0,0,0-1.12-10.4,44,44,0,0,0-42.83-34.45q-35.87,0-71.74,0a50.89,50.89,0,0,0-8.27.68c-20.21,3.25-36.09,21.28-36.44,41.73-.21,12.61,0,25.23,0,37.84"/><path class="cls-1" d="M503.12,583.9l-1.31-2.35c1.18-.24,1.78.37,2.17,1.39s-.26.93-.86,1"/><path class="cls-1" d="M351.21,643v36.26a30.06,30.06,0,0,0,.33,4.54,36.88,36.88,0,0,0,36.81,31.72c15,0,30,.12,45-.24,6.93-.17,13.87,0,20.81-.06a73.31,73.31,0,0,0,10.67-.43,37.05,37.05,0,0,0,31.12-36.37q0-35.76,0-71.54a33.3,33.3,0,0,0-.29-4.34A36.86,36.86,0,0,0,458.55,570q-35.46.12-70.93.32a37.92,37.92,0,0,0-5.52.44c-17.36,2.67-30.89,18.36-30.89,35.94q0,18.13,0,36.27"/><path class="cls-1" d="M351.2,643V606.69c0-17.58,13.54-33.27,30.9-35.94a37.92,37.92,0,0,1,5.52-.44q35.46-.18,70.93-.32a36.86,36.86,0,0,1,37.1,32.51,33.3,33.3,0,0,1,.29,4.34q0,35.77,0,71.54a37.05,37.05,0,0,1-31.12,36.37,73.39,73.39,0,0,1-10.68.43c-6.93.1-13.87-.11-20.8.06-15,.36-30,.2-45,.24a36.89,36.89,0,0,1-36.82-31.72,30.07,30.07,0,0,1-.34-4.54V643"/><path class="cls-2" d="M447.11,672.16c-1.62,0-3.19,0-4.75,0a2.72,2.72,0,0,0-2.86,2.58c-.05.35-.1.7-.14,1-.63,0-1.23,0-1.81.09a2.22,2.22,0,0,0-1.84,1.93,5.06,5.06,0,0,0-.09,1.1c0,.24,0,.47,0,.73h-3a13.75,13.75,0,0,0-1.7,0,3.26,3.26,0,0,0-2.56,2.62c0,.3-.08.61-.12,1h-2.56l-4.84,0-8.19.08c-.75,0-1.49,0-2.24,0s-.7-.08-.7-.71q0-6.39,0-12.79a3,3,0,0,1,.89-2.15q4.77-5,9.52-9.94a.89.89,0,0,1,.7-.3l12.64-.16a6,6,0,0,1,3.31.82,2.36,2.36,0,0,1,.48.35q4.63,4.72,9.26,9.45a1.71,1.71,0,0,1,.57,1.38c-.05.93,0,1.88,0,2.86"/><path class="cls-2" d="M443.31,683.27c1.09-1.12,2.16-2.26,3.28-3.35s2.51-2.45,3.82-3.6a1,1,0,0,0,.35-1,3.13,3.13,0,0,1,2.31-3,2.27,2.27,0,0,1,.78,0c.34,0,.47-.1.5-.42,0-.5.08-1,.14-1.48a2.16,2.16,0,0,1,2-1.77c.42,0,.84,0,1.26-.07.22,0,.35-.09.36-.36a10.33,10.33,0,0,1,.16-1.47,2.38,2.38,0,0,1,2-1.74c1.63-.1,3.27-.15,4.9-.22h.43v-7.25c.66,0,1.25-.06,1.84-.07,1,0,2.06,0,3.09,0a3,3,0,0,1,2.42,1.36l.07.08c.2-.21.39-.42.59-.62a2.83,2.83,0,0,1,2.07-.93c1.24,0,2.48,0,3.72,0a2.88,2.88,0,0,0,.41,0c.38,0,.45.14.45.48,0,3.9.06,7.8.09,11.7,0,.71,0,1.42,0,2.13,0,.12,0,.24,0,.38a3.52,3.52,0,0,0-2.79.91,4,4,0,0,0-.81,2.77c-.63.07-1.24.09-1.83.21a1.88,1.88,0,0,0-1.51,1.34,16.1,16.1,0,0,0-.36,2,3.39,3.39,0,0,0,0,.35c-.64.07-1.27.17-1.89.22a2,2,0,0,0-1.78,2c0,.39,0,.79-.08,1.18,0,.11-.16.2-.25.28s-.1,0-.15,0l-25.17.08h-.32Z"/><path class="cls-2" d="M432.07,644a3,3,0,0,1,1.54-1.37,1.26,1.26,0,0,1,.54-.1c1.15,0,2.31.07,3.46.15a2.92,2.92,0,0,1,1.82,1c.19-.26.39-.53.61-.79a1.16,1.16,0,0,1,1-.41,6.84,6.84,0,0,1,3.17.45,3.59,3.59,0,0,1,.89.58l12.25,11.57a2.3,2.3,0,0,1,.66,1.38c0,.32.06.64.09,1h-3.75c0,.19,0,.34,0,.48v6.26c0,.49,0,.5-.51.51s-.71.06-1.07.06a4.22,4.22,0,0,1-1-.08,4.76,4.76,0,0,1-2.42-1.28q-4.85-4.8-9.79-9.51a6.74,6.74,0,0,0-2.33-1.6,3.73,3.73,0,0,0-1.09-.19c-.87,0-1.74.06-2.6,0a1.34,1.34,0,0,0-1.33,1.07c-.12.3-.23.24-.39.07l-.94-1a1.29,1.29,0,0,0-1-.42c-.94,0-1.89,0-2.83,0A2.55,2.55,0,0,0,425,653l-.37.44c-.28-.46-.54-.88-.79-1.31-.39-.66-.79-1.31-1.15-2a.65.65,0,0,1,0-.53c.45-.86.93-1.71,1.42-2.55s.91-1.61,1.43-2.37a10.51,10.51,0,0,1,1.31-1.52,2.25,2.25,0,0,1,1.75-.67,13.48,13.48,0,0,1,1.56,0,2.53,2.53,0,0,1,2,1.44"/><path class="cls-2" d="M452.56,627.57h-3.34c-1.28,0-2.56,0-3.84,0-.31,0-.42-.12-.42-.42,0-2.84.05-5.67.08-8.5,0-1.28,0-2.56,0-3.84,0-.32.12-.37.39-.37h29.6v13.1H459.56v-9.39H453c-.31,0-.46.12-.46.47q0,4.21,0,8.43v.53"/><path class="cls-2" d="M469.56,649.79v3.1c0,.12,0,.23,0,.34-.05.5-.08.52-.59.52h-5.48l-1.26,0-.32-.05a5.43,5.43,0,0,0-.52-2.84,1.93,1.93,0,0,0-1.68-.88l-1.45-.09c0-.43,0-.86-.09-1.29a2.32,2.32,0,0,0-2.37-2.2l-1.44-.15a.6.6,0,0,1-.25-.13l-3.45-3.46s0-.07-.05-.16h29.7v7.33Z"/><path class="cls-2" d="M419.57,647.21c-.77.83-1.58,1.71-2.4,2.57a.52.52,0,0,1-.34.08H368.69c0-.93,0-1.82,0-2.71,0-.08.16-.21.26-.24a6.55,6.55,0,0,0,2.63-1.39,2.6,2.6,0,0,0,.5-.68.43.43,0,0,1,.72-.05,4.85,4.85,0,0,0,3.13,2.09,6.81,6.81,0,0,0,5.75-.9,5.14,5.14,0,0,0,1.06-1.12.57.57,0,0,1,.91,0,4,4,0,0,0,1.8,1.55,6.85,6.85,0,0,0,4.07.7,6.39,6.39,0,0,0,3.21-1.31,3.32,3.32,0,0,0,.88-1,.42.42,0,0,1,.67,0,4.87,4.87,0,0,0,3.12,2.1A6.49,6.49,0,0,0,403,646a5.17,5.17,0,0,0,1.08-1.15c.17-.2.58-.27.71,0a4.72,4.72,0,0,0,3,2.07,6.89,6.89,0,0,0,5.93-.88,5.65,5.65,0,0,0,1.07-1.16c.18-.21.57-.25.7,0a3.63,3.63,0,0,0,1.88,1.6c.72.31,1.47.54,2.21.8"/><path class="cls-2" d="M456.51,633.16c0-1,0-2,0-2.94,0-.26.07-.34.34-.34l8.2-.07,11.7-.07a.45.45,0,0,1,.33.13c1,1.67,2,3.35,3.06,5,0,0,0,.05,0,0-1.42.07-2.86.09-4.29.21a3,3,0,0,0-2.19,1.39c-.12.16-.26.31-.42.51-.32-.34-.61-.64-.88-1a2.74,2.74,0,0,0-2.15-1c-.88,0-1.75-.09-2.63-.13a2.45,2.45,0,0,0-2.1,1.06.7.7,0,0,1-.38.2c-.7.09-1.41.11-2.09.24a1.62,1.62,0,0,0-1.29,1.57c0,.21-.05.42-.07.64H450.54v-2h1.94v-3c0-.47,0-.48.48-.48h3.55"/><path class="cls-2" d="M387.74,597.79a7.35,7.35,0,1,1,7.35,7.37,7.33,7.33,0,0,1-7.35-7.37"/><path class="cls-2" d="M368.69,661.13c0-1,0-1.9,0-2.82a.39.39,0,0,1,.24-.29,6.58,6.58,0,0,0,2.66-1.41,3.11,3.11,0,0,0,.49-.68.41.41,0,0,1,.71-.07A4.85,4.85,0,0,0,376,658a6.76,6.76,0,0,0,5.74-.92,2.54,2.54,0,0,0,1.08-1.14.54.54,0,0,1,.87-.07,4.43,4.43,0,0,0,2.81,2,6.8,6.8,0,0,0,6-.8,2.94,2.94,0,0,0,1.13-1.19.4.4,0,0,1,.69,0,4.88,4.88,0,0,0,3.17,2.14,6.42,6.42,0,0,0,5.49-.93,5.41,5.41,0,0,0,1.1-1.18c.18-.22.58-.3.71,0a4.72,4.72,0,0,0,3,2.08,10.34,10.34,0,0,0,3.57.6,5.28,5.28,0,0,1,.62.08c-.72.83-1.4,1.63-2.1,2.42a.67.67,0,0,1-.44.11H368.69Z"/><path class="cls-2" d="M475.12,612.71H472.9q-14.65,0-29.3,0c-.33,0-.49-.07-.45-.44s0-.72.05-1.08c0-.74.48-1,1.1-1,.88-.09,1.77-.15,2.66-.23a.58.58,0,0,0,.32-.16c.61-.63,1.23-1.26,1.83-1.91a1.62,1.62,0,0,1,1.31-.46H465a3.18,3.18,0,0,1,1,0,8.28,8.28,0,0,1,1.92.92,3.56,3.56,0,0,0,2.38.66,20.47,20.47,0,0,1,2.35,0,2.44,2.44,0,0,1,2.31,1.44,2.13,2.13,0,0,1,.13.76c0,.47,0,.94,0,1.51"/><path class="cls-2" d="M404.05,672.24H368.69c0-1,0-1.91,0-2.85,0-.07.11-.18.19-.22.53-.22,1.09-.39,1.61-.65a3.38,3.38,0,0,0,1.61-1.47c.17-.33.5-.36.69,0a4.77,4.77,0,0,0,2.73,2,6.66,6.66,0,0,0,4.07.16,6,6,0,0,0,2.7-1.42,3.22,3.22,0,0,0,.47-.67.49.49,0,0,1,.89,0,4.53,4.53,0,0,0,2.46,1.86,6.9,6.9,0,0,0,6.61-.89,3.26,3.26,0,0,0,.91-1,.36.36,0,0,1,.65,0,3.45,3.45,0,0,0,1.17,1.23,6.85,6.85,0,0,0,3.92,1.13,6.64,6.64,0,0,0,4.09-1.55,3.18,3.18,0,0,0,.3-.33l.28-.36Z"/><path class="cls-2" d="M403.86,683.34H368.69c0-.92,0-1.81,0-2.7,0-.07.14-.17.24-.22.69-.32,1.4-.59,2.07-1a2.62,2.62,0,0,0,1.15-1.22.32.32,0,0,1,.59,0,5,5,0,0,0,3.54,2.28,6.38,6.38,0,0,0,4.55-.54,10.23,10.23,0,0,0,1.43-.92,2.72,2.72,0,0,0,.5-.69c.25-.4.65-.43.87,0a4.57,4.57,0,0,0,2.45,1.87,6.92,6.92,0,0,0,6.62-.86,3.27,3.27,0,0,0,1-1.11.33.33,0,0,1,.58,0,5.06,5.06,0,0,0,3.54,2.28A6.25,6.25,0,0,0,402,680a5.69,5.69,0,0,0,1.88-1.33Z"/><path class="cls-2" d="M438.23,636.59v1.61c0,.51,0,.53-.52.55l-1.93.06a.34.34,0,0,1-.17-.07l2.11-8.91h7.06v3.54h-3.33c0,.93,0,1.8,0,2.68,0,.36-.09.55-.5.55-.89,0-1.78,0-2.72,0"/></svg>