<svg id="Layer_1" data-name="Layer 1" xmlns="http://www.w3.org/2000/svg" viewBox="0 0 793.7 1218.9"><defs><style>.cls-1{fill:#086961;}.cls-2{fill:#fff;}</style></defs><path class="cls-1" d="M491.76,703.38a55.14,55.14,0,0,1-10.48,8.6,50.25,50.25,0,0,1-17.66,6.77,44.35,44.35,0,0,1-8.24.48c-24.9,0-49.79,0-74.69-.07-9.15,0-17.42-3-25-8.17a48.32,48.32,0,0,1-16.13-18.21,44.8,44.8,0,0,1-5.2-20.77q.15-37.54,0-75.08A46.26,46.26,0,0,1,340,574.84a49.76,49.76,0,0,1,9.05-12c7.17-7.19,15.89-11.13,25.62-13.11a36.86,36.86,0,0,1,7.28-.55c25,0,50.06-.08,75.08,0a45.36,45.36,0,0,1,19.2,4.5A50.74,50.74,0,0,1,491,564.35a60.49,60.49,0,0,1,6.68,8.67c.44.78.87,1.57,1.3,2.35a49.2,49.2,0,0,1,5.12,17,50.61,50.61,0,0,1,.32,5.22c0,23.83,0,47.66.05,71.49a53.19,53.19,0,0,1-4.88,22.88,30.06,30.06,0,0,1-4.61,7.54l-.45.75v0a20.08,20.08,0,0,0-2.76,3.2M339.22,634.26h-.05c0,9.84,0,19.69,0,29.53a107,107,0,0,0,.33,11.87,44.12,44.12,0,0,0,43.36,38.77q36.47.06,72.93,0a39.87,39.87,0,0,0,8.64-1c21.07-4.65,35.21-22.27,35.21-43.85V598.87a47.81,47.81,0,0,0-1.13-10.4A44,44,0,0,0,455.71,554q-35.86,0-71.74,0a50.89,50.89,0,0,0-8.27.68c-20.21,3.24-36.09,21.28-36.44,41.72-.21,12.62,0,25.24,0,37.85"/><path class="cls-1" d="M347.05,634.43v36.26a29.94,29.94,0,0,0,.34,4.53A36.89,36.89,0,0,0,384.2,707c15,0,30,.12,45-.24,6.93-.17,13.87,0,20.8-.06a73.39,73.39,0,0,0,10.68-.43,37.06,37.06,0,0,0,31.12-36.37V598.31a31.63,31.63,0,0,0-.28-4.34,36.87,36.87,0,0,0-37.1-32.51q-35.47.1-70.93.32a37.92,37.92,0,0,0-5.52.44c-17.36,2.66-30.89,18.36-30.9,35.94v36.27"/><path class="cls-1" d="M347.05,634.43V598.16c0-17.58,13.54-33.28,30.9-35.94a37.92,37.92,0,0,1,5.52-.44q35.46-.18,70.93-.32A36.86,36.86,0,0,1,491.5,594a33.29,33.29,0,0,1,.28,4.34v71.54a37.07,37.07,0,0,1-31.12,36.37,73.39,73.39,0,0,1-10.68.43c-6.93.1-13.87-.11-20.81.06-15,.36-30,.2-45,.24a36.89,36.89,0,0,1-36.81-31.73,29.94,29.94,0,0,1-.34-4.53V634.43"/><path class="cls-2" d="M454.36,611.65c1.71,3.71,3.49,7.35,3.48,11.52a7.28,7.28,0,0,1-4.09,6.67,20.2,20.2,0,0,1-6.33,1.83,51.43,51.43,0,0,1-10.11.52V616.63l4.84.43a10.2,10.2,0,0,0,1.73.15,2.3,2.3,0,0,1,2,1.07c.87,1,1.82,2,2.74,3,.15.17.31.4.5.43a1.81,1.81,0,0,0,1.09-.08c.4-.26.19-.71-.06-1a5.86,5.86,0,0,0-.93-.86,5.56,5.56,0,0,1-2.43-3.09,16.62,16.62,0,0,1-.2-2.65c0-.12.21-.33.36-.37,2.43-.68,4.86-1.34,7.41-2"/><path class="cls-2" d="M383.11,611.65c2.49.68,4.9,1.34,7.32,2,.35.1.41.28.44.61a5.48,5.48,0,0,1-2.61,5.5,5.67,5.67,0,0,0-.89.81c-.32.32-.52.73-.15,1.12a.82.82,0,0,0,1.21,0c.6-.56,1.17-1.16,1.73-1.77s1.18-1.39,1.82-2a1.69,1.69,0,0,1,.92-.54c2.26-.24,4.53-.42,6.79-.62h.42v15.45a1.81,1.81,0,0,1-.34.08,45.19,45.19,0,0,1-13.6-1.37,8.85,8.85,0,0,1-5.63-4,8.09,8.09,0,0,1-.86-5.39,31.83,31.83,0,0,1,3.43-9.79"/><path class="cls-2" d="M435.77,614.36H431.6v-.73c0-1.32,0-2.64-.11-4a11.3,11.3,0,0,0-2.92-6.14c-1.27-1.55-2.65-3-3.94-4.56-.6-.72-1.09-1.53-1.64-2.28-.71-1-1.37-2-2.16-2.9a3,3,0,0,0-4.76.46,47.4,47.4,0,0,1-5.82,7.58,14.72,14.72,0,0,0-4.33,10c0,.81,0,1.61,0,2.47h-4.18c-.48-3.88-.16-7.61,2.29-10.84,2.25-3,4.6-5.87,6.9-8.79l5.94-7.52a4.47,4.47,0,0,1,.35-.41,1.79,1.79,0,0,1,3,0c.66.75,1.21,1.6,1.84,2.38q3,3.6,5.93,7.17a50.61,50.61,0,0,1,6.22,8.62,11.43,11.43,0,0,1,1.54,5.83c0,1.16,0,2.32,0,3.56"/><path class="cls-2" d="M404.51,652.27l4.17-.69v2.72a12,12,0,0,0,1,5,9.22,9.22,0,0,0,8.15,5.74,9.76,9.76,0,0,0,7.35-2.23,10,10,0,0,0,3.51-7.2c.09-1.3,0-2.62,0-4l4.36.72a49.65,49.65,0,0,1-.41,6.62,18.34,18.34,0,0,1-2.26,6.12,12.45,12.45,0,0,1-3.1,3.62,17.63,17.63,0,0,1-2.91,1.63,24.52,24.52,0,0,1-3.11,1.23,8.51,8.51,0,0,1-6.14-.37c-1.55-.67-3-1.56-4.57-2.21a6.54,6.54,0,0,1-2.75-2.45,18.28,18.28,0,0,1-2.56-5.9,26.21,26.21,0,0,1-.73-7.89v-.42"/><path class="cls-2" d="M402.73,658c.63,2,1.2,3.89,1.8,5.76a4.3,4.3,0,0,0,.53,1.22,1.41,1.41,0,0,1-.2,2.13c-1,.95-2,1.94-3.05,2.9a1,1,0,0,1-1,.17c-1.33-.25-2.67-.43-4-.57a.71.71,0,0,0-.81.71c0,.52.31.7.76.75a5.93,5.93,0,0,0,.59.07,8.81,8.81,0,0,1,5.73,2.41c.27.23.42.42.23.79-1.08,2.06-2.13,4.12-3.19,6.19-.43.84-.47.87-1.32.5a24.15,24.15,0,0,1-8.34-5.48,15.21,15.21,0,0,1-2.08-3.09,3.62,3.62,0,0,1,.26-3.76,17.51,17.51,0,0,1,4.4-4.64,47.53,47.53,0,0,1,7.9-5c.4-.2.76-.47,1.15-.7.22-.12.45-.22.7-.34"/><path class="cls-2" d="M433.75,673.56a25.1,25.1,0,0,1,7.18-2.76c.57-.11.66-.37.66-.85s-.32-.73-.79-.64c-1.37.25-2.74.52-4.11.84-.39.09-.73.19-1-.12q-1.84-1.89-3.67-3.79c-.29-.29-.19-.57,0-.9.62-1.26,1.25-2.52,1.77-3.82a13.62,13.62,0,0,0,.5-2.21c.09-.43.18-.86.27-1.34.91.47,1.74.87,2.56,1.31a42.32,42.32,0,0,1,8.35,5.66,25.16,25.16,0,0,1,2.81,3c1.55,1.95,1.38,4,.16,6.06a13.07,13.07,0,0,1-4.85,4.52c-1.63,1-3.37,1.73-5.06,2.59a.59.59,0,0,1-.9-.26l-3.81-7.32"/><path class="cls-2" d="M407.43,614.4a13.43,13.43,0,0,1,3-10.53c1-1.29,2.34-2.33,3.4-3.59s2-2.72,3-4.09c.25-.34.41-.75.67-1.08a1.48,1.48,0,0,1,2.48.11c.61,1,1.17,1.95,1.75,2.93a37,37,0,0,0,4.29,5.22,41.35,41.35,0,0,1,2.93,3.9,6.82,6.82,0,0,1,1.09,4c0,1,0,2,0,3.18h-3.1c-.53,0-1.21.17-1.56-.09s-.29-1-.41-1.47a21.11,21.11,0,0,0-4-8.44,3.84,3.84,0,0,0-.57-.57c-1.44-1.17-2.33-1.15-3.55.26a20.14,20.14,0,0,0-4.5,9.73c-.08.44-.2.6-.66.59-1.42,0-2.85,0-4.22,0"/><path class="cls-2" d="M418.89,647.87c1.87,0,3.75,0,5.63,0a.69.69,0,0,1,.81.57,10.79,10.79,0,0,0,.55,1.72,2,2,0,0,0,.71,1,1.33,1.33,0,0,1,.63,1.46,26.63,26.63,0,0,1-.34,4.58,8.36,8.36,0,0,1-13,4.91,8.49,8.49,0,0,1-3.68-6.95c0-1,0-2.06,0-3.08,0-.19.11-.48.25-.54a3.46,3.46,0,0,0,1.84-2.79c.14-.68.42-.85,1.07-.84,1.83,0,3.66,0,5.5,0Zm-3.07,7.8a15.74,15.74,0,0,1,2.12.66,1.67,1.67,0,0,0,1.75-.08,3.8,3.8,0,0,1,1.17-.36,4.8,4.8,0,0,1,.76,0,1.45,1.45,0,0,0-.86-1.45,1,1,0,0,0-1.26.21c-.55.55-1.08.37-1.6-.07a1,1,0,0,0-1.29-.13c-.47.31-.88.69-.79,1.22m4.32-2.75h4.35a2.32,2.32,0,0,0-2.34-2.2,2.18,2.18,0,0,0-2,2.2m-7.19,0h4.35a2.19,2.19,0,0,0-2-2.19,2.35,2.35,0,0,0-2.31,2.19m2.1,5.74h7.23c-1.49-1.37-3.27-.91-4.92-.95a3.46,3.46,0,0,0-2.31.95m5.17,1.4h-3c.21.89.63,1.15,1.72,1.11a1.17,1.17,0,0,0,1.3-1.11"/><path class="cls-2" d="M422.26,630c-1.23-.56-2.21-1.35-3.56-1.36s-2.31.85-3.5,1.34c-.24-2.2-.49-4.32-.7-6.44-.23-2.41-.44-4.83-.67-7.25a12.41,12.41,0,0,1,.63-4.61,15.43,15.43,0,0,1,3.27-6.24c.79-.88,1.19-.87,2,0a16.46,16.46,0,0,1,3.93,10,25.92,25.92,0,0,1-.34,4.19c-.33,3.4-.68,6.81-1,10.35"/><path class="cls-2" d="M435.76,632.94H433c-1.26,0-2.51,0-3.76,0a1.22,1.22,0,0,1-.76-.3,3.61,3.61,0,0,0-4-.88l-.32.1s0,0-.15,0c.06-.88.11-1.78.17-2.68l.63-8.73c.1-1.37.18-2.75.31-4.13,0-.14.23-.39.36-.39,3.37,0,6.75,0,10.12,0,0,0,0,0,.12.08Z"/><path class="cls-2" d="M401.69,615.88h.93c3,0,6,0,9,0,.51,0,.67.12.71.66.17,2.89.4,5.78.61,8.66.16,2.09.3,4.17.45,6.26a1.16,1.16,0,0,1,0,.27,12,12,0,0,0-2.45-.12,4.58,4.58,0,0,0-1.81.92A1.75,1.75,0,0,1,408,633c-1.86,0-3.71,0-5.57,0l-.71,0Z"/><path class="cls-2" d="M434.49,652.71c.92.34,1.84.67,2.75,1a38.3,38.3,0,0,1,11.95,7.13,17.33,17.33,0,0,1,4,5.13,3.17,3.17,0,0,1-1.61,4.64c-.45-.85-.87-1.73-1.36-2.56a21.76,21.76,0,0,0-7-7.08,67.57,67.57,0,0,0-7.47-4.19,1.81,1.81,0,0,1-1.29-2c0-.64,0-1.28,0-2"/><path class="cls-2" d="M385.82,670.49a3,3,0,0,1-1.68-4.32,16.89,16.89,0,0,1,4.26-5.45,39,39,0,0,1,13.6-7.8c.14,0,.29-.07.46-.12.05,1.07.12,2.09.12,3.11,0,.16-.25.4-.44.49A46.52,46.52,0,0,0,392,662.64a21,21,0,0,0-6.06,7.64,1.37,1.37,0,0,1-.15.21"/><path class="cls-2" d="M384.14,663.39l-1.74,3.1c0,.06-.07.11-.13.21-1.27-1-2.5-1.89-3.71-2.82l-14.78-11.33s-.08,0-.1-.08l-.62-.91a3.54,3.54,0,0,1,1.22-.31,19.6,19.6,0,0,1,7.42,2.91c1,.61,2,1.28,3,1.86a3.6,3.6,0,0,0,1.42.46,1.85,1.85,0,0,1,1.24.53c2.23,2.12,4.48,4.23,6.76,6.38"/><path class="cls-2" d="M416.15,692.52a12.09,12.09,0,0,1-7.16-3.46,8.64,8.64,0,0,1-1.42-2.56c-1.57-3.68-1.49-2.45-.09-5.93.39-1,.86-1.86,1.27-2.8a.73.73,0,0,1,.9-.48,3.82,3.82,0,0,1,2.61,1.73c.62.87,1.1,1.84,1.69,2.73s1.38,2,2,3c.17.26.34.84.25.9a1.59,1.59,0,0,1-1.07.34,3.64,3.64,0,0,1-2.55-1.9c-.07-.11-.11-.24-.18-.36-.21-.31-.42-.79-.85-.49a1.2,1.2,0,0,0-.46,1,11.1,11.1,0,0,0,1.22,2.72c1,1.54,2.29,2.79,4.33,2.89a1.27,1.27,0,0,1,1.27,1.49c-.08.75-.65,1.19-1.8,1.16"/><path class="cls-2" d="M421,692.52a1.29,1.29,0,0,1-1.49-1.11,1.32,1.32,0,0,1,1.27-1.56,7.51,7.51,0,0,0,5.84-5.56c.17-.84-.12-1.41-.73-1.45a.64.64,0,0,0-.74.48,4.36,4.36,0,0,1-2,2.33,1.32,1.32,0,0,1-.69.25,11.84,11.84,0,0,1-1.29-.27,6.94,6.94,0,0,1,.41-1c1-1.55,1.94-3.09,3-4.61a7.85,7.85,0,0,1,1.49-1.79,6.21,6.21,0,0,1,1.9-.87.79.79,0,0,1,.66.36c.82,1.84,1.61,3.68,2.38,5.54a.86.86,0,0,1,0,.63c-.61,1.46-1.2,2.93-1.9,4.35s-2.24,2.34-3.69,3.07a11,11,0,0,1-4.35,1.26"/><path class="cls-2" d="M428.7,649.77c-1.21.24-1.37.16-1.72-.89-.22-.67-.48-1.34-.66-2a.55.55,0,0,0-.64-.5c-1.56,0-3.13-.06-4.69-.06-3,0-6.08.05-9.11,0-.58,0-.7.25-.77.74-.11.69-.31,1.35-.46,2a.9.9,0,0,1-1.16.77,5.44,5.44,0,0,0-.7,0c0-1.15,0-2.23,0-3.32,0-.91-.06-1.82-.1-2.73,0-.55.27-.8,1-.8H416l11.52,0c1.07,0,1.16.12,1.15,1.2,0,1.85,0,3.7,0,5.54"/><path class="cls-2" d="M418.77,641.5h-9.53c-1.46,0-1.91-.45-1.91-1.94,0-.64,0-1.29,0-1.94,0-.17.13-.43.24-.46a.57.57,0,0,1,.51.2c.42.89,1.21.85,2,.85h17.44c.66,0,1.44.18,1.71-.77a.52.52,0,0,1,.49-.19.57.57,0,0,1,.29.44,27.65,27.65,0,0,1,0,2.88,1.24,1.24,0,0,1-.67.79,2.58,2.58,0,0,1-1.12.13h-9.45"/><path class="cls-2" d="M455.1,666.33l-1.38-2.74,5.77-5.4c.41-.38.85-.73,1.24-1.12a1.69,1.69,0,0,1,1.36-.59,1.41,1.41,0,0,0,.72-.3A37.45,37.45,0,0,1,470,652.1c1.05-.38,2.15-.59,3.23-.88a.74.74,0,0,1,.39,0c.26.09.51.23.76.34-.13.24-.19.56-.39.71-1.52,1.16-3.07,2.3-4.61,3.44l-13.93,10.37c-.1.08-.21.14-.37.25"/><path class="cls-2" d="M453,662.05l-2.75-2.76c.78-1,1.57-2,2.4-3,1.07-1.25,2.17-2.49,3.28-3.71a1,1,0,0,1,.67-.34,1.76,1.76,0,0,0,1.25-.51,30.41,30.41,0,0,1,8.89-4.72,4,4,0,0,1,1.3,0l.06.2L453,662.05"/><path class="cls-2" d="M428.82,585.47a16,16,0,0,1,6.38,2.7,1.22,1.22,0,0,1,.46.85c-.4,4.08-.85,8.14-1.29,12.31A2.89,2.89,0,0,1,434,601c-1.65-2-3.3-4.11-4.93-6.17a1.39,1.39,0,0,1-.31-.78c0-2.64,0-5.28,0-7.91,0-.2.05-.39.08-.66"/><path class="cls-2" d="M408.75,585.56c0,.52-.07,1-.07,1.44,0,2.29,0,4.6,0,6.9a1.47,1.47,0,0,1-.26.85c-1.68,2.14-3.39,4.26-5.09,6.38l-.24.2c-.14-1.2-.27-2.33-.39-3.46-.32-3-.62-5.93-.95-8.89-.07-.54,0-.84.59-1,1.88-.7,3.74-1.45,5.61-2.18.23-.08.47-.12.81-.2"/><path class="cls-2" d="M418.83,682.39a4.65,4.65,0,1,1,4.62-4.67,4.62,4.62,0,0,1-4.62,4.67"/><path class="cls-2" d="M369.43,647a4.09,4.09,0,0,1,1.31,0A25.83,25.83,0,0,1,379,651.9c.64.57,1.31.4,2,.56a1.53,1.53,0,0,1,.8.34c1.82,2.08,3.62,4.19,5.42,6.29a1.82,1.82,0,0,1,.15.23l-2.52,2.47-15.44-14.54c0-.08,0-.16.05-.24"/><path class="cls-2" d="M376.72,643.73c.33,0,.72-.11,1,0a19.38,19.38,0,0,1,3,1.68,44.49,44.49,0,0,1,3.55,3,1.37,1.37,0,0,0,1.22.5,1,1,0,0,1,1,.54c1.53,2.28,3.07,4.54,4.64,6.85l-2.63,2-11.89-14.46a1.72,1.72,0,0,0,.07-.21"/><path class="cls-2" d="M460.83,643.88l-12,14.48-2.67-2.08q1.44-2.07,2.91-4.14c.51-.74,1.05-1.45,1.54-2.2a1,1,0,0,1,1-.54,1.18,1.18,0,0,0,1.09-.46,24.93,24.93,0,0,1,6.38-4.94,1.54,1.54,0,0,1,1.75-.12"/><path class="cls-2" d="M401.5,586.82c-.1-.92-.2-1.74-.28-2.56a5.36,5.36,0,0,0-1.93-3.49c-.34-.31-.58-.66-.39-1s.62-.8,1-.81a28.46,28.46,0,0,1,5.06.13c2.21.34,3.29,1.65,3.65,3.86.2,1.19.18,1.14-.94,1.54-1.76.63-3.5,1.32-5.25,2l-.87.37"/><path class="cls-2" d="M435.67,586.85a19.27,19.27,0,0,0-6.51-2.75.69.69,0,0,1-.37-.55c.25-3.06,2-4.68,5.15-4.68,1.09,0,2.19,0,3.27,0a2.33,2.33,0,0,1,1.23.55.65.65,0,0,1-.17,1.11,3.91,3.91,0,0,0-2,3c-.21.85-.29,1.72-.43,2.57,0,.21-.1.42-.17.73"/><path class="cls-2" d="M388.57,597.51a4.64,4.64,0,0,1-3.12,4,.65.65,0,0,1-.51-.18,22,22,0,0,0-6.36-4.5c-.8-.38-1-.88-.75-1.56s.72-.93,1.58-.7q4.36,1.18,8.71,2.45c.23.07.38.41.45.48"/><path class="cls-2" d="M418.6,636.79h-2.67c-.42,0-.85-.11-.77-.61A22.85,22.85,0,0,1,416,632a2.88,2.88,0,0,1,4-1.56,3.45,3.45,0,0,1,1.76,2.25,7.8,7.8,0,0,1,.31,3.43.64.64,0,0,1-.74.6H418.6Z"/><path class="cls-2" d="M448.82,597.7c-.09-.4.13-.62.57-.74,2.8-.77,5.59-1.58,8.39-2.35,1-.27,1.51,0,1.77.68s0,1.13-.81,1.59a37.32,37.32,0,0,0-3.3,1.92,29.44,29.44,0,0,0-2.89,2.47.7.7,0,0,1-.88.16,4.55,4.55,0,0,1-2.85-3.73"/><path class="cls-2" d="M410.39,583.69c-.23-.94-.4-1.83-.68-2.68-.12-.38-.5-.67-.7-1a1,1,0,0,1-.16-.78.9.9,0,0,1,.67-.42c2.07,0,4.14,0,6.21.13a2.45,2.45,0,0,1,2.22,2.58c.08,1.83.08,1.8-1.73,1.87s-3.74.22-5.61.34h-.22"/><path class="cls-2" d="M427.21,583.39c-2.45,0-4.83,0-7.21,0-.19,0-.53-.26-.53-.4a10.61,10.61,0,0,1,.17-2.26,2.27,2.27,0,0,1,2.33-1.83c1.86,0,3.71,0,5.56,0a1.17,1.17,0,0,1,.92.46c.11.22-.13.66-.28,1a4.82,4.82,0,0,0-.93,2.53,3.1,3.1,0,0,1,0,.52"/><path class="cls-2" d="M430.15,649.93c0-2.26,0-4.5,0-6.73a.77.77,0,0,1,.21-.54,3.84,3.84,0,0,0,1.37-3.45c0-.78-.08-1.56-.15-2.34a1.19,1.19,0,0,0-1-1.07,9.93,9.93,0,0,0-1.25-.24c-.05-.34-.09-.7-.14-1.12h5.1l-.82,4.46c-.61,3.38-1.21,6.76-1.84,10.13-.2,1.12-.25,1.14-1.53.9"/><path class="cls-2" d="M407.16,649.94c-1.17.23-1.2.21-1.4-.9l-2.58-14.22c0-.11,0-.21-.05-.4H408c.22,1.06.2,1.08-.78,1.2a1.38,1.38,0,0,0-1.36,1.25c-.1,1-.16,2-.17,3a3.79,3.79,0,0,0,1.12,2.58,1.21,1.21,0,0,1,.38.73c0,2.19,0,4.39,0,6.58a.49.49,0,0,1-.06.17"/><path class="cls-2" d="M404.73,683.27c-1-.33-1.84-.6-2.67-.91-1.35-.49-1.38-.52-.69-1.82.92-1.77,1.91-3.52,2.85-5.29.3-.57.64-.64,1.17-.28s1.33.82,2,1.24c.33.22.57.48.36.95-.82,1.8-1.62,3.61-2.45,5.42a3.63,3.63,0,0,1-.55.69"/><path class="cls-2" d="M395.42,653.79l-3.08,1.78c-1.48-2.27-2.94-4.5-4.5-6.87l3.64-2.37c1.33,2.5,2.61,4.94,3.94,7.46"/><path class="cls-2" d="M397,644c.91,2.5,1.79,4.89,2.64,7.29a.65.65,0,0,1-.16.57c-.89.45-1.81.85-2.77,1.29-1.27-2.44-2.5-4.81-3.77-7.27L397,644"/><path class="cls-2" d="M445.94,646.36l3.68,2.4c-1.62,2.31-3.15,4.47-4.71,6.7L442,653.79c1.3-2.48,2.58-4.89,3.92-7.43"/><path class="cls-2" d="M438.91,643.76c-.83,2.63-1.61,5.13-2.42,7.68l-3.42-.83c.53-2.65,1-5.22,1.58-7.91l4.26,1.06"/><path class="cls-2" d="M398.52,643.77l4.27-1.07c.54,2.62,1.07,5.19,1.61,7.83l-3.38.84c-.83-2.52-1.64-5-2.5-7.6"/><path class="cls-2" d="M436.59,681.91c-.91.34-1.74.7-2.6,1-1.55.48-1.41.68-2.14-1-.66-1.49-1.34-3-2-4.45-.34-.74-.29-.93.4-1.36l2.38-1.45,4,7.27"/><path class="cls-2" d="M440.45,644.05l3.85,1.77-3.52,7.29-3.19-1.33c1-2.62,1.91-5.14,2.86-7.73"/><path class="cls-2" d="M420.69,584.71c2.17,0,4.19-.26,6.19.22a.52.52,0,0,1,.32.4c0,2.43,0,4.86,0,7.49l-6.53-8.11"/><path class="cls-2" d="M416.7,584.83l-6.44,7.94c0-.28,0-.44,0-.61,0-2.12,0-4.24,0-6.36,0-.48.09-.75.64-.78l5.77-.39a1.67,1.67,0,0,1,.08.2"/><path class="cls-2" d="M453.9,610.16l-7.46,2.13c-.07-1.2-.14-2.26-.17-3.32a.57.57,0,0,1,.34-.39c2-.56,4.05-1.11,6.08-1.62a.65.65,0,0,1,.52.3c.25.92.45,1.86.69,2.9"/><path class="cls-2" d="M390.94,612.29c-.69-.21-1.29-.4-1.9-.57-1.67-.48-3.34-1-5-1.43-.45-.12-.56-.29-.42-.75.22-.72.37-1.47.53-2.21.08-.35.25-.48.62-.38,2,.53,3.92,1.06,5.88,1.56a.56.56,0,0,1,.49.71c-.08,1-.12,1.95-.18,3.07"/><path class="cls-2" d="M446.23,607c-.25-.9-.5-1.76-.74-2.61a.63.63,0,0,1,.4-.86,7.06,7.06,0,0,0,2.84-2.18c1,.56,2.08,1.11,3.1,1.68a.69.69,0,0,1,.3.39c.16.58.29,1.16.46,1.85L446.23,607"/><path class="cls-2" d="M384.79,605.3c.17-.69.31-1.31.49-1.93a.6.6,0,0,1,.29-.32l3.08-1.66a7.35,7.35,0,0,0,2.91,2.21c.43.16.42.52.31.9-.24.81-.47,1.62-.72,2.52l-6.36-1.72"/><path class="cls-2" d="M443.26,597c-.16-.17-.49-.37-.58-.64-.15-.48.21-.72.64-.83l8-2.12L458,591.6a1.06,1.06,0,0,1,.7,0,1,1,0,0,1,.47.65c0,.19-.22.47-.41.6a2.87,2.87,0,0,1-.83.26l-14,3.73-.71.16"/><path class="cls-2" d="M378.79,591.45l2.83.73,12.29,3.28c.15,0,.36,0,.44.15s.38.49.34.71-.32.45-.55.55a1,1,0,0,1-.65,0L379.06,593c-.15,0-.35-.05-.44-.15s-.46-.53-.41-.72.41-.48.58-.66"/><path class="cls-2" d="M450.5,647.66l-3.95-2.54a19.67,19.67,0,0,1,1.46-2.28c.72-.86,2.14-.58,3,.48a3.06,3.06,0,0,1-.54,4.34"/><path class="cls-2" d="M440.82,642.69a23.87,23.87,0,0,1,1.46-2.52,1.7,1.7,0,0,1,2.12-.48,2.28,2.28,0,0,1,1.72,1.93,1.22,1.22,0,0,1,0,.47c-.24.71-.33,1.61-.82,2.07s-1.29-.24-1.93-.44-1.53-.61-2.53-1"/><path class="cls-2" d="M390.83,645l-3.84,2.6a3.14,3.14,0,0,1-1.23-3.08,2.88,2.88,0,0,1,2.42-2.19,1.82,1.82,0,0,1,1.28.55,16.13,16.13,0,0,1,1.37,2.12"/><path class="cls-2" d="M396.55,642.7c-1.38.56-2.64,1.06-3.89,1.59-.36.15-.54,0-.66-.3-.2-.55-.45-1.07-.61-1.63a1.87,1.87,0,0,1,.66-2.1,2.14,2.14,0,0,1,2.4-.53,3.73,3.73,0,0,1,1.27,1.23,11.26,11.26,0,0,1,.83,1.74"/><path class="cls-2" d="M402.57,641.34c-1.44.26-2.78.51-4.11.71a.53.53,0,0,1-.45-.32,13.45,13.45,0,0,1-.21-2.29,1.67,1.67,0,0,1,1.24-1.58,2,2,0,0,1,2.23.42,5.36,5.36,0,0,1,1.3,3.06"/><path class="cls-2" d="M434.76,641.24a19.78,19.78,0,0,1,1-2.48,2.06,2.06,0,0,1,2.48-1,1.88,1.88,0,0,1,1.42,1.88,16.68,16.68,0,0,1-.27,2.46l-4.65-.9"/><path class="cls-2" d="M425.61,636.82c-.47,0-.94,0-1.41,0s-.75-.25-.71-.71a10.24,10.24,0,0,1,.3-1.84,1.49,1.49,0,0,1,1.42-1,2,2,0,0,1,2,.61,3.2,3.2,0,0,1,.53,2.66c0,.14-.31.3-.48.31-.56,0-1.12,0-1.67,0Z"/><path class="cls-2" d="M443.86,600.31c0-1.17.27-1.79,1-2.08a16.64,16.64,0,0,1,2-.61.58.58,0,0,1,.49.24,3.38,3.38,0,0,1-2.14,4.46c-.33.12-.57.1-.7-.24-.27-.7-.52-1.41-.65-1.77"/><path class="cls-2" d="M455.33,607.92c-.2-.22-.54-.42-.63-.7-.44-1.35-.83-2.73-1.23-4.1-.14-.47-.12-.94.42-1.11a.92.92,0,0,1,1.19.6,9.44,9.44,0,0,0,2.41,3.64.64.64,0,0,1-.21,1.1c-.58.22-1.2.35-1.95.57"/><path class="cls-2" d="M384.05,602.75c-.31,1-.6,2.08-.9,3.11-.12.4-.26.8-.4,1.21a1.52,1.52,0,0,1-.09.25.75.75,0,0,1-1,.45c-.67-.24-1.59,0-1.91-.94a.7.7,0,0,1,.2-.6,9.63,9.63,0,0,0,2.41-3.65.9.9,0,0,1,1.42-.42,2.32,2.32,0,0,1,.31.59"/><path class="cls-2" d="M393.66,599.94c-.27.72-.52,1.46-.83,2.16a.64.64,0,0,1-.56.23,3.37,3.37,0,0,1-2.23-4.5.54.54,0,0,1,.45-.22,18.44,18.44,0,0,1,2.21.73,1.87,1.87,0,0,1,1,1.6"/><path class="cls-2" d="M413.76,636.82c-1.35,0-2.6,0-3.85,0-.12,0-.36-.24-.35-.36a9.64,9.64,0,0,1,.21-1.86,1.73,1.73,0,0,1,1.9-1.35,2.24,2.24,0,0,1,2,1.87c.08.53.06,1.07.09,1.72"/></svg>