<svg id="Layer_1" data-name="Layer 1" xmlns="http://www.w3.org/2000/svg" viewBox="0 0 793.7 1218.9"><defs><style>.cls-1{fill:#086961;}.cls-2{fill:#fff;}</style></defs><path class="cls-1" d="M491.7,627.05a54.47,54.47,0,0,1-10.47,8.6,50.2,50.2,0,0,1-17.64,6.76,43.5,43.5,0,0,1-8.24.48c-24.88,0-49.75.05-74.63-.06a44.12,44.12,0,0,1-25-8.17,48.27,48.27,0,0,1-16.12-18.2,44.75,44.75,0,0,1-5.2-20.75q.15-37.51,0-75a46.21,46.21,0,0,1,5.63-22.07,50,50,0,0,1,9-11.95c7.17-7.18,15.88-11.11,25.61-13.09A36.66,36.66,0,0,1,382,473c25,0,50-.09,75,0a45.42,45.42,0,0,1,19.18,4.5,50.83,50.83,0,0,1,14.73,10.6,60.33,60.33,0,0,1,6.67,8.66l1.31,2.35A49.35,49.35,0,0,1,504,516.08a50.24,50.24,0,0,1,.32,5.21c0,23.81,0,47.62.05,71.44a53.43,53.43,0,0,1-4.87,22.87,30.48,30.48,0,0,1-4.61,7.53l-.46.75,0,0a21.07,21.07,0,0,0-2.77,3.2M339.28,558h0c0,9.83,0,19.67,0,29.5a104.4,104.4,0,0,0,.33,11.86,44.09,44.09,0,0,0,43.33,38.75q36.43.06,72.88,0a39.77,39.77,0,0,0,8.63-1c21.05-4.65,35.18-22.26,35.18-43.82q0-35.36,0-70.7a48.4,48.4,0,0,0-1.12-10.39,44,44,0,0,0-42.8-34.43q-35.83,0-71.68,0a52,52,0,0,0-8.27.68c-20.19,3.25-36.06,21.26-36.41,41.7-.21,12.6,0,25.21,0,37.82"/><path class="cls-1" d="M347.11,558.15v36.24a29.93,29.93,0,0,0,.33,4.53,36.85,36.85,0,0,0,36.79,31.7c15,0,30,.12,44.94-.24,6.93-.17,13.86,0,20.79-.06a74.68,74.68,0,0,0,10.67-.42,37.05,37.05,0,0,0,31.1-36.35V522.06a33,33,0,0,0-.28-4.33,36.82,36.82,0,0,0-37.08-32.49q-35.43.11-70.87.32A37.92,37.92,0,0,0,378,486c-17.35,2.66-30.87,18.35-30.87,35.91q0,18.12,0,36.24"/><path class="cls-1" d="M347.11,558.15q0-18.12,0-36.24c0-17.56,13.52-33.25,30.87-35.91a37.89,37.89,0,0,1,5.51-.44q35.44-.18,70.88-.32a36.82,36.82,0,0,1,37.08,32.49,33,33,0,0,1,.28,4.33v71.49a37.05,37.05,0,0,1-31.1,36.35c-3.56.56-61.42.68-76.4.72a36.85,36.85,0,0,1-36.79-31.7,31.28,31.28,0,0,1-.33-4.53V558.15"/><path class="cls-2" d="M435.61,571V554.41h-6.55V571a1.37,1.37,0,0,1-.19.05c-.91,0-1.82-.05-2.73-.05-.32,0-.44-.09-.44-.44,0-2.37,0-4.74,0-7.11,0-3,0-5.92,0-8.88v-.31h-6.57V571h-3.58v-.39c0-3.35,0-6.7,0-10.05,0-2,0-4,.05-5.94,0-.17,0-.33-.25-.32-1.38,0-2.76,0-4.14.05H409v.36q0,7.86,0,15.72c0,.54,0,.54-.53.54h-2.92V546.06c0-.55,0-1.11,0-1.66,0-.14.16-.26.23-.4.52-1,1-2.06,1.54-3.09l1.66-3.27a1,1,0,0,0,.06-.42q0-4.59,0-9.18a.72.72,0,0,1,.2-.53c1-1.11,2-2.24,3-3.37a.68.68,0,0,0,.12-.43c0-3.46,0-6.92,0-10.38,0-1.25.1-2.49.1-3.73a.7.7,0,0,1,.25-.54c.38-.41.76-.82,1.16-1.21a.68.68,0,0,1,.45-.19l6.71,0c1.93,0,3.86,0,5.8-.05a.56.56,0,0,1,.55.32c.54.91,1.11,1.8,1.63,2.72a1.76,1.76,0,0,1,.15.83c0,3,0,6-.05,9q0,3.12,0,6.24a1.12,1.12,0,0,0,.25.73c.7.94,1.41,1.87,2.07,2.83a4.74,4.74,0,0,1,.84,2.44c.09,2.61.16,5.21.24,7.81,0,.11,0,.22,0,.35.48,0,.94.07,1.4.08a1.63,1.63,0,0,1,1.6,1.58c0,2.44.09,4.87.14,7.31a2.1,2.1,0,0,0,.51,1.32c.85,1,1.73,1.94,2.61,2.89a1.27,1.27,0,0,1,.32,1q0,5.79,0,11.58v4.11c0,.42,0,.44-.43.43l-3.08-.13"/><path class="cls-2" d="M395.61,554.39h-6.48V561H375.57c0-.12,0-.22,0-.33v-16a.75.75,0,0,1,.24-.58c.93-.95,1.86-1.91,2.78-2.88a.89.89,0,0,0,.19-.46l.09-11.68c0-2.16,0-4.32.06-6.48,0-.55,0-1.1.08-1.68h3.36a.44.44,0,0,1,.25.15c1,1,2,2,3,3a2.36,2.36,0,0,1,.2.34h5.16a1.28,1.28,0,0,1,1.38,1.39,12.39,12.39,0,0,0,1,4.76q1.18,3.39,2.34,6.8a1.67,1.67,0,0,1,.09.55c0,2.31,0,4.63,0,6.94a1.45,1.45,0,0,0,.19.71c.68,1.15,1.39,2.28,2.07,3.43.35.58.67,1.19,1,1.8a1.27,1.27,0,0,1,.13.61q0,4.79,0,9.58a.45.45,0,0,1,0,.08h-3.5Z"/><path class="cls-2" d="M455.58,560.92v-6.48h-6.42v6.47h-3.68v-1.29c0-1.32.07-2.65,0-4a7.16,7.16,0,0,1,.41-2.52c1-2.75,2-5.52,2.94-8.28.2-.58.36-.68,1-.68.77,0,.82,0,1-.81.5-2.32,1-4.64,1.51-7l1.56-7.23c.05-.26.11-.52.17-.77a1.19,1.19,0,0,1,.89-.71c1.84,0,3.68-.06,5.51-.06a3.91,3.91,0,0,1,2.2.58,3.68,3.68,0,0,1,1.6,2.62h2.36c.51,0,.75.23.75.74,0,3.53.05,7.07.06,10.61a.87.87,0,0,0,.25.62c.45.46.88,1,1.3,1.43a.45.45,0,0,1,.1.29q0,8.13,0,16.26a1,1,0,0,1,0,.15Z"/><rect class="cls-2" x="375.63" y="574.38" width="93.41" height="3.13"/><rect class="cls-2" x="392.57" y="587.52" width="59.53" height="3.37"/><rect class="cls-2" x="392.58" y="581.04" width="59.51" height="3.17"/><rect class="cls-2" x="392.58" y="594.21" width="59.52" height="3.16"/><path class="cls-2" d="M389,581v11.61H373c-.68,0-.7,0-.51-.7.72-2.58,1.45-5.15,2.18-7.73.28-1,.56-2,.83-2.95a.3.3,0,0,1,.34-.26h12.85l.27,0"/><path class="cls-2" d="M455.72,581H469.1q1.17,5.77,2.35,11.61H455.72Z"/><rect class="cls-2" x="375.57" y="562.29" width="13.53" height="8.64"/><path class="cls-2" d="M455.68,562.43h13.38v8.36l-.32,0H456.12a3.87,3.87,0,0,0-.44.08Z"/><rect class="cls-2" x="372.24" y="594.21" width="16.72" height="3.12"/><path class="cls-2" d="M455.7,597.34v-3.13h16.08c.2,1,.4,2,.61,3.13Z"/><path class="cls-2" d="M445.48,570.8v-8.35h3.67v.35q0,3.81,0,7.61c0,.44,0,.47-.48.47-.84,0-1.69,0-2.53,0a5.07,5.07,0,0,1-.65-.06"/><path class="cls-2" d="M395.62,562.28h3.51v.35q0,3.93,0,7.84c0,.31-.08.43-.41.42-.93,0-1.87,0-2.8,0-.2,0-.34,0-.34-.28v-8.17a.56.56,0,0,1,0-.15"/></svg>